<?xml version="1.0" encoding="UTF-8" standalone="no"?>
<!-- Created with Inkscape (http://www.inkscape.org/) -->
<svg
   xmlns:dc="http://purl.org/dc/elements/1.1/"
   xmlns:cc="http://web.resource.org/cc/"
   xmlns:rdf="http://www.w3.org/1999/02/22-rdf-syntax-ns#"
   xmlns:svg="http://www.w3.org/2000/svg"
   xmlns="http://www.w3.org/2000/svg"
   xmlns:xlink="http://www.w3.org/1999/xlink"
   xmlns:sodipodi="http://inkscape.sourceforge.net/DTD/sodipodi-0.dtd"
   xmlns:inkscape="http://www.inkscape.org/namespaces/inkscape"
   width="6400"
   height="4800"
   id="svg1306"
   sodipodi:version="0.32"
   inkscape:version="0.43"
   sodipodi:docbase="L:\home\paniq\devel\neuro\demo\res"
   sodipodi:docname="scene3.svg"
   version="1.0">
  <defs
     id="defs1308">
    <linearGradient
       inkscape:collect="always"
       id="linearGradient12819">
      <stop
         style="stop-color:#000000;stop-opacity:1;"
         offset="0"
         id="stop12821" />
      <stop
         style="stop-color:#000000;stop-opacity:0;"
         offset="1"
         id="stop12823" />
    </linearGradient>
    <linearGradient
       id="linearGradient2967">
      <stop
         style="stop-color:#809dc9;stop-opacity:1;"
         offset="0"
         id="stop2969" />
      <stop
         style="stop-color:#001c66;stop-opacity:1;"
         offset="1"
         id="stop2971" />
    </linearGradient>
    <radialGradient
       inkscape:collect="always"
       xlink:href="#linearGradient2967"
       id="radialGradient2975"
       cx="4.9612255"
       cy="554.69659"
       fx="4.9612255"
       fy="554.69659"
       r="321.2403"
       gradientTransform="matrix(1.959604,-1.039323e-2,7.620626e-3,1.454567,-9.011896,-331.4489)"
       gradientUnits="userSpaceOnUse" />
    <linearGradient
       inkscape:collect="always"
       xlink:href="#linearGradient12819"
       id="linearGradient12825"
       x1="1694.8372"
       y1="-1115.2026"
       x2="1694.8325"
       y2="-1117.7974"
       gradientUnits="userSpaceOnUse"
       gradientTransform="translate(-3093.782,-1289.073)" />
  </defs>
  <sodipodi:namedview
     id="base"
     pagecolor="#ffffff"
     bordercolor="#666666"
     borderopacity="1.0"
     inkscape:pageopacity="1"
     inkscape:pageshadow="2"
     inkscape:zoom="0.16125"
     inkscape:cx="3200"
     inkscape:cy="2400"
     inkscape:current-layer="layer1"
     inkscape:document-units="px"
     inkscape:window-width="1280"
     inkscape:window-height="939"
     inkscape:window-x="-4"
     inkscape:window-y="-4" />
  <metadata
     id="metadata1311">
    <rdf:RDF>
      <cc:Work
         rdf:about="">
        <dc:format>image/svg+xml</dc:format>
        <dc:type
           rdf:resource="http://purl.org/dc/dcmitype/StillImage" />
      </cc:Work>
    </rdf:RDF>
  </metadata>
  <g
     id="layer1"
     inkscape:label="Layer 1"
     inkscape:groupmode="layer">
    <path
       style="font-size:1346.32800293px;font-style:normal;font-variant:normal;font-weight:normal;font-stretch:normal;text-align:start;line-height:125%;writing-mode:lr-tb;text-anchor:start;fill:#000000;fill-opacity:1;stroke:none;stroke-width:1px;stroke-linecap:butt;stroke-linejoin:miter;stroke-opacity:1;font-family:Arial Black"
       d="M 1258.3392,2332.7948 C 1295.6546,2358.559 1320.0184,2374.7136 1331.4305,2381.259 C 1348.5455,2390.8579 1371.582,2401.976 1400.5396,2414.613 L 1318.1266,2581.7957 C 1276.441,2561.74 1235.1846,2537.7388 1194.3575,2509.7924 C 1153.5298,2482.2841 1124.9912,2461.5381 1108.7414,2447.5544 C 1043.0734,2476.2055 960.71691,2490.6547 861.67159,2490.9023 C 715.29345,2491.2682 599.71774,2453.4286 514.94397,2377.3833 C 414.79571,2287.3524 364.51736,2160.6022 364.10878,1997.1323 C 363.71219,1838.4841 407.01084,1715.2252 494.00489,1627.3551 C 581.43571,1539.0473 703.59909,1494.697 860.49525,1494.3039 C 1020.4581,1493.905 1143.9346,1536.5456 1230.9249,1622.2262 C 1318.3517,1707.9071 1362.2654,1830.729 1362.6663,1990.6919 C 1363.0212,2133.1257 1328.2456,2247.1598 1258.3392,2332.7948 M 1029.8455,2180.8518 C 1053.4043,2138.2821 1065.0784,2074.7054 1064.8677,1990.1215 C 1064.6237,1892.8292 1046.2625,1823.4111 1009.784,1781.8669 C 973.74217,1740.3231 923.94806,1719.6303 860.40152,1719.7883 C 801.23638,1719.937 753.30049,1741.3124 716.59365,1783.9146 C 679.88597,1826.5181 661.64522,1892.9599 661.87123,1983.2401 C 662.13373,2088.4222 680.28689,2162.2233 716.33056,2204.644 C 752.37336,2247.0654 801.73029,2268.1975 864.40149,2268.0407 C 884.5606,2267.9905 903.61986,2265.9706 921.57913,2261.9812 C 896.53767,2237.9398 857.03769,2215.2491 803.07901,2193.909 L 849.48544,2086.6386 C 875.79236,2091.3941 896.18599,2097.2597 910.66664,2104.2352 C 925.58424,2111.2104 954.33604,2129.5455 996.922,2159.2403 C 1007.0188,2166.2275 1017.9933,2173.4313 1029.8455,2180.8518 M 2243.4531,2471.0136 L 1993.647,2471.6381 L 1993.3644,2358.5679 C 1956.228,2405.1162 1918.6208,2438.2988 1880.5423,2458.1157 C 1842.9011,2477.9314 1796.4706,2487.9083 1741.2507,2488.0464 C 1667.6233,2488.2304 1609.7187,2466.4621 1567.5368,2422.7416 C 1525.7917,2378.5819 1504.8048,2310.7042 1504.5758,2219.1085 L 1503.4651,1774.7164 L 1772.3354,1774.0443 L 1773.295,2157.9571 C 1773.4042,2201.7829 1781.5897,2232.8789 1797.8515,2251.2449 C 1814.1127,2269.6113 1836.925,2278.7578 1866.2885,2278.6841 C 1898.2809,2278.6044 1924.3263,2266.2681 1944.4253,2241.6751 C 1964.9616,2217.0815 1975.1504,2173.011 1974.9921,2109.4635 L 1974.1524,1773.54 L 2241.708,1772.8712 L 2243.4531,2471.0136 M 2649.8518,1997.9926 L 2394.0617,1971.6791 C 2403.5917,1926.9534 2417.3091,1891.8584 2435.214,1866.3941 C 2453.5561,1840.4915 2479.7957,1818.0748 2513.9327,1799.1437 C 2538.4409,1785.4971 2572.1603,1774.8946 2615.091,1767.3361 C 2658.0212,1759.7791 2704.467,1755.9378 2754.4286,1755.8122 C 2834.6291,1755.6124 2899.0642,1760.0531 2947.7343,1769.1342 C 2996.402,1777.7784 3036.9871,1796.303 3069.4901,1824.7078 C 3092.328,1844.373 3110.3665,1872.3766 3123.606,1908.7184 C 3136.8427,1944.6232 3143.5025,1979.0097 3143.5855,2011.8784 L 3144.3561,2320.1919 C 3144.4374,2353.0614 3146.4743,2378.9134 3150.4665,2397.7486 C 3154.8943,2416.1444 3164.1568,2439.7873 3178.2542,2468.677 L 2927.1332,2469.3047 C 2917.0077,2451.3615 2910.4,2437.792 2907.3097,2428.5961 C 2904.2174,2418.9623 2901.1123,2404.0693 2897.9947,2383.917 C 2863.018,2417.7506 2828.2368,2441.9417 2793.6512,2456.4906 C 2746.3674,2475.8922 2691.3903,2485.6714 2628.72,2485.828 C 2545.451,2486.0362 2482.0749,2466.9111 2438.5912,2428.4531 C 2395.5457,2389.9938 2373.9522,2342.4968 2373.8109,2285.9616 C 2373.6784,2232.9329 2389.1275,2189.2874 2420.1582,2155.0254 C 2451.1888,2120.764 2508.5369,2095.2017 2592.2025,2078.3382 C 2692.5124,2057.928 2757.5585,2043.7411 2787.3404,2035.7777 C 2817.1206,2027.3767 2848.6483,2016.5605 2881.9234,2003.3291 C 2881.8407,1970.4604 2874.9902,1947.4689 2861.3719,1934.3547 C 2847.7526,1921.2414 2823.8512,1914.7274 2789.6678,1914.8123 C 2745.8417,1914.9224 2712.9901,1922.0166 2691.1126,1936.0951 C 2674.0477,1947.0947 2660.2942,1967.7273 2649.8518,1997.9926 M 2882.2602,2138.093 C 2845.479,2151.333 2807.1607,2163.0427 2767.3051,2173.2219 C 2712.9969,2187.8205 2678.6295,2202.1497 2664.2025,2216.2099 C 2649.3374,2230.7099 2641.9283,2247.163 2641.9745,2265.5696 C 2642.0269,2286.6061 2649.3014,2303.8992 2663.7981,2317.4488 C 2678.7314,2330.5595 2700.4414,2337.0789 2728.9284,2337.0077 C 2758.7295,2336.9333 2786.3216,2329.6332 2811.7047,2315.1069 C 2837.5253,2300.58 2855.6691,2283.0043 2866.1363,2262.3798 C 2877.0395,2241.3162 2882.4498,2214.1308 2882.367,2180.823 L 2882.2602,2138.093 M 2547.4184,1519.6697 L 2718.3384,1519.2425 L 2718.7491,1683.5887 L 2547.8292,1684.0159 L 2547.4184,1519.6697 M 2826.1494,1518.973 L 2999.0416,1518.5409 L 2999.4523,1682.887 L 2826.5602,1683.3192 L 2826.1494,1518.973 M 3313.2388,1504.6077 L 3581.4517,1503.9373 L 3583.8606,2467.6633 L 3315.6476,2468.3337 L 3313.2388,1504.6077 M 4530.4452,2182.6201 L 3994.0191,2183.9608 C 3998.9472,2226.8981 4010.6409,2258.8618 4029.1005,2279.8519 C 4055.0329,2310.0271 4088.8165,2325.0626 4130.4512,2324.9585 C 4156.7461,2324.8929 4181.7104,2318.2565 4205.3438,2305.0496 C 4219.7848,2296.6866 4235.3062,2281.9662 4251.908,2260.888 L 4515.58,2284.5525 C 4475.4349,2354.7743 4426.9144,2405.2954 4370.0186,2436.1156 C 4313.1201,2466.4978 4231.4232,2481.8219 4124.9274,2482.0882 C 4032.4551,2482.3193 3959.6721,2469.5725 3906.5787,2443.848 C 3853.4839,2417.6851 3809.3357,2376.38 3774.134,2319.9325 C 3739.3693,2263.0459 3721.8911,2196.2552 3721.6994,2119.56 C 3721.4266,2010.4346 3756.0472,1922.0389 3825.5612,1854.3728 C 3895.5135,1786.7068 3992.0645,1752.7193 4115.2149,1752.4109 C 4215.1369,1752.1617 4294.0607,1767.0845 4351.9868,1797.1789 C 4409.9115,1827.2746 4454.0658,1870.9902 4484.4497,1928.3255 C 4514.8321,1985.662 4530.1387,2060.3469 4530.3696,2152.3803 L 4530.4452,2182.6201 M 4257.9674,2055.1103 C 4252.5786,2003.4096 4238.4618,1966.412 4215.6172,1944.1174 C 4193.2097,1921.8227 4163.5994,1910.7212 4126.7865,1910.8126 C 4084.2751,1910.9195 4050.3525,1927.8772 4025.0184,1961.6859 C 4008.8551,1982.7633 3998.6345,2014.1244 3994.3563,2055.7692 L 4257.9674,2055.1103 M 4653.6525,1766.8423 L 4902.8013,1766.2195 L 4903.0856,1879.9471 C 4940.221,1833.3995 4977.8282,1800.2169 5015.9076,1780.3993 C 5053.9851,1760.1451 5100.415,1749.9489 5155.1976,1749.8113 C 5229.2622,1749.6269 5287.1674,1771.6142 5328.913,1815.7734 C 5371.0945,1859.4945 5392.3005,1927.3716 5392.5314,2019.4049 L 5393.6405,2463.1395 L 5124.7703,2463.8116 L 5123.8107,2079.899 C 5123.7006,2036.0738 5115.5155,2005.197 5099.2557,1987.2685 C 5082.9937,1968.9028 5060.1814,1959.7564 5030.8187,1959.8293 C 4998.3872,1959.9108 4972.1227,1972.2477 4952.0246,1996.8399 C 4931.9257,2021.4332 4921.956,2065.5031 4922.1151,2129.0498 L 4922.9531,2464.3161 L 4655.3975,2464.9848 L 4653.6525,1766.8423 M 6287.2471,1497.174 L 6289.6561,2460.8999 L 6039.1924,2461.5259 L 6038.9344,2358.3166 C 6003.983,2402.2298 5972.0642,2431.8921 5943.1782,2447.3034 C 5904.6615,2467.5595 5861.7376,2477.7468 5814.4063,2477.8652 C 5719.3044,2478.1029 5646.4636,2442.1285 5595.8835,2369.9422 C 5545.7415,2297.7549 5520.5411,2209.9471 5520.2827,2106.5183 C 5519.9934,1990.8191 5547.3824,1902.2223 5602.4494,1840.7279 C 5657.9544,1779.2335 5728.4369,1748.3791 5813.8971,1748.1648 C 5855.5311,1748.0615 5893.2387,1754.9794 5927.0199,1768.9185 C 5961.2384,1782.8579 5991.5307,1803.8186 6017.8967,1831.8007 L 6017.0619,1497.8493 L 6287.2471,1497.174 M 6020.5657,2110.5269 C 6020.4281,2055.7453 6008.7124,2015.0164 5985.4186,1988.3404 C 5962.1226,1961.2271 5932.7255,1947.7145 5897.2272,1947.8028 C 5866.1106,1947.8811 5840.0667,1960.8748 5819.0954,1986.784 C 5798.1233,2012.6942 5787.7137,2056.1078 5787.8662,2117.0251 C 5788.0084,2173.9986 5798.8502,2215.8253 5820.3919,2242.5049 C 5842.3701,2268.7458 5869.3557,2281.8261 5901.3488,2281.7459 C 5935.5325,2281.6607 5963.9856,2268.2227 5986.7087,2241.432 C 6009.4305,2214.6416 6020.7162,2171.0066 6020.5657,2110.5269"
       id="text8281" />
    <path
       style="font-size:1314.68225098px;font-style:normal;font-variant:normal;font-weight:normal;font-stretch:normal;text-align:start;line-height:125%;writing-mode:lr-tb;text-anchor:start;fill:#000000;fill-opacity:1;stroke:none;stroke-width:1px;stroke-linecap:butt;stroke-linejoin:miter;stroke-opacity:1;font-family:Arial Black"
       d="M 71.392488,2315.8752 L 333.30095,2315.2206 L 335.65326,3256.2938 L 73.744757,3256.9484 L 71.392488,2315.8752 M 740.84464,2794.3705 L 491.06696,2768.6755 C 500.3728,2725.0011 513.76783,2690.7309 531.25203,2665.8652 C 549.16289,2640.5714 574.78562,2618.6816 608.1203,2600.1954 C 632.05242,2586.8695 664.97925,2576.5163 706.9009,2569.1356 C 748.82199,2561.7562 794.1761,2558.0052 842.96341,2557.8825 C 921.27864,2557.6876 984.19922,2562.0238 1031.7252,2570.8914 C 1079.249,2579.3324 1118.8804,2597.4215 1150.6192,2625.1588 C 1172.9203,2644.3618 1190.535,2671.707 1203.4631,2707.1946 C 1216.3886,2742.2554 1222.8921,2775.8337 1222.973,2807.9299 L 1223.7256,3108.9964 C 1223.805,3141.0931 1225.7939,3166.3376 1229.6923,3184.7299 C 1234.016,3202.6934 1243.0607,3225.7805 1256.8267,3253.9912 L 1011.6084,3254.6042 C 1001.721,3237.0827 995.26854,3223.8321 992.25097,3214.8525 C 989.23121,3205.445 986.19909,3190.9021 983.15474,3171.2236 C 949.00023,3204.2617 915.03664,3227.8843 881.26395,3242.0913 C 835.09147,3261.0369 781.40671,3270.5861 720.20952,3270.7391 C 638.89782,3270.9424 577.01125,3252.2669 534.54967,3214.7127 C 492.51594,3177.1576 471.43001,3130.777 471.29211,3075.5706 C 471.1626,3023.7883 486.24863,2981.1688 516.55006,2947.7121 C 546.8513,2914.2559 602.85136,2889.2945 684.55028,2872.8275 C 782.50239,2852.897 846.01944,2839.0436 875.1016,2831.2672 C 904.18181,2823.0638 934.96828,2812.5019 967.46135,2799.5814 C 967.38053,2767.4853 960.69101,2745.0343 947.39291,2732.2282 C 934.09367,2719.4233 910.75405,2713.0623 877.37412,2713.1453 C 834.57813,2713.2527 802.49862,2720.1802 781.13553,2733.9278 C 764.47165,2744.6688 751.04134,2764.8164 740.84464,2794.3705 M 967.79023,2931.1777 C 931.87356,2944.1066 894.45585,2955.541 855.53698,2965.481 C 802.50552,2979.7364 768.94586,2993.7288 754.85792,3007.4584 C 740.34242,3021.6176 733.10727,3037.6841 733.15253,3055.6579 C 733.20354,3076.1999 740.30705,3093.0866 754.46305,3106.3177 C 769.04533,3119.1201 790.24507,3125.4866 818.06258,3125.4168 C 847.16299,3125.3443 874.10656,3118.2156 898.89313,3104.0309 C 924.10665,3089.8454 941.82402,3072.6827 952.04515,3052.5431 C 962.69216,3031.9746 967.97523,3005.4281 967.89455,2972.9033 L 967.79023,2931.1777 M 1380.2997,2571.9459 L 1623.5921,2571.3378 L 1623.8696,2682.3922 C 1660.1321,2636.9386 1696.8554,2604.536 1734.0398,2585.1843 C 1771.2222,2565.4059 1816.5608,2555.4497 1870.0557,2555.3153 C 1942.3795,2555.1352 1998.9235,2576.6057 2039.688,2619.7269 C 2080.8779,2662.4203 2101.5855,2728.7019 2101.8109,2818.572 L 2102.894,3251.8765 L 1840.3436,3252.5328 L 1839.4065,2877.6441 C 1839.2989,2834.849 1831.3063,2804.6979 1815.4288,2787.191 C 1799.549,2769.2569 1777.2729,2760.3255 1748.6004,2760.3966 C 1716.9312,2760.4762 1691.2839,2772.5232 1671.6583,2796.5374 C 1652.0319,2820.5526 1642.2965,2863.5865 1642.4518,2925.6397 L 1643.2702,3253.0253 L 1382.0036,3253.6784 L 1380.2997,2571.9459 M 2732.8519,2568.5651 L 2977.4281,2567.9537 L 2979.0376,3211.8122 L 2979.7548,3241.9815 C 2979.861,3284.7769 2970.7617,3325.4556 2952.4566,3364.0177 C 2934.5791,3403.0064 2910.4782,3434.5215 2880.1541,3458.5631 C 2850.2565,3482.6031 2811.9979,3500.0312 2765.3782,3510.8469 C 2719.1853,3521.661 2666.1322,3527.143 2606.2189,3527.2931 C 2469.273,3527.635 2375.0716,3507.3286 2323.6145,3466.3736 C 2272.5851,3425.417 2246.9842,3370.4885 2246.8121,3301.5877 C 2246.7906,3293.0287 2247.1898,3281.4729 2248.0094,3266.9203 L 2501.645,3295.1734 C 2508.1229,3318.6948 2518.0064,3334.9325 2531.2959,3343.8864 C 2550.5866,3357.1049 2574.7827,3363.6777 2603.884,3363.6051 C 2641.5436,3363.5108 2669.5495,3353.3839 2687.9017,3333.224 C 2706.681,3313.063 2716.0082,3277.9473 2715.8837,3227.8765 L 2715.6253,3124.5253 C 2690.0234,3154.9744 2664.4012,3177.0782 2638.7586,3190.837 C 2598.584,3212.3353 2555.1733,3223.1427 2508.5266,3223.2593 C 2417.372,3223.4872 2343.6642,3183.8714 2287.4033,3104.4118 C 2247.4622,3048.0213 2227.3757,2973.393 2227.1435,2880.5266 C 2226.8782,2774.3942 2252.3533,2693.4465 2303.569,2637.6834 C 2354.7843,2581.9215 2421.9037,2553.9366 2504.9272,2553.7283 C 2557.9932,2553.5964 2601.6671,2562.4743 2635.9488,2580.3621 C 2670.6576,2598.2502 2703.0426,2627.9124 2733.1037,2669.3485 L 2732.8519,2568.5651 M 2487.818,2899.775 C 2487.9407,2948.9901 2498.517,2985.5541 2519.547,3009.4669 C 2540.5753,3032.9521 2568.2078,3044.6519 2602.4446,3044.5662 C 2634.9688,3044.485 2662.1134,3032.2205 2683.8786,3007.7722 C 2706.0697,2982.8955 2717.1035,2945.6356 2716.9799,2895.9925 C 2716.8553,2846.35 2705.2058,2808.505 2682.0315,2782.457 C 2658.8552,2755.982 2630.577,2742.7861 2597.1969,2742.8691 C 2563.816,2742.9529 2537.0994,2755.2164 2517.0468,2779.6597 C 2497.4205,2803.6749 2487.6776,2843.7132 2487.818,2899.775 M 3091.6407,3060.6756 L 3350.9206,3035.634 C 3361.6961,3066.4202 3376.7296,3088.4224 3396.0211,3101.6406 C 3415.3119,3114.8594 3441.0058,3121.4284 3473.1028,3121.3481 C 3508.1947,3121.2605 3535.351,3113.7034 3554.572,3098.6767 C 3569.5222,3087.5125 3576.9766,3073.5854 3576.9353,3056.8949 C 3576.8879,3038.0651 3567.0085,3023.5392 3547.2974,3013.3173 C 3533.1562,3006.0775 3495.6877,2997.1841 3434.8918,2986.6369 C 3344.1255,2971.0296 3280.9658,2956.637 3245.4126,2943.4588 C 3210.2858,2929.8522 3180.4857,2907.0311 3156.0122,2874.9951 C 3131.9665,2842.9587 3119.8922,2806.3986 3119.7895,2765.3145 C 3119.6772,2720.3797 3132.633,2681.6172 3158.657,2649.0267 C 3184.681,2616.4375 3220.5687,2592.1682 3266.3205,2576.2188 C 3312.0708,2559.8426 3373.4619,2551.5581 3450.4941,2551.3649 C 3531.8052,2551.1623 3591.7343,2557.2178 3630.2819,2569.5316 C 3669.2563,2581.8456 3701.6149,2601.0228 3727.3581,2627.0633 C 3753.5279,2653.1038 3775.2279,2688.3561 3792.458,2732.82 L 3544.733,2757.8328 C 3538.2587,2736.0237 3527.5197,2720.0022 3512.516,2709.7681 C 3491.9394,2696.1255 3467.101,2689.3403 3438.0005,2689.4124 C 3408.4713,2689.4868 3386.8729,2694.8902 3373.2053,2705.6229 C 3359.9642,2715.9275 3353.3624,2728.5687 3353.4002,2743.5466 C 3353.4415,2760.2373 3362.0322,2772.8405 3379.1721,2781.3565 C 3396.3114,2789.8732 3433.5628,2797.4834 3490.9262,2804.1868 C 3577.8251,2813.8131 3642.4805,2827.3462 3684.8926,2844.7858 C 3727.3033,2862.2265 3759.6765,2887.1812 3782.0121,2919.6497 C 3804.7744,2952.118 3816.2043,2987.8238 3816.3025,3026.7674 C 3816.4001,3066.1396 3804.513,3104.4714 3780.6415,3141.7633 C 3757.1962,3179.0543 3719.8247,3208.8906 3668.5262,3231.2727 C 3617.6537,3253.2257 3548.1382,3264.3124 3459.9801,3264.5327 C 3335.4448,3264.844 3246.5999,3247.3059 3193.4447,3211.9182 C 3140.7174,3176.5296 3106.7827,3126.1154 3091.6407,3060.6756 M 4179.0361,2785.7765 L 3929.2585,2760.0814 C 3938.5645,2716.4069 3951.9594,2682.1369 3969.4436,2657.2711 C 3987.3545,2631.9773 4012.9773,2610.0876 4046.312,2591.6014 C 4070.244,2578.2755 4103.1708,2567.9222 4145.0925,2560.5414 C 4187.0136,2553.1621 4232.3677,2549.4112 4281.155,2549.2886 C 4359.4702,2549.0935 4422.3907,2553.4298 4469.9169,2562.2973 C 4517.4407,2570.7384 4557.0719,2588.8275 4588.8109,2616.5648 C 4611.112,2635.7677 4628.7264,2663.113 4641.6547,2698.6006 C 4654.5802,2733.6613 4661.0835,2767.2397 4661.1646,2799.3358 L 4661.9171,3100.4023 C 4661.9965,3132.499 4663.9855,3157.7435 4667.8838,3176.1359 C 4672.2075,3194.0994 4681.2523,3217.1865 4695.0182,3245.3972 L 4449.8,3246.0102 C 4439.9126,3228.4887 4433.4601,3215.2381 4430.4424,3206.2585 C 4427.4228,3196.8511 4424.3908,3182.3081 4421.3464,3162.6296 C 4387.1918,3195.6676 4353.2283,3219.2902 4319.4556,3233.4972 C 4273.2831,3252.4428 4219.5983,3261.9922 4158.4011,3262.145 C 4077.0894,3262.3483 4015.2028,3243.6729 3972.7413,3206.1187 C 3930.7075,3168.5636 3909.6216,3122.1828 3909.4838,3066.9767 C 3909.3542,3015.1942 3924.4402,2972.5748 3954.7418,2939.118 C 3985.0428,2905.6619 4041.043,2880.7004 4122.7418,2864.2335 C 4220.6941,2844.303 4284.2111,2830.4496 4313.2933,2822.6732 C 4342.3734,2814.4698 4373.1598,2803.9079 4405.6528,2790.9874 C 4405.5722,2758.8913 4398.8827,2736.4403 4385.5845,2723.6343 C 4372.2853,2710.8293 4348.9457,2704.4683 4315.5657,2704.5512 C 4272.7696,2704.6587 4240.6902,2711.5861 4219.3271,2725.3338 C 4202.6632,2736.0747 4189.233,2756.2223 4179.0361,2785.7765 M 4405.9818,2922.5837 C 4370.0652,2935.5125 4332.6475,2946.9468 4293.7287,2956.8869 C 4240.6972,2971.1423 4207.1374,2985.1348 4193.0495,2998.8644 C 4178.534,3013.0235 4171.2988,3029.0901 4171.344,3047.0638 C 4171.3951,3067.6059 4178.4987,3084.4925 4192.6547,3097.7237 C 4207.2369,3110.526 4228.4366,3116.8925 4256.2541,3116.8228 C 4285.3547,3116.7501 4312.2982,3109.6215 4337.0847,3095.4369 C 4362.2982,3081.2514 4380.0156,3064.0887 4390.2368,3043.949 C 4400.8838,3023.3807 4406.1669,2996.8342 4406.0861,2964.3092 L 4405.9818,2922.5837 M 4820.4167,2563.347 L 5064.3512,2562.7372 L 5064.5999,2662.237 C 5099.5881,2620.6381 5134.8206,2591.0211 5170.2973,2573.3855 C 5206.2012,2555.7501 5249.4028,2546.8691 5299.902,2546.7421 C 5354.2516,2546.607 5397.2852,2556.1283 5429.0026,2575.3065 C 5460.7187,2594.486 5486.6816,2623.0943 5506.8914,2661.1314 C 5547.8631,2616.5219 5585.2338,2586.2575 5619.0035,2570.338 C 5652.7703,2553.992 5694.4757,2545.7565 5744.1194,2545.6318 C 5817.2985,2545.4495 5874.4851,2567.1324 5915.6792,2610.6804 C 5956.8695,2653.8019 5977.5809,2721.5812 5977.8134,2814.019 L 5978.8835,3242.1881 L 5716.975,3242.8427 L 5716.0042,2854.4735 C 5715.9263,2823.6612 5709.8776,2800.7806 5697.8584,2785.8316 C 5680.2526,2762.3385 5658.3973,2750.6243 5632.293,2750.6889 C 5601.4795,2750.7666 5576.6859,2761.9554 5557.9123,2784.2557 C 5539.1371,2806.5568 5529.8113,2842.3146 5529.9352,2891.529 L 5530.8145,3243.3081 L 5268.906,3243.9628 L 5267.9673,2868.4322 C 5267.892,2838.4757 5266.1292,2818.1521 5262.6794,2807.4613 C 5257.0727,2790.3576 5247.4094,2776.687 5233.6896,2766.4499 C 5219.968,2755.7857 5203.9063,2750.4765 5185.5046,2750.522 C 5155.5474,2750.5974 5130.9683,2761.9996 5111.7675,2784.7289 C 5092.5659,2807.4591 5083.0298,2844.7152 5083.1597,2896.4973 L 5084.0293,3244.4248 L 4822.1208,3245.0794 L 4820.4167,2563.347"
       id="text8299" />
    <path
       style="font-size:62.53575897px;font-style:normal;font-variant:normal;font-weight:normal;font-stretch:normal;text-align:start;line-height:125%;writing-mode:lr-tb;text-anchor:start;fill:#ffffff;fill-opacity:1;stroke:none;stroke-width:1px;stroke-linecap:butt;stroke-linejoin:miter;stroke-opacity:1;font-family:Arial Black"
       d="M 848.20414,2135.5448 L 861.27224,2140.2292 L 860.18644,2163.2478 L 874.18653,2144.858 L 886.85399,2149.3987 L 861.22104,2177.1485 L 850.09449,2173.1603 L 848.20414,2135.5448 M 919.22587,2190.2011 L 895.76711,2177.4145 C 894.95417,2179.4077 894.69948,2181.0837 895.00303,2182.4424 C 895.41303,2184.3811 896.52829,2185.8468 898.34904,2186.8393 C 899.49891,2187.4659 900.74803,2187.7738 902.09657,2187.7631 C 902.92746,2187.7437 903.95768,2187.4724 905.1875,2186.9495 L 916.13576,2194.2967 C 912.70103,2196.4021 909.3724,2197.4465 906.1497,2197.4302 C 902.9373,2197.3945 899.00252,2196.1073 894.34532,2193.5691 C 890.30131,2191.3648 887.42802,2189.0654 885.72524,2186.6705 C 884.03298,2184.2567 883.09403,2181.3955 882.90849,2178.0875 C 882.75245,2174.7707 883.58839,2171.4353 885.41659,2168.0813 C 888.01766,2163.3091 891.64629,2160.2777 896.30242,2158.9872 C 900.9776,2157.7073 906.00802,2158.5348 911.39368,2161.4703 C 915.76335,2163.8522 918.85262,2166.3937 920.6619,2169.095 C 922.47082,2171.7964 923.35228,2174.7627 923.30633,2177.9942 C 923.26018,2181.2257 922.14035,2184.854 919.9466,2188.8788 L 919.22587,2190.2011 M 910.37961,2178.1079 C 911.38208,2175.7209 911.65162,2173.7671 911.18788,2172.2466 C 910.74319,2170.7363 909.71582,2169.5426 908.1059,2168.665 C 906.24696,2167.6517 904.35933,2167.5801 902.44341,2168.4498 C 901.23278,2168.9833 900.03553,2170.1081 898.85147,2171.8244 L 910.37961,2178.1079 M 937.25891,2177.7839 L 947.53726,2184.8527 L 944.30905,2189.5467 C 946.69592,2188.1949 948.67064,2187.4999 950.23333,2187.4618 C 951.82625,2187.4182 953.39616,2187.9283 954.94276,2188.9921 C 956.56124,2190.1051 957.98659,2191.8271 959.21837,2194.1576 L 950.43868,2199.6435 C 949.51486,2198.2134 948.67534,2197.2385 947.91986,2196.7191 C 946.48099,2195.7296 944.95787,2195.5563 943.35025,2196.199 C 941.06658,2197.0924 938.34797,2199.832 935.19399,2204.4182 L 928.58905,2214.0222 L 917.55533,2206.4338 L 937.25891,2177.7839 M 982.42079,2211.1558 L 992.19201,2218.9106 L 971.77776,2244.6343 L 970.84661,2245.8599 C 969.4898,2247.5697 967.83318,2248.9022 965.8768,2249.8576 C 963.92397,2250.8436 961.96053,2251.3337 959.98683,2251.3276 C 958.0301,2251.3353 955.95033,2250.8134 953.7474,2249.762 C 951.56159,2248.7237 949.27201,2247.2551 946.87825,2245.3553 C 941.40709,2241.0131 938.29671,2237.2075 937.54776,2233.9378 C 936.81556,2230.6819 937.5419,2227.6774 939.72658,2224.9245 C 939.99785,2224.5827 940.38133,2224.1346 940.87693,2223.5803 L 950.09136,2232.7741 C 949.60164,2233.9179 949.47914,2234.8798 949.72434,2235.6595 C 950.07292,2236.8 950.82876,2237.8316 951.99149,2238.7544 C 953.49606,2239.9484 954.93476,2240.4352 956.30783,2240.2152 C 957.69776,2240.0086 959.18649,2238.9052 960.77406,2236.9048 L 964.05094,2232.7756 C 962.06169,2233.1754 960.33696,2233.2419 958.877,2232.9749 C 956.59141,2232.5543 954.5166,2231.6045 952.65289,2230.1255 C 949.0112,2227.2353 947.33232,2223.3114 947.61632,2218.3537 C 947.81748,2214.8349 949.3899,2211.2202 952.33434,2207.5101 C 955.69954,2203.2699 959.28989,2200.8526 963.10566,2200.258 C 966.92123,2199.6637 970.48763,2200.6826 973.80453,2203.315 C 975.92457,2204.9975 977.3837,2206.7407 978.18163,2208.5443 C 978.99669,2210.3614 979.34449,2212.5741 979.22515,2215.1824 L 982.42079,2211.1558 M 962.11601,2216.5686 C 960.55557,2218.5348 959.81447,2220.3292 959.89244,2221.9514 C 959.98381,2223.5569 960.71361,2224.9021 962.08134,2225.9876 C 963.38076,2227.0189 964.85308,2227.3931 966.49849,2227.1107 C 968.17473,2226.8245 969.79972,2225.6898 971.37362,2223.7066 C 972.94772,2221.7233 973.68683,2219.8437 973.59134,2218.068 C 973.50927,2216.2752 972.80142,2214.8497 971.46789,2213.7913 C 970.13407,2212.7329 968.67892,2212.3722 967.10185,2212.7089 C 965.5555,2213.0422 963.89347,2214.3288 962.11601,2216.5686 M 1015.0886,2266.1086 L 994.87444,2248.6388 C 993.65751,2250.4141 993.05307,2251.998 993.06157,2253.3901 C 993.0512,2255.3717 993.83042,2257.0405 995.39929,2258.3963 C 996.39018,2259.2529 997.54561,2259.8186 998.86566,2260.0938 C 999.68183,2260.2511 1000.7461,2260.2046 1002.0588,2259.9544 L 1011.2003,2269.456 C 1007.3971,2270.7851 1003.9226,2271.1001 1000.7769,2270.4007 C 997.64508,2269.6848 994.07266,2267.5924 990.05962,2264.1242 C 986.57487,2261.1126 984.25457,2258.2561 983.09846,2255.5547 C 981.95651,2252.8369 981.64552,2249.842 982.16549,2246.5697 C 982.71648,2243.2952 984.24049,2240.213 986.73834,2237.3228 C 990.29235,2233.2108 994.48112,2231.0177 999.30493,2230.7438 C 1004.1454,2230.4842 1008.8858,2232.3598 1013.5265,2236.3703 C 1017.2917,2239.6245 1019.772,2242.7634 1020.9672,2245.787 C 1022.1622,2248.8102 1022.3948,2251.8962 1021.6645,2255.0446 C 1020.9342,2258.1929 1019.0706,2261.501 1016.0732,2264.9691 L 1015.0886,2266.1086 M 1009.0076,2252.4145 C 1010.4936,2250.2946 1011.1711,2248.4424 1011.0405,2246.8579 C 1010.9261,2245.2878 1010.1751,2243.9032 1008.7881,2242.7044 C 1007.1861,2241.3199 1005.3567,2240.8496 1003.2998,2241.2935 C 1002.0037,2241.5578 1000.5951,2242.4034 999.07409,2243.8295 L 1009.0076,2252.4145 M 1041.7268,2244.6121 L 1051.8254,2253.3068 L 1040.2892,2266.7053 C 1042.8871,2266.4648 1045.1276,2266.6226 1047.0109,2267.1782 C 1048.8943,2267.734 1050.7622,2268.8095 1052.6149,2270.4046 C 1055.3608,2272.7689 1056.8001,2275.4627 1056.9331,2278.4864 C 1057.0827,2281.5242 1055.6692,2284.7717 1052.6926,2288.2288 L 1038.2727,2304.9768 L 1028.1244,2296.2394 L 1040.6005,2281.7493 C 1042.0246,2280.0954 1042.7228,2278.6657 1042.6947,2277.4604 C 1042.6807,2276.2387 1042.1195,2275.1507 1041.0115,2274.1966 C 1039.7873,2273.1426 1038.3961,2272.7514 1036.8375,2273.0224 C 1035.2793,2273.2937 1033.4676,2274.6283 1031.4023,2277.0269 L 1020.5072,2289.6812 L 1010.4089,2280.9865 L 1041.7268,2244.6121 M 1087.0825,2282.809 L 1078.7832,2293.1089 L 1084.4941,2297.7105 L 1078.3928,2305.2828 L 1072.6819,2300.6809 L 1064.9371,2310.2926 C 1064.0059,2311.4484 1063.5001,2312.3023 1063.4199,2312.8543 C 1063.2942,2313.706 1063.6562,2314.4742 1064.5061,2315.1588 C 1065.2709,2315.7755 1066.5197,2316.4171 1068.2525,2317.0847 L 1063.2448,2324.865 C 1060.2263,2323.3579 1057.604,2321.7074 1055.3773,2319.9133 C 1052.7938,2317.8314 1051.1572,2315.9663 1050.4676,2314.3174 C 1049.7779,2312.6683 1049.6767,2310.9329 1050.1638,2309.1108 C 1050.6814,2307.2855 1052.1592,2304.86 1054.5968,2301.8346 L 1062.28,2292.2996 L 1058.4558,2289.218 L 1064.557,2281.646 L 1068.3813,2284.7274 L 1072.3871,2279.7559 L 1087.0825,2282.809 M 1143.7799,2328.2869 L 1113.6371,2365.6408 L 1103.929,2357.807 L 1107.1571,2353.8067 C 1104.4274,2354.4088 1102.2621,2354.5547 1100.6613,2354.2445 C 1098.5359,2353.8196 1096.5559,2352.8671 1094.7212,2351.3866 C 1091.0351,2348.412 1089.3462,2344.7354 1089.6546,2340.3561 C 1089.9797,2335.9906 1091.7598,2331.8035 1094.9949,2327.7945 C 1098.6135,2323.31 1102.4529,2320.7422 1106.5121,2320.0913 C 1110.5885,2319.454 1114.283,2320.4717 1117.5954,2323.1447 C 1119.2091,2324.447 1120.4506,2325.8977 1121.32,2327.4966 C 1122.2063,2329.1095 1122.7205,2330.8706 1122.8624,2332.7803 L 1133.3076,2319.8362 L 1143.7799,2328.2869 M 1114.2209,2343.6455 C 1115.9343,2341.5222 1116.7588,2339.5792 1116.6948,2337.8165 C 1116.6444,2336.0367 1115.931,2334.5917 1114.5553,2333.4815 C 1113.3493,2332.5081 1111.9341,2332.1938 1110.3098,2332.5379 C 1108.686,2332.8822 1106.9211,2334.2349 1105.0157,2336.5962 C 1103.2338,2338.8043 1102.3408,2340.7624 1102.337,2342.4703 C 1102.3639,2344.1749 1102.9973,2345.5275 1104.2374,2346.5282 C 1105.5625,2347.5973 1107.0846,2347.9702 1108.8041,2347.6469 C 1110.5236,2347.3235 1112.3292,2345.9897 1114.2209,2343.6455 M 1150.4674,2333.6954 L 1160.8518,2342.0464 L 1155.1681,2349.114 L 1144.7837,2340.7629 L 1150.4674,2333.6954 M 1142.1779,2344.0033 L 1152.5623,2352.3544 L 1130.7715,2379.4508 L 1120.3869,2371.0997 L 1142.1779,2344.0033 M 1176.4456,2397.7531 L 1155.4869,2381.184 C 1154.3486,2383.011 1153.8141,2384.6195 1153.8836,2386.0101 C 1153.9597,2387.9902 1154.8113,2389.6233 1156.4379,2390.9093 C 1157.4653,2391.7216 1158.6444,2392.2363 1159.9752,2392.4536 C 1160.7974,2392.5751 1161.8586,2392.4819 1163.1593,2392.1744 L 1172.7075,2401.2672 C 1168.9663,2402.7613 1165.5088,2403.228 1162.3354,2402.6669 C 1159.1753,2402.0886 1155.5148,2400.1545 1151.3539,2396.8653 C 1147.7408,2394.0091 1145.2978,2391.2567 1144.0244,2388.6086 C 1142.7648,2385.9433 1142.3233,2382.9647 1142.6996,2379.6727 C 1143.1067,2376.3776 1144.4945,2373.2314 1146.8636,2370.2349 C 1150.2343,2365.9712 1154.3232,2363.5969 1159.1302,2363.1124 C 1163.9548,2362.6415 1168.7728,2364.3076 1173.5845,2368.1115 C 1177.4884,2371.1979 1180.1036,2374.2253 1181.4298,2377.1936 C 1182.756,2380.162 1183.1231,2383.2348 1182.5313,2386.4119 C 1181.9396,2389.5892 1180.2222,2392.9756 1177.3796,2396.5715 L 1176.4456,2397.7531 M 1169.7717,2384.3381 C 1171.1635,2382.1553 1171.7595,2380.275 1171.5594,2378.6979 C 1171.3765,2377.1342 1170.5658,2375.7839 1169.1275,2374.6468 C 1167.4665,2373.3337 1165.6182,2372.9437 1163.5828,2373.4771 C 1162.2995,2373.7983 1160.9292,2374.7044 1159.4721,2376.1957 L 1169.7717,2384.3381 M 1218.4894,2387.3886 L 1252.32,2412.2354 L 1246.6415,2419.9674 L 1208.3206,2426.6777 L 1230.8041,2443.1904 L 1224.699,2451.503 L 1187.9919,2424.5438 L 1193.8838,2416.5215 L 1231.7925,2409.8743 L 1212.4232,2395.6485 L 1218.4894,2387.3886 M 1269.3309,2464.8314 L 1247.2038,2449.8584 C 1246.2036,2451.7646 1245.7898,2453.4085 1245.962,2454.79 C 1246.1844,2456.7591 1247.1544,2458.3247 1248.8718,2459.4867 C 1249.9564,2460.2209 1251.1704,2460.6469 1252.5135,2460.7653 C 1253.3426,2460.8254 1254.394,2460.654 1255.6684,2460.2511 L 1265.8631,2468.6123 C 1262.2427,2470.3793 1258.8292,2471.1007 1255.6229,2470.7758 C 1252.4288,2470.433 1248.6352,2468.7751 1244.2424,2465.8026 C 1240.4279,2463.2214 1237.7876,2460.6576 1236.3221,2458.1109 C 1234.8686,2455.546 1234.2079,2452.6082 1234.3397,2449.2976 C 1234.5017,2445.9812 1235.6531,2442.7411 1237.794,2439.5773 C 1240.8398,2435.0762 1244.742,2432.4059 1249.5002,2431.5669 C 1254.2763,2430.7402 1259.2045,2432.0454 1264.2845,2435.4828 C 1268.4062,2438.272 1271.2381,2441.0975 1272.7804,2443.9596 C 1274.3224,2446.8216 1274.9161,2449.8587 1274.5611,2453.0709 C 1274.2058,2456.2834 1272.7438,2459.7876 1270.175,2463.5839 L 1269.3309,2464.8314 M 1261.6826,2451.947 C 1262.9092,2449.6671 1263.3643,2447.748 1263.0482,2446.19 C 1262.75,2444.6442 1261.8418,2443.3574 1260.3233,2442.3299 C 1258.5696,2441.1433 1256.6977,2440.8912 1254.7073,2441.5736 C 1253.4512,2441.9889 1252.1517,2442.9941 1250.8089,2444.589 L 1261.6826,2451.947 M 1292.6453,2439.2922 L 1303.9364,2446.3694 L 1299.1198,2454.054 L 1287.8288,2446.9769 L 1292.6453,2439.2922 M 1285.6205,2450.5004 L 1296.9115,2457.5775 L 1278.4449,2487.04 L 1267.1538,2479.9629 L 1285.6205,2450.5004 M 1323.8142,2458.1844 L 1317.15,2469.6106 L 1323.4853,2473.3055 L 1318.5862,2481.7056 L 1312.2507,2478.0106 L 1306.0322,2488.673 C 1305.2843,2489.9552 1304.912,2490.8753 1304.9152,2491.4331 C 1304.9185,2492.2939 1305.3915,2492.9995 1306.3342,2493.5492 C 1307.1826,2494.0443 1308.5135,2494.4917 1310.3266,2494.8924 L 1306.5399,2503.3347 C 1303.3299,2502.2964 1300.4899,2501.0569 1298.0199,2499.6162 C 1295.1538,2497.9448 1293.2566,2496.3453 1292.3281,2494.8183 C 1291.3992,2493.2912 1291.0392,2491.5904 1291.2481,2489.7159 C 1291.4868,2487.8337 1292.5848,2485.2144 1294.5422,2481.8581 L 1300.7114,2471.2804 L 1296.4693,2468.8063 L 1301.3682,2460.4062 L 1305.6107,2462.8806 L 1308.8274,2457.3653 L 1323.8142,2458.1844 M 1317.8695,2494.6008 L 1330.419,2501.3358 L 1324.1021,2513.1064 L 1311.5526,2506.3714 L 1317.8695,2494.6008"
       id="text8305" />
    <path
       transform="matrix(-0.880791,-0.473505,0.473505,-0.880791,0,0)"
       style="font-size:7.74647617px;font-style:normal;font-variant:normal;font-weight:normal;font-stretch:normal;text-align:start;line-height:125%;writing-mode:lr-tb;text-anchor:start;fill:#000000;fill-opacity:1;stroke:none;stroke-width:1px;stroke-linecap:butt;stroke-linejoin:miter;stroke-opacity:1;font-family:Arial Black"
       d="M -2355.1343,-1585.8505 L -2353.4171,-1585.8505 L -2353.4171,-1580.3054 L -2355.1343,-1580.3054 L -2355.1343,-1585.8505 M -2349.298,-1581.8751 L -2347.8342,-1581.7087 C -2347.9149,-1581.4036 -2348.0473,-1581.1388 -2348.2313,-1580.9144 C -2348.4154,-1580.6925 -2348.6512,-1580.5198 -2348.9387,-1580.3962 C -2349.2236,-1580.2726 -2349.5867,-1580.2109 -2350.028,-1580.2109 C -2350.4542,-1580.2109 -2350.8097,-1580.2499 -2351.0947,-1580.3281 C -2351.3771,-1580.4088 -2351.6204,-1580.5374 -2351.8247,-1580.7139 C -2352.0289,-1580.893 -2352.189,-1581.1023 -2352.305,-1581.3418 C -2352.421,-1581.5814 -2352.479,-1581.8991 -2352.479,-1582.295 C -2352.479,-1582.7085 -2352.4084,-1583.0527 -2352.2672,-1583.3276 C -2352.1638,-1583.5293 -2352.0226,-1583.7096 -2351.8436,-1583.8685 C -2351.6645,-1584.0299 -2351.4805,-1584.1497 -2351.2913,-1584.2278 C -2350.9913,-1584.3514 -2350.6067,-1584.4132 -2350.1377,-1584.4132 C -2349.4821,-1584.4132 -2348.9828,-1584.2959 -2348.6398,-1584.0614 C -2348.2944,-1583.8269 -2348.0523,-1583.4839 -2347.9136,-1583.0326 L -2349.3623,-1582.8397 C -2349.4077,-1583.0111 -2349.4909,-1583.1397 -2349.6119,-1583.2255 C -2349.7305,-1583.3137 -2349.8906,-1583.3579 -2350.0923,-1583.3579 C -2350.347,-1583.3579 -2350.5538,-1583.2658 -2350.7126,-1583.0817 C -2350.869,-1582.9002 -2350.9471,-1582.6241 -2350.9471,-1582.2534 C -2350.9471,-1581.923 -2350.869,-1581.6721 -2350.7126,-1581.5007 C -2350.5563,-1581.3292 -2350.3571,-1581.2435 -2350.115,-1581.2435 C -2349.9133,-1581.2435 -2349.7443,-1581.2952 -2349.6081,-1581.3986 C -2349.4695,-1581.5019 -2349.3661,-1581.6608 -2349.298,-1581.8751 M -2347.1193,-1585.8505 L -2345.5798,-1585.8505 L -2345.5798,-1583.808 C -2345.3705,-1584.0248 -2345.1625,-1584.1799 -2344.9557,-1584.2732 C -2344.749,-1584.3665 -2344.5044,-1584.4132 -2344.2219,-1584.4132 C -2343.8033,-1584.4132 -2343.4743,-1584.2858 -2343.2347,-1584.0311 C -2342.9926,-1583.7765 -2342.8716,-1583.3856 -2342.8716,-1582.8586 L -2342.8716,-1580.3054 L -2344.4186,-1580.3054 L -2344.4186,-1582.5144 C -2344.4186,-1582.7665 -2344.4653,-1582.9443 -2344.5586,-1583.0477 C -2344.6519,-1583.1536 -2344.783,-1583.2066 -2344.9519,-1583.2066 C -2345.1385,-1583.2066 -2345.2898,-1583.136 -2345.4058,-1582.9947 C -2345.5218,-1582.8535 -2345.5798,-1582.6001 -2345.5798,-1582.2345 L -2345.5798,-1580.3054 L -2347.1193,-1580.3054 L -2347.1193,-1585.8505"
       id="text10178" />
    <path
       transform="matrix(0.880791,0.473505,-0.473505,0.880791,0,0)"
       style="font-size:7.74647617px;font-style:normal;font-variant:normal;font-weight:normal;font-stretch:normal;text-align:start;line-height:125%;writing-mode:lr-tb;text-anchor:start;fill:#000000;fill-opacity:1;stroke:none;stroke-width:1px;stroke-linecap:butt;stroke-linejoin:miter;stroke-opacity:1;font-family:Arial Black"
       d="M 2343.1383,1573.9355 L 2344.6929,1573.9355 L 2344.6929,1575.857 C 2344.8467,1575.6956 2345.0207,1575.5746 2345.2149,1575.4939 C 2345.4116,1575.4132 2345.6285,1575.3728 2345.8655,1575.3728 C 2346.3547,1575.3728 2346.7594,1575.5494 2347.0797,1575.9024 C 2347.3999,1576.2529 2347.56,1576.7572 2347.56,1577.4154 C 2347.56,1577.8541 2347.4869,1578.2412 2347.3406,1578.5766 C 2347.1944,1578.9094 2346.9914,1579.1591 2346.7317,1579.3255 C 2346.4745,1579.4894 2346.1883,1579.5714 2345.8731,1579.5714 C 2345.6032,1579.5714 2345.3561,1579.5134 2345.1317,1579.3974 C 2344.9627,1579.3066 2344.7787,1579.1364 2344.5795,1578.8867 L 2344.5795,1579.4806 L 2343.1383,1579.4806 L 2343.1383,1573.9355 M 2344.6816,1577.4608 C 2344.6816,1577.8062 2344.7459,1578.0571 2344.8745,1578.2135 C 2345.0056,1578.3673 2345.1708,1578.4442 2345.37,1578.4442 C 2345.5541,1578.4442 2345.7079,1578.3685 2345.8314,1578.2172 C 2345.9575,1578.0634 2346.0206,1577.8062 2346.0206,1577.4456 C 2346.0206,1577.1279 2345.9588,1576.8947 2345.8352,1576.7459 C 2345.7142,1576.5971 2345.5667,1576.5227 2345.3927,1576.5227 C 2345.1834,1576.5227 2345.0119,1576.6009 2344.8783,1576.7572 C 2344.7471,1576.911 2344.6816,1577.1456 2344.6816,1577.4608 M 2348.3619,1573.9355 L 2349.9014,1573.9355 L 2349.9014,1574.9832 L 2348.3619,1574.9832 L 2348.3619,1573.9355 M 2348.3619,1575.4636 L 2349.9014,1575.4636 L 2349.9014,1579.4806 L 2348.3619,1579.4806 L 2348.3619,1575.4636 M 2350.8924,1575.4636 L 2352.3259,1575.4636 L 2352.3259,1576.118 C 2352.5403,1575.8507 2352.7571,1575.6603 2352.9765,1575.5468 C 2353.1959,1575.4308 2353.4632,1575.3728 2353.7784,1575.3728 C 2354.2045,1575.3728 2354.5374,1575.5002 2354.777,1575.7549 C 2355.019,1576.007 2355.1401,1576.3979 2355.1401,1576.9274 L 2355.1401,1579.4806 L 2353.5931,1579.4806 L 2353.5931,1577.2716 C 2353.593,1577.0195 2353.5464,1576.8417 2353.4531,1576.7383 C 2353.3598,1576.6324 2353.2287,1576.5794 2353.0597,1576.5794 C 2352.8731,1576.5794 2352.7218,1576.6501 2352.6058,1576.7913 C 2352.4898,1576.9325 2352.4318,1577.1859 2352.4318,1577.5515 L 2352.4318,1579.4806 L 2350.8924,1579.4806 L 2350.8924,1575.4636"
       id="text10182" />
    <path
       transform="matrix(0.537294,-0.843395,0.843395,0.537294,0,0)"
       style="font-size:5.30830622px;font-style:normal;font-variant:normal;font-weight:normal;font-stretch:normal;text-align:start;line-height:125%;writing-mode:lr-tb;text-anchor:start;fill:#000000;fill-opacity:1;stroke:none;stroke-width:1px;stroke-linecap:butt;stroke-linejoin:miter;stroke-opacity:1;font-family:Arial Black"
       d="M -1409.4875,2405.7474 L -1408.3885,2405.7474 L -1407.8546,2407.4917 L -1407.3025,2405.7474 L -1406.2372,2405.7474 L -1407.4062,2408.5 L -1408.3419,2408.5 L -1409.4875,2405.7474 M -1402.8728,2407.3855 L -1404.9879,2407.3855 C -1404.9689,2407.5548 -1404.9231,2407.6809 -1404.8505,2407.7639 C -1404.7486,2407.8831 -1404.6155,2407.9427 -1404.4513,2407.9427 C -1404.3477,2407.9427 -1404.2492,2407.9168 -1404.1559,2407.865 C -1404.0988,2407.8321 -1404.0375,2407.7743 -1403.9718,2407.6913 L -1402.9325,2407.7872 C -1403.0914,2408.0637 -1403.2832,2408.2624 -1403.5079,2408.3834 C -1403.7325,2408.5026 -1404.0548,2408.5622 -1404.4747,2408.5622 C -1404.8393,2408.5622 -1405.1261,2408.5112 -1405.3352,2408.4093 C -1405.5443,2408.3056 -1405.7179,2408.1423 -1405.8562,2407.9194 C -1405.9927,2407.6948 -1406.0609,2407.4313 -1406.0609,2407.1289 C -1406.0609,2406.6986 -1405.9236,2406.3504 -1405.6488,2406.0843 C -1405.3723,2405.8182 -1404.9913,2405.6851 -1404.5058,2405.6851 C -1404.1118,2405.6851 -1403.8008,2405.7448 -1403.5727,2405.864 C -1403.3446,2405.9832 -1403.1709,2406.156 -1403.0517,2406.3824 C -1402.9325,2406.6087 -1402.8728,2406.9034 -1402.8728,2407.2662 L -1402.8728,2407.3855 M -1403.9459,2406.88 C -1403.9666,2406.6761 -1404.0219,2406.5301 -1404.1118,2406.442 C -1404.1999,2406.3539 -1404.3166,2406.3098 -1404.4617,2406.3098 C -1404.6293,2406.3098 -1404.7632,2406.3763 -1404.8635,2406.5094 C -1404.9274,2406.5923 -1404.968,2406.7159 -1404.9853,2406.88 L -1403.9459,2406.88 M -1402.3726,2405.7474 L -1401.3851,2405.7474 L -1401.3851,2406.1984 C -1401.29,2406.0031 -1401.1924,2405.8692 -1401.0922,2405.7966 C -1400.9902,2405.7223 -1400.865,2405.6851 -1400.7163,2405.6851 C -1400.5608,2405.6851 -1400.3906,2405.7335 -1400.2057,2405.8303 L -1400.5323,2406.582 C -1400.6567,2406.5301 -1400.7552,2406.5042 -1400.8278,2406.5042 C -1400.966,2406.5042 -1401.0732,2406.5612 -1401.1492,2406.6753 C -1401.2581,2406.836 -1401.3125,2407.1366 -1401.3125,2407.5773 L -1401.3125,2408.5 L -1402.3726,2408.5 L -1402.3726,2405.7474 M -1400.1487,2405.7474 L -1397.5956,2405.7474 L -1397.5956,2406.3642 L -1398.9849,2407.7794 L -1397.5101,2407.7794 L -1397.5101,2408.5 L -1400.2524,2408.5 L -1400.2524,2407.8157 L -1398.9357,2406.4679 L -1400.1487,2406.4679 L -1400.1487,2405.7474 M -1397.3857,2405.7474 L -1396.3645,2405.7474 L -1395.9212,2407.4814 L -1395.3614,2405.7474 L -1394.4101,2405.7474 L -1393.8295,2407.4814 L -1393.3863,2405.7474 L -1392.3729,2405.7474 L -1393.3863,2408.5 L -1394.3246,2408.5 L -1394.8819,2406.8437 L -1395.421,2408.5 L -1396.3645,2408.5 L -1397.3857,2405.7474 M -1389.0111,2407.3855 L -1391.1261,2407.3855 C -1391.1071,2407.5548 -1391.0613,2407.6809 -1390.9888,2407.7639 C -1390.8868,2407.8831 -1390.7538,2407.9427 -1390.5896,2407.9427 C -1390.4859,2407.9427 -1390.3874,2407.9168 -1390.2941,2407.865 C -1390.2371,2407.8321 -1390.1758,2407.7743 -1390.1101,2407.6913 L -1389.0707,2407.7872 C -1389.2297,2408.0637 -1389.4215,2408.2624 -1389.6461,2408.3834 C -1389.8708,2408.5026 -1390.193,2408.5622 -1390.6129,2408.5622 C -1390.9775,2408.5622 -1391.2644,2408.5112 -1391.4735,2408.4093 C -1391.6825,2408.3056 -1391.8562,2408.1423 -1391.9944,2407.9194 C -1392.131,2407.6948 -1392.1992,2407.4313 -1392.1992,2407.1289 C -1392.1992,2406.6986 -1392.0618,2406.3504 -1391.7871,2406.0843 C -1391.5106,2405.8182 -1391.1296,2405.6851 -1390.644,2405.6851 C -1390.2501,2405.6851 -1389.939,2405.7448 -1389.7109,2405.864 C -1389.4829,2405.9832 -1389.3092,2406.156 -1389.19,2406.3824 C -1389.0707,2406.6087 -1389.0111,2406.9034 -1389.0111,2407.2662 L -1389.0111,2407.3855 M -1390.0842,2406.88 C -1390.1049,2406.6761 -1390.1602,2406.5301 -1390.2501,2406.442 C -1390.3382,2406.3539 -1390.4548,2406.3098 -1390.6,2406.3098 C -1390.7676,2406.3098 -1390.9015,2406.3763 -1391.0017,2406.5094 C -1391.0657,2406.5923 -1391.1063,2406.7159 -1391.1236,2406.88 L -1390.0842,2406.88 M -1388.4824,2404.7002 L -1387.4274,2404.7002 L -1387.4274,2405.4182 L -1388.4824,2405.4182 L -1388.4824,2404.7002 M -1388.4824,2405.7474 L -1387.4274,2405.7474 L -1387.4274,2408.5 L -1388.4824,2408.5 L -1388.4824,2405.7474 M -1385.5742,2405.7474 L -1385.0714,2405.7474 L -1385.0714,2406.5198 L -1385.5742,2406.5198 L -1385.5742,2408.5 L -1386.6317,2408.5 L -1386.6317,2406.5198 L -1387.0257,2406.5198 L -1387.0257,2405.7474 L -1386.6317,2405.7474 L -1386.6317,2405.6229 C -1386.6317,2405.5106 -1386.6196,2405.3871 -1386.5954,2405.2523 C -1386.5712,2405.1175 -1386.5263,2405.0078 -1386.4606,2404.9231 C -1386.3933,2404.8367 -1386.2999,2404.7676 -1386.1807,2404.7158 C -1386.0598,2404.6622 -1385.8835,2404.6354 -1385.652,2404.6354 C -1385.4671,2404.6354 -1385.1984,2404.657 -1384.8459,2404.7002 L -1384.9625,2405.3378 C -1385.0886,2405.3171 -1385.1906,2405.3067 -1385.2683,2405.3067 C -1385.3634,2405.3067 -1385.4316,2405.3231 -1385.4731,2405.356 C -1385.5146,2405.3871 -1385.544,2405.4372 -1385.5612,2405.5063 C -1385.5699,2405.5443 -1385.5742,2405.6247 -1385.5742,2405.7474 M -1381.6293,2407.3855 L -1383.7443,2407.3855 C -1383.7253,2407.5548 -1383.6795,2407.6809 -1383.6069,2407.7639 C -1383.505,2407.8831 -1383.3719,2407.9427 -1383.2077,2407.9427 C -1383.1041,2407.9427 -1383.0056,2407.9168 -1382.9123,2407.865 C -1382.8552,2407.8321 -1382.7939,2407.7743 -1382.7282,2407.6913 L -1381.6889,2407.7872 C -1381.8478,2408.0637 -1382.0396,2408.2624 -1382.2643,2408.3834 C -1382.4889,2408.5026 -1382.8112,2408.5622 -1383.2311,2408.5622 C -1383.5957,2408.5622 -1383.8825,2408.5112 -1384.0916,2408.4093 C -1384.3007,2408.3056 -1384.4743,2408.1423 -1384.6126,2407.9194 C -1384.7491,2407.6948 -1384.8173,2407.4313 -1384.8173,2407.1289 C -1384.8173,2406.6986 -1384.68,2406.3504 -1384.4052,2406.0843 C -1384.1288,2405.8182 -1383.7477,2405.6851 -1383.2622,2405.6851 C -1382.8682,2405.6851 -1382.5572,2405.7448 -1382.3291,2405.864 C -1382.101,2405.9832 -1381.9273,2406.156 -1381.8081,2406.3824 C -1381.6889,2406.6087 -1381.6293,2406.9034 -1381.6293,2407.2662 L -1381.6293,2407.3855 M -1382.7023,2406.88 C -1382.7231,2406.6761 -1382.7784,2406.5301 -1382.8682,2406.442 C -1382.9563,2406.3539 -1383.073,2406.3098 -1383.2181,2406.3098 C -1383.3857,2406.3098 -1383.5196,2406.3763 -1383.6199,2406.5094 C -1383.6838,2406.5923 -1383.7244,2406.7159 -1383.7417,2406.88 L -1382.7023,2406.88 M -1381.1031,2404.7002 L -1380.0456,2404.7002 L -1380.0456,2408.5 L -1381.1031,2408.5 L -1381.1031,2404.7002 M -1378.0938,2404.7002 L -1378.0938,2405.7474 L -1377.5132,2405.7474 L -1377.5132,2406.5172 L -1378.0938,2406.5172 L -1378.0938,2407.4943 C -1378.0938,2407.6118 -1378.0826,2407.6896 -1378.0601,2407.7276 C -1378.0256,2407.7864 -1377.9651,2407.8157 -1377.8787,2407.8157 C -1377.801,2407.8157 -1377.6921,2407.7933 -1377.5521,2407.7483 L -1377.4744,2408.4767 C -1377.7353,2408.5337 -1377.9789,2408.5622 -1378.2053,2408.5622 C -1378.4679,2408.5622 -1378.6615,2408.5285 -1378.7859,2408.4611 C -1378.9103,2408.3937 -1379.0027,2408.2918 -1379.0632,2408.1553 C -1379.122,2408.017 -1379.1514,2407.7941 -1379.1514,2407.4865 L -1379.1514,2406.5172 L -1379.5401,2406.5172 L -1379.5401,2405.7474 L -1379.1514,2405.7474 L -1379.1514,2405.2419 L -1378.0938,2404.7002"
       id="text10192" />
    <path
       transform="matrix(0.534764,-0.845001,-0.845001,-0.534764,0,0)"
       style="font-size:5.30829859px;font-style:normal;font-variant:normal;font-weight:normal;font-stretch:normal;text-align:start;line-height:125%;writing-mode:lr-tb;text-anchor:start;opacity:0.20247934;fill:url(#linearGradient12825);fill-opacity:1;stroke:none;stroke-width:1px;stroke-linecap:butt;stroke-linejoin:miter;stroke-opacity:1;font-family:Arial Black"
       d="M -1416.6931,-2407.0612 L -1415.5941,-2407.0612 L -1415.0601,-2405.3169 L -1414.5081,-2407.0612 L -1413.4428,-2407.0612 L -1414.6117,-2404.3086 L -1415.5474,-2404.3086 L -1416.6931,-2407.0612 M -1410.0784,-2405.4231 L -1412.1934,-2405.4231 C -1412.1744,-2405.2538 -1412.1286,-2405.1276 -1412.0561,-2405.0447 C -1411.9541,-2404.9255 -1411.8211,-2404.8659 -1411.6569,-2404.8659 C -1411.5532,-2404.8659 -1411.4547,-2404.8918 -1411.3614,-2404.9436 C -1411.3044,-2404.9765 -1411.2431,-2405.0343 -1411.1774,-2405.1173 L -1410.138,-2405.0214 C -1410.297,-2404.7449 -1410.4888,-2404.5462 -1410.7134,-2404.4252 C -1410.9381,-2404.306 -1411.2603,-2404.2464 -1411.6802,-2404.2464 C -1412.0448,-2404.2464 -1412.3317,-2404.2974 -1412.5408,-2404.3993 C -1412.7499,-2404.503 -1412.9235,-2404.6663 -1413.0617,-2404.8892 C -1413.1983,-2405.1138 -1413.2665,-2405.3773 -1413.2665,-2405.6797 C -1413.2665,-2406.11 -1413.1291,-2406.4582 -1412.8544,-2406.7243 C -1412.5779,-2406.9904 -1412.1969,-2407.1234 -1411.7113,-2407.1234 C -1411.3174,-2407.1234 -1411.0063,-2407.0638 -1410.7782,-2406.9446 C -1410.5502,-2406.8254 -1410.3765,-2406.6526 -1410.2573,-2406.4262 C -1410.138,-2406.1998 -1410.0784,-2405.9052 -1410.0784,-2405.5424 L -1410.0784,-2405.4231 M -1411.1515,-2405.9286 C -1411.1722,-2406.1325 -1411.2275,-2406.2785 -1411.3174,-2406.3666 C -1411.4055,-2406.4547 -1411.5221,-2406.4988 -1411.6673,-2406.4988 C -1411.8349,-2406.4988 -1411.9688,-2406.4323 -1412.069,-2406.2992 C -1412.133,-2406.2163 -1412.1736,-2406.0927 -1412.1909,-2405.9286 L -1411.1515,-2405.9286 M -1409.5782,-2407.0612 L -1408.5906,-2407.0612 L -1408.5906,-2406.6102 C -1408.4956,-2406.8055 -1408.398,-2406.9394 -1408.2978,-2407.012 C -1408.1958,-2407.0863 -1408.0705,-2407.1234 -1407.9219,-2407.1234 C -1407.7664,-2407.1234 -1407.5962,-2407.0751 -1407.4113,-2406.9783 L -1407.7379,-2406.2266 C -1407.8623,-2406.2785 -1407.9608,-2406.3044 -1408.0334,-2406.3044 C -1408.1716,-2406.3044 -1408.2788,-2406.2474 -1408.3548,-2406.1333 C -1408.4636,-2405.9726 -1408.5181,-2405.672 -1408.5181,-2405.2313 L -1408.5181,-2404.3086 L -1409.5782,-2404.3086 L -1409.5782,-2407.0612 M -1407.3543,-2407.0612 L -1404.8012,-2407.0612 L -1404.8012,-2406.4444 L -1406.1905,-2405.0292 L -1404.7157,-2405.0292 L -1404.7157,-2404.3086 L -1407.458,-2404.3086 L -1407.458,-2404.9929 L -1406.1413,-2406.3407 L -1407.3543,-2406.3407 L -1407.3543,-2407.0612 M -1404.5913,-2407.0612 L -1403.5701,-2407.0612 L -1403.1268,-2405.3272 L -1402.567,-2407.0612 L -1401.6157,-2407.0612 L -1401.0351,-2405.3272 L -1400.5919,-2407.0612 L -1399.5785,-2407.0612 L -1400.5919,-2404.3086 L -1401.5302,-2404.3086 L -1402.0875,-2405.9648 L -1402.6266,-2404.3086 L -1403.5701,-2404.3086 L -1404.5913,-2407.0612 M -1396.2167,-2405.4231 L -1398.3317,-2405.4231 C -1398.3127,-2405.2538 -1398.2669,-2405.1276 -1398.1944,-2405.0447 C -1398.0924,-2404.9255 -1397.9594,-2404.8659 -1397.7952,-2404.8659 C -1397.6915,-2404.8659 -1397.593,-2404.8918 -1397.4997,-2404.9436 C -1397.4427,-2404.9765 -1397.3814,-2405.0343 -1397.3157,-2405.1173 L -1396.2763,-2405.0214 C -1396.4353,-2404.7449 -1396.6271,-2404.5462 -1396.8517,-2404.4252 C -1397.0764,-2404.306 -1397.3986,-2404.2464 -1397.8185,-2404.2464 C -1398.1831,-2404.2464 -1398.47,-2404.2974 -1398.6791,-2404.3993 C -1398.8881,-2404.503 -1399.0618,-2404.6663 -1399.2,-2404.8892 C -1399.3365,-2405.1138 -1399.4048,-2405.3773 -1399.4048,-2405.6797 C -1399.4048,-2406.11 -1399.2674,-2406.4582 -1398.9927,-2406.7243 C -1398.7162,-2406.9904 -1398.3352,-2407.1234 -1397.8496,-2407.1234 C -1397.4557,-2407.1234 -1397.1446,-2407.0638 -1396.9165,-2406.9446 C -1396.6884,-2406.8254 -1396.5148,-2406.6526 -1396.3956,-2406.4262 C -1396.2763,-2406.1998 -1396.2167,-2405.9052 -1396.2167,-2405.5424 L -1396.2167,-2405.4231 M -1397.2898,-2405.9286 C -1397.3105,-2406.1325 -1397.3658,-2406.2785 -1397.4557,-2406.3666 C -1397.5438,-2406.4547 -1397.6604,-2406.4988 -1397.8056,-2406.4988 C -1397.9732,-2406.4988 -1398.1071,-2406.4323 -1398.2073,-2406.2992 C -1398.2713,-2406.2163 -1398.3119,-2406.0927 -1398.3291,-2405.9286 L -1397.2898,-2405.9286 M -1395.688,-2408.1084 L -1394.633,-2408.1084 L -1394.633,-2407.3904 L -1395.688,-2407.3904 L -1395.688,-2408.1084 M -1395.688,-2407.0612 L -1394.633,-2407.0612 L -1394.633,-2404.3086 L -1395.688,-2404.3086 L -1395.688,-2407.0612 M -1392.7798,-2407.0612 L -1392.277,-2407.0612 L -1392.277,-2406.2888 L -1392.7798,-2406.2888 L -1392.7798,-2404.3086 L -1393.8373,-2404.3086 L -1393.8373,-2406.2888 L -1394.2313,-2406.2888 L -1394.2313,-2407.0612 L -1393.8373,-2407.0612 L -1393.8373,-2407.1857 C -1393.8373,-2407.298 -1393.8252,-2407.4215 -1393.801,-2407.5563 C -1393.7768,-2407.6911 -1393.7319,-2407.8008 -1393.6662,-2407.8855 C -1393.5989,-2407.9719 -1393.5055,-2408.041 -1393.3863,-2408.0928 C -1393.2654,-2408.1464 -1393.0891,-2408.1732 -1392.8576,-2408.1732 C -1392.6727,-2408.1732 -1392.404,-2408.1516 -1392.0515,-2408.1084 L -1392.1681,-2407.4708 C -1392.2942,-2407.4915 -1392.3962,-2407.5019 -1392.4739,-2407.5019 C -1392.569,-2407.5019 -1392.6372,-2407.4854 -1392.6787,-2407.4526 C -1392.7202,-2407.4215 -1392.7496,-2407.3714 -1392.7668,-2407.3023 C -1392.7755,-2407.2643 -1392.7798,-2407.1839 -1392.7798,-2407.0612 M -1388.8349,-2405.4231 L -1390.9499,-2405.4231 C -1390.9309,-2405.2538 -1390.8851,-2405.1276 -1390.8125,-2405.0447 C -1390.7106,-2404.9255 -1390.5775,-2404.8659 -1390.4134,-2404.8659 C -1390.3097,-2404.8659 -1390.2112,-2404.8918 -1390.1179,-2404.9436 C -1390.0608,-2404.9765 -1389.9995,-2405.0343 -1389.9338,-2405.1173 L -1388.8945,-2405.0214 C -1389.0534,-2404.7449 -1389.2453,-2404.5462 -1389.4699,-2404.4252 C -1389.6945,-2404.306 -1390.0168,-2404.2464 -1390.4367,-2404.2464 C -1390.8013,-2404.2464 -1391.0881,-2404.2974 -1391.2972,-2404.3993 C -1391.5063,-2404.503 -1391.6799,-2404.6663 -1391.8182,-2404.8892 C -1391.9547,-2405.1138 -1392.0229,-2405.3773 -1392.0229,-2405.6797 C -1392.0229,-2406.11 -1391.8856,-2406.4582 -1391.6108,-2406.7243 C -1391.3344,-2406.9904 -1390.9533,-2407.1234 -1390.4678,-2407.1234 C -1390.0738,-2407.1234 -1389.7628,-2407.0638 -1389.5347,-2406.9446 C -1389.3066,-2406.8254 -1389.1329,-2406.6526 -1389.0137,-2406.4262 C -1388.8945,-2406.1998 -1388.8349,-2405.9052 -1388.8349,-2405.5424 L -1388.8349,-2405.4231 M -1389.9079,-2405.9286 C -1389.9287,-2406.1325 -1389.984,-2406.2785 -1390.0738,-2406.3666 C -1390.1619,-2406.4547 -1390.2786,-2406.4988 -1390.4237,-2406.4988 C -1390.5913,-2406.4988 -1390.7253,-2406.4323 -1390.8255,-2406.2992 C -1390.8894,-2406.2163 -1390.93,-2406.0927 -1390.9473,-2405.9286 L -1389.9079,-2405.9286 M -1388.3087,-2408.1084 L -1387.2512,-2408.1084 L -1387.2512,-2404.3086 L -1388.3087,-2404.3086 L -1388.3087,-2408.1084 M -1385.2994,-2408.1084 L -1385.2994,-2407.0612 L -1384.7189,-2407.0612 L -1384.7189,-2406.2914 L -1385.2994,-2406.2914 L -1385.2994,-2405.3143 C -1385.2995,-2405.1968 -1385.2882,-2405.119 -1385.2658,-2405.081 C -1385.2312,-2405.0222 -1385.1707,-2404.9929 -1385.0843,-2404.9929 C -1385.0066,-2404.9929 -1384.8977,-2405.0153 -1384.7577,-2405.0603 L -1384.68,-2404.3319 C -1384.9409,-2404.2749 -1385.1845,-2404.2464 -1385.4109,-2404.2464 C -1385.6736,-2404.2464 -1385.8671,-2404.2801 -1385.9915,-2404.3475 C -1386.1159,-2404.4149 -1386.2084,-2404.5168 -1386.2688,-2404.6533 C -1386.3276,-2404.7916 -1386.357,-2405.0145 -1386.357,-2405.322 L -1386.357,-2406.2914 L -1386.7458,-2406.2914 L -1386.7458,-2407.0612 L -1386.357,-2407.0612 L -1386.357,-2407.5667 L -1385.2994,-2408.1084"
       id="text11942" />
    <path
       transform="matrix(0.822707,0.568466,-0.568466,0.822707,0,0)"
       style="font-size:7.01159763px;font-style:normal;font-variant:normal;font-weight:normal;font-stretch:normal;text-align:start;line-height:125%;writing-mode:lr-tb;text-anchor:start;fill:#000000;fill-opacity:1;stroke:none;stroke-width:1px;stroke-linecap:butt;stroke-linejoin:miter;stroke-opacity:1;font-family:Arial Black"
       d="M 2422.4648,1305.7482 L 2421.1638,1305.7482 L 2421.1638,1305.1593 C 2420.9698,1305.4012 2420.7735,1305.5736 2420.575,1305.6763 C 2420.3787,1305.779 2420.1367,1305.8303 2419.8491,1305.8303 C 2419.4657,1305.8303 2419.1644,1305.7162 2418.9453,1305.488 C 2418.7285,1305.2574 2418.6201,1304.9037 2418.6201,1304.4266 L 2418.6201,1302.1123 L 2420.0203,1302.1123 L 2420.0203,1304.1117 C 2420.0203,1304.3399 2420.0625,1304.502 2420.147,1304.5978 C 2420.2314,1304.6937 2420.3501,1304.7416 2420.5031,1304.7416 C 2420.6697,1304.7416 2420.8055,1304.6777 2420.9105,1304.5499 C 2421.0177,1304.4221 2421.0714,1304.1927 2421.0714,1303.8617 L 2421.0714,1302.1123 L 2422.4648,1302.1123 L 2422.4648,1305.7482 M 2423.3173,1302.1123 L 2424.6148,1302.1123 L 2424.6148,1302.7046 C 2424.8088,1302.4626 2425.0051,1302.2903 2425.2037,1302.1876 C 2425.4023,1302.0826 2425.6442,1302.0301 2425.9295,1302.0301 C 2426.3152,1302.0301 2426.6165,1302.1454 2426.8334,1302.3759 C 2427.0525,1302.6041 2427.162,1302.9579 2427.162,1303.4372 L 2427.162,1305.7482 L 2425.7618,1305.7482 L 2425.7618,1303.7488 C 2425.7618,1303.5205 2425.7195,1303.3596 2425.6351,1303.266 C 2425.5506,1303.1702 2425.4319,1303.1222 2425.279,1303.1222 C 2425.1101,1303.1222 2424.9732,1303.1862 2424.8682,1303.314 C 2424.7632,1303.4418 2424.7107,1303.6712 2424.7107,1304.0021 L 2424.7107,1305.7482 L 2423.3173,1305.7482 L 2423.3173,1302.1123 M 2431.8284,1300.7291 L 2431.8284,1305.7482 L 2430.524,1305.7482 L 2430.524,1305.2107 C 2430.3414,1305.4389 2430.1748,1305.593 2430.0242,1305.6728 C 2429.8233,1305.7778 2429.5996,1305.8303 2429.3531,1305.8303 C 2428.8579,1305.8303 2428.479,1305.642 2428.2165,1305.2654 C 2427.9563,1304.8888 2427.8262,1304.4312 2427.8262,1303.8926 C 2427.8262,1303.29 2427.97,1302.829 2428.2576,1302.5094 C 2428.5474,1302.1899 2428.9149,1302.0301 2429.36,1302.0301 C 2429.5768,1302.0301 2429.7731,1302.0666 2429.9489,1302.1397 C 2430.1269,1302.2127 2430.2844,1302.3223 2430.4213,1302.4683 L 2430.4213,1300.7291 L 2431.8284,1300.7291 M 2430.4316,1303.9199 C 2430.4316,1303.6346 2430.3711,1303.4224 2430.2501,1303.2832 C 2430.1292,1303.1416 2429.9762,1303.0709 2429.7914,1303.0709 C 2429.6293,1303.0709 2429.4935,1303.1382 2429.384,1303.2729 C 2429.2744,1303.4075 2429.2196,1303.6335 2429.2196,1303.9508 C 2429.2196,1304.2475 2429.2755,1304.4654 2429.3874,1304.6047 C 2429.5015,1304.7416 2429.6419,1304.8101 2429.8085,1304.8101 C 2429.9865,1304.8101 2430.1349,1304.7405 2430.2536,1304.6013 C 2430.3722,1304.462 2430.4316,1304.2349 2430.4316,1303.9199"
       id="text13700" />
    <path
       transform="matrix(0.558905,-0.829232,0.829232,0.558905,0,0)"
       style="font-size:1.02294624px;font-style:normal;font-variant:normal;font-weight:normal;font-stretch:normal;text-align:start;line-height:125%;writing-mode:lr-tb;text-anchor:start;fill:#ff0000;fill-opacity:1;stroke:none;stroke-width:1px;stroke-linecap:butt;stroke-linejoin:miter;stroke-opacity:1;font-family:Deutsch Gothic"
       d="M -1333.1538,2406.6133 C -1333.1538,2406.6757 -1333.1679,2406.7407 -1333.1962,2406.8081 C -1333.2303,2406.8908 -1333.2778,2406.9514 -1333.3388,2406.9899 L -1333.3431,2406.9822 C -1333.3264,2406.9576 -1333.3119,2406.9228 -1333.2996,2406.8778 C -1333.2865,2406.8328 -1333.28,2406.7787 -1333.28,2406.7156 C -1333.28,2406.6692 -1333.2858,2406.6209 -1333.2974,2406.5709 C -1333.3134,2406.5012 -1333.3373,2406.4541 -1333.3692,2406.4294 L -1333.3834,2406.4294 L -1333.3834,2406.9072 L -1333.5368,2406.9072 L -1333.5368,2406.1715 L -1333.4106,2406.1225 L -1333.3845,2406.1225 L -1333.3845,2406.3848 L -1333.366,2406.3848 C -1333.3449,2406.3703 -1333.329,2406.3594 -1333.3181,2406.3522 C -1333.2847,2406.3304 -1333.2655,2406.3195 -1333.2604,2406.3195 C -1333.2539,2406.3275 -1333.2484,2406.3344 -1333.2441,2406.3402 C -1333.2165,2406.3779 -1333.1947,2406.4204 -1333.1788,2406.4675 C -1333.1694,2406.4958 -1333.1639,2406.5132 -1333.1625,2406.5197 C -1333.1567,2406.5451 -1333.1538,2406.5763 -1333.1538,2406.6133 M -1332.7964,2406.4827 C -1332.7964,2406.5052 -1332.8254,2406.5411 -1332.8835,2406.5905 C -1332.9415,2406.6398 -1332.9705,2406.6681 -1332.9705,2406.6754 C -1332.9705,2406.6957 -1332.9234,2406.7417 -1332.829,2406.8136 C -1332.8327,2406.8201 -1332.8504,2406.8371 -1332.8824,2406.8647 C -1332.9143,2406.8923 -1332.9328,2406.9061 -1332.9379,2406.9061 C -1332.9429,2406.9061 -1332.9542,2406.8999 -1332.9716,2406.8876 C -1332.9883,2406.8752 -1333.0064,2406.8593 -1333.026,2406.8397 C -1333.0587,2406.807 -1333.0833,2406.7682 -1333.1,2406.7232 C -1333.1138,2406.6862 -1333.1207,2406.6521 -1333.1207,2406.6209 C -1333.1207,2406.5999 -1333.1156,2406.5749 -1333.1055,2406.5459 C -1333.0953,2406.5168 -1333.0812,2406.4882 -1333.063,2406.4599 C -1333.0536,2406.4454 -1333.0304,2406.4185 -1332.9934,2406.3794 C -1332.952,2406.3358 -1332.9259,2406.3141 -1332.915,2406.3141 C -1332.9128,2406.3141 -1332.9041,2406.3242 -1332.8889,2406.3445 C -1332.8766,2406.3619 -1332.8639,2406.3794 -1332.8508,2406.3968 C -1332.8479,2406.3997 -1332.8388,2406.4124 -1332.8236,2406.4349 C -1332.8055,2406.4617 -1332.7964,2406.4777 -1332.7964,2406.4827 M -1332.9161,2406.5448 C -1332.9161,2406.5404 -1332.923,2406.5274 -1332.9368,2406.5056 C -1332.9556,2406.4759 -1332.972,2406.4519 -1332.9858,2406.4338 L -1332.9966,2406.4338 C -1333.0039,2406.4526 -1333.0101,2406.4711 -1333.0151,2406.4893 C -1333.0202,2406.5067 -1333.0228,2406.5197 -1333.0228,2406.5284 C -1333.0228,2406.5517 -1333.0202,2406.5727 -1333.0151,2406.5916 C -1333.0093,2406.6097 -1333.0017,2406.6188 -1332.9923,2406.6188 C -1332.9836,2406.6188 -1332.9687,2406.6079 -1332.9477,2406.5861 C -1332.9266,2406.5644 -1332.9161,2406.5506 -1332.9161,2406.5448 M -1332.5835,2406.215 C -1332.59,2406.2317 -1332.6024,2406.2466 -1332.6205,2406.2597 C -1332.6423,2406.2756 -1332.6655,2406.2836 -1332.6902,2406.2836 C -1332.7039,2406.2836 -1332.7192,2406.28 -1332.7359,2406.2727 C -1332.7518,2406.2655 -1332.7598,2406.2564 -1332.7598,2406.2455 C -1332.7598,2406.2397 -1332.75,2406.2281 -1332.7304,2406.2107 C -1332.7108,2406.1933 -1332.6963,2406.1846 -1332.6869,2406.1846 C -1332.6796,2406.1846 -1332.6738,2406.1875 -1332.6695,2406.1933 C -1332.6579,2406.2078 -1332.6292,2406.215 -1332.5835,2406.215 M -1332.5715,2406.9093 L -1332.725,2406.9093 L -1332.725,2406.4447 C -1332.725,2406.4403 -1332.7272,2406.4352 -1332.7315,2406.4294 C -1332.7351,2406.4229 -1332.742,2406.4142 -1332.7522,2406.4033 C -1332.7486,2406.3982 -1332.7308,2406.3823 -1332.6989,2406.3554 C -1332.6662,2406.3286 -1332.6473,2406.3152 -1332.6423,2406.3152 C -1332.6314,2406.3152 -1332.6169,2406.3329 -1332.5987,2406.3685 C -1332.5806,2406.4033 -1332.5715,2406.4287 -1332.5715,2406.4447 L -1332.5715,2406.9093 M -1331.9667,2406.9115 L -1332.1158,2406.9115 L -1332.1158,2406.4479 C -1332.1158,2406.4385 -1332.1183,2406.4316 -1332.1234,2406.4272 C -1332.1285,2406.4229 -1332.1357,2406.4193 -1332.1452,2406.4164 C -1332.1473,2406.4178 -1332.1495,2406.4196 -1332.1517,2406.4218 C -1332.1531,2406.4233 -1332.1539,2406.4265 -1332.1539,2406.4316 L -1332.1539,2406.9115 L -1332.3106,2406.9115 L -1332.3106,2406.4359 C -1332.3156,2406.4316 -1332.3204,2406.428 -1332.3247,2406.4251 C -1332.3283,2406.4222 -1332.3316,2406.4207 -1332.3345,2406.4207 C -1332.336,2406.4207 -1332.3421,2406.4243 -1332.353,2406.4316 L -1332.353,2406.9115 L -1332.5065,2406.9115 L -1332.5065,2406.4479 C -1332.5065,2406.4407 -1332.5115,2406.4301 -1332.5217,2406.4164 C -1332.5268,2406.4098 -1332.5293,2406.404 -1332.5293,2406.3989 C -1332.5293,2406.3888 -1332.5112,2406.3688 -1332.4749,2406.3391 C -1332.4539,2406.3217 -1332.4372,2406.313 -1332.4248,2406.313 C -1332.4125,2406.313 -1332.3994,2406.3239 -1332.3857,2406.3456 C -1332.3719,2406.3674 -1332.3624,2406.3783 -1332.3574,2406.3783 C -1332.3479,2406.3783 -1332.3247,2406.3681 -1332.2877,2406.3478 C -1332.2507,2406.3275 -1332.23,2406.3173 -1332.2257,2406.3173 C -1332.2192,2406.3173 -1332.2097,2406.3242 -1332.1974,2406.338 C -1332.1851,2406.3511 -1332.172,2406.3645 -1332.1582,2406.3783 C -1332.1517,2406.3783 -1332.1361,2406.3717 -1332.1114,2406.3587 C -1332.086,2406.3456 -1332.0599,2406.3318 -1332.0331,2406.3173 C -1332.0244,2406.3173 -1332.0113,2406.3279 -1331.9939,2406.3489 C -1331.9758,2406.3699 -1331.9667,2406.3859 -1331.9667,2406.3968 L -1331.9667,2406.9115 M -1331.5732,2406.8506 C -1331.5732,2406.8556 -1331.588,2406.8683 -1331.6178,2406.8887 C -1331.6475,2406.909 -1331.6649,2406.9191 -1331.67,2406.9191 C -1331.6809,2406.9191 -1331.6929,2406.9086 -1331.7059,2406.8876 C -1331.7103,2406.8803 -1331.7168,2406.8687 -1331.7255,2406.8527 C -1331.7415,2406.8578 -1331.76,2406.8669 -1331.781,2406.88 C -1331.8187,2406.9032 -1331.8394,2406.9148 -1331.843,2406.9148 C -1331.8488,2406.9148 -1331.8586,2406.9061 -1331.8724,2406.8887 C -1331.9065,2406.8459 -1331.9236,2406.7925 -1331.9236,2406.7287 C -1331.9236,2406.6997 -1331.921,2406.6757 -1331.916,2406.6569 C -1331.9101,2406.638 -1331.8938,2406.6112 -1331.867,2406.5763 C -1331.8445,2406.5473 -1331.814,2406.5248 -1331.7756,2406.5089 C -1331.7451,2406.4958 -1331.7299,2406.4846 -1331.7299,2406.4751 C -1331.7299,2406.4599 -1331.7411,2406.4447 -1331.7636,2406.4294 C -1331.7861,2406.4135 -1331.801,2406.4055 -1331.8082,2406.4055 C -1331.8111,2406.4055 -1331.8195,2406.4077 -1331.8332,2406.412 C -1331.847,2406.4164 -1331.8583,2406.4185 -1331.867,2406.4185 C -1331.8779,2406.4185 -1331.8884,2406.416 -1331.8985,2406.4109 C -1331.908,2406.4058 -1331.9127,2406.3982 -1331.9127,2406.3881 C -1331.9127,2406.3743 -1331.9062,2406.3674 -1331.8931,2406.3674 C -1331.8887,2406.3674 -1331.8797,2406.3692 -1331.8659,2406.3728 C -1331.8608,2406.3743 -1331.8568,2406.375 -1331.8539,2406.375 C -1331.8423,2406.375 -1331.8227,2406.3685 -1331.7952,2406.3554 C -1331.7676,2406.3424 -1331.7397,2406.3286 -1331.7114,2406.3141 C -1331.6998,2406.3141 -1331.678,2406.3279 -1331.6461,2406.3554 C -1331.6098,2406.3866 -1331.5917,2406.4142 -1331.5917,2406.4381 L -1331.5917,2406.8081 C -1331.5917,2406.8118 -1331.5888,2406.8197 -1331.583,2406.8321 C -1331.5815,2406.8357 -1331.5782,2406.8419 -1331.5732,2406.8506 M -1331.7331,2406.8038 L -1331.7364,2406.5426 C -1331.7574,2406.5499 -1331.7748,2406.5676 -1331.7886,2406.5959 C -1331.8017,2406.6235 -1331.8082,2406.646 -1331.8082,2406.6634 C -1331.8082,2406.6939 -1331.8013,2406.7258 -1331.7875,2406.7592 C -1331.773,2406.7918 -1331.76,2406.8081 -1331.7484,2406.8081 C -1331.7455,2406.8067 -1331.7404,2406.8052 -1331.7331,2406.8038 M -1331.3053,2406.8375 C -1331.3053,2406.8433 -1331.3216,2406.8567 -1331.3542,2406.8778 C -1331.3862,2406.8981 -1331.4061,2406.9082 -1331.4141,2406.9082 C -1331.4264,2406.9082 -1331.4398,2406.8985 -1331.4544,2406.8789 C -1331.4681,2406.8585 -1331.475,2406.8411 -1331.475,2406.8266 L -1331.475,2406.3619 L -1331.5381,2406.3619 L -1331.5381,2406.3119 C -1331.4924,2406.3119 -1331.4496,2406.2938 -1331.4097,2406.2575 C -1331.3771,2406.227 -1331.3571,2406.1973 -1331.3499,2406.1682 L -1331.3346,2406.1682 L -1331.3346,2406.2825 C -1331.3346,2406.2948 -1331.3259,2406.3046 -1331.3085,2406.3119 L -1331.3085,2406.3609 L -1331.3314,2406.3609 L -1331.3314,2406.7744 C -1331.3314,2406.7853 -1331.327,2406.7983 -1331.3183,2406.8136 C -1331.3096,2406.8288 -1331.3053,2406.8368 -1331.3053,2406.8375 M -1331.1241,2406.9082 L -1331.2699,2406.9082 L -1331.2699,2406.202 C -1331.2626,2406.1969 -1331.2398,2406.186 -1331.2013,2406.1693 C -1331.1622,2406.1519 -1331.1364,2406.1418 -1331.1241,2406.1389 L -1331.1241,2406.9082 M -1330.7052,2406.6079 C -1330.7052,2406.6434 -1330.7117,2406.6772 -1330.7248,2406.7091 C -1330.7335,2406.7301 -1330.744,2406.7486 -1330.7563,2406.7646 C -1330.7795,2406.7965 -1330.7977,2406.8205 -1330.8107,2406.8364 C -1330.8499,2406.8843 -1330.8757,2406.9082 -1330.888,2406.9082 C -1330.8982,2406.9082 -1330.9105,2406.9024 -1330.925,2406.8908 C -1330.9395,2406.8785 -1330.9533,2406.8665 -1330.9664,2406.8549 C -1331.0026,2406.8259 -1331.0306,2406.7933 -1331.0501,2406.757 C -1331.0697,2406.72 -1331.0795,2406.679 -1331.0795,2406.634 C -1331.0795,2406.6021 -1331.0745,2406.572 -1331.0643,2406.5437 C -1331.0541,2406.5147 -1331.0407,2406.4893 -1331.024,2406.4675 C -1330.9435,2406.3616 -1330.8974,2406.3086 -1330.8858,2406.3086 C -1330.88,2406.3086 -1330.8604,2406.326 -1330.8271,2406.3609 C -1330.7901,2406.3986 -1330.7639,2406.4305 -1330.7487,2406.4566 C -1330.7364,2406.4777 -1330.7262,2406.502 -1330.7182,2406.5295 C -1330.7095,2406.5564 -1330.7052,2406.5825 -1330.7052,2406.6079 M -1330.8053,2406.7385 C -1330.8053,2406.679 -1330.8202,2406.6224 -1330.8499,2406.5687 C -1330.8942,2406.4896 -1330.9315,2406.4501 -1330.962,2406.4501 C -1330.9707,2406.4501 -1330.9769,2406.457 -1330.9805,2406.4708 C -1330.9834,2406.4838 -1330.9849,2406.4976 -1330.9849,2406.5121 C -1330.9849,2406.5767 -1330.9722,2406.6282 -1330.9468,2406.6667 C -1330.9279,2406.6957 -1330.8862,2406.7356 -1330.8216,2406.7864 C -1330.8151,2406.7798 -1330.8107,2406.7733 -1330.8086,2406.7668 C -1330.8064,2406.7602 -1330.8053,2406.7508 -1330.8053,2406.7385 M -1330.3369,2406.7167 C -1330.3369,2406.7363 -1330.3424,2406.7577 -1330.3533,2406.7809 C -1330.3642,2406.8034 -1330.379,2406.8215 -1330.3979,2406.8353 C -1330.4465,2406.8723 -1330.4762,2406.8941 -1330.4871,2406.9006 C -1330.4973,2406.9072 -1330.5067,2406.9104 -1330.5154,2406.9104 C -1330.5241,2406.9003 -1330.5404,2406.8876 -1330.5644,2406.8723 C -1330.5883,2406.8571 -1330.6228,2406.8426 -1330.6678,2406.8288 C -1330.6627,2406.8128 -1330.65,2406.7962 -1330.6297,2406.7787 C -1330.6065,2406.7584 -1330.584,2406.7483 -1330.5622,2406.7483 C -1330.5397,2406.7483 -1330.5125,2406.7602 -1330.4806,2406.7842 C -1330.461,2406.7987 -1330.4479,2406.8074 -1330.4414,2406.8103 L -1330.4382,2406.7983 C -1330.4382,2406.7911 -1330.4411,2406.7824 -1330.4469,2406.7722 C -1330.4527,2406.7621 -1330.4654,2406.7472 -1330.4849,2406.7276 C -1330.5546,2406.6579 -1330.5916,2406.6206 -1330.596,2406.6155 C -1330.6373,2406.5676 -1330.658,2406.5266 -1330.658,2406.4925 C -1330.658,2406.4548 -1330.6337,2406.4142 -1330.5851,2406.3707 C -1330.5408,2406.3308 -1330.5064,2406.3108 -1330.4817,2406.3108 C -1330.4606,2406.3282 -1330.445,2406.3413 -1330.4349,2406.35 C -1330.403,2406.3775 -1330.387,2406.3928 -1330.387,2406.3957 C -1330.387,2406.4037 -1330.3961,2406.4174 -1330.4142,2406.437 C -1330.4316,2406.4559 -1330.445,2406.4653 -1330.4545,2406.4653 C -1330.4733,2406.4653 -1330.4937,2406.4566 -1330.5154,2406.4392 C -1330.5466,2406.4145 -1330.5626,2406.4019 -1330.5633,2406.4011 L -1330.5709,2406.4077 C -1330.5499,2406.4418 -1330.514,2406.4846 -1330.4632,2406.5361 C -1330.379,2406.6217 -1330.3369,2406.6819 -1330.3369,2406.7167 M -1330.1552,2406.8157 C -1330.1552,2406.8201 -1330.1614,2406.8339 -1330.1737,2406.8571 C -1330.1861,2406.8803 -1330.2009,2406.9039 -1330.2184,2406.9278 C -1330.2379,2406.9554 -1330.2492,2406.971 -1330.2521,2406.9746 C -1330.2739,2407.0029 -1330.2895,2407.0171 -1330.2989,2407.0171 C -1330.3032,2407.0171 -1330.3076,2407.0149 -1330.3119,2407.0105 C -1330.3163,2407.0062 -1330.3185,2407.0022 -1330.3185,2406.9986 C -1330.3185,2406.9949 -1330.3098,2406.9826 -1330.2924,2406.9616 C -1330.2749,2406.9405 -1330.2662,2406.9267 -1330.2662,2406.9202 C -1330.2662,2406.9159 -1330.2706,2406.9104 -1330.2793,2406.9039 C -1330.2982,2406.8894 -1330.3076,2406.8781 -1330.3076,2406.8702 C -1330.2945,2406.8455 -1330.2847,2406.8274 -1330.2782,2406.8157 C -1330.2564,2406.7787 -1330.2405,2406.7602 -1330.2303,2406.7602 C -1330.2202,2406.7602 -1330.2028,2406.7693 -1330.1781,2406.7874 C -1330.1629,2406.7983 -1330.1552,2406.8078 -1330.1552,2406.8157"
       id="text13704" />
  </g>
</svg>
