<?xml version="1.0" encoding="UTF-8" standalone="no"?>
<!-- Created with Inkscape (http://www.inkscape.org/) -->
<svg
   xmlns:dc="http://purl.org/dc/elements/1.1/"
   xmlns:cc="http://web.resource.org/cc/"
   xmlns:rdf="http://www.w3.org/1999/02/22-rdf-syntax-ns#"
   xmlns:svg="http://www.w3.org/2000/svg"
   xmlns="http://www.w3.org/2000/svg"
   xmlns:xlink="http://www.w3.org/1999/xlink"
   xmlns:sodipodi="http://inkscape.sourceforge.net/DTD/sodipodi-0.dtd"
   xmlns:inkscape="http://www.inkscape.org/namespaces/inkscape"
   width="6400"
   height="4800"
   id="svg1306"
   sodipodi:version="0.32"
   inkscape:version="0.43"
   sodipodi:docbase="L:\home\paniq\devel\neuro\demo\res"
   sodipodi:docname="scene5.svg"
   version="1.0">
  <defs
     id="defs1308">
    <linearGradient
       id="linearGradient21663">
      <stop
         style="stop-color:#000000;stop-opacity:1;"
         offset="0"
         id="stop21665" />
      <stop
         style="stop-color:#ffffff;stop-opacity:1;"
         offset="1"
         id="stop21667" />
    </linearGradient>
    <linearGradient
       inkscape:collect="always"
       id="linearGradient12819">
      <stop
         style="stop-color:#000000;stop-opacity:1;"
         offset="0"
         id="stop12821" />
      <stop
         style="stop-color:#000000;stop-opacity:0;"
         offset="1"
         id="stop12823" />
    </linearGradient>
    <linearGradient
       id="linearGradient2967">
      <stop
         style="stop-color:#809dc9;stop-opacity:1;"
         offset="0"
         id="stop2969" />
      <stop
         style="stop-color:#001c66;stop-opacity:1;"
         offset="1"
         id="stop2971" />
    </linearGradient>
    <radialGradient
       inkscape:collect="always"
       xlink:href="#linearGradient2967"
       id="radialGradient2975"
       cx="4.9612255"
       cy="554.69659"
       fx="4.9612255"
       fy="554.69659"
       r="321.2403"
       gradientTransform="matrix(1.959604,-1.039323e-2,7.620626e-3,1.454567,-9.011896,-331.4489)"
       gradientUnits="userSpaceOnUse" />
    <linearGradient
       inkscape:collect="always"
       xlink:href="#linearGradient12819"
       id="linearGradient12825"
       x1="1694.8372"
       y1="-1115.2026"
       x2="1694.8325"
       y2="-1117.7974"
       gradientUnits="userSpaceOnUse"
       gradientTransform="translate(-3093.782,-1289.073)" />
    <radialGradient
       inkscape:collect="always"
       xlink:href="#linearGradient21663"
       id="radialGradient21671"
       cx="3164.3772"
       cy="2512.5413"
       fx="3164.3772"
       fy="2512.5413"
       r="247.24475"
       gradientTransform="matrix(1,0,0,2.165468,0,-2928.286)"
       gradientUnits="userSpaceOnUse" />
  </defs>
  <sodipodi:namedview
     id="base"
     pagecolor="#ffffff"
     bordercolor="#666666"
     borderopacity="1.0"
     inkscape:pageopacity="0"
     inkscape:pageshadow="2"
     inkscape:zoom="0.16125"
     inkscape:cx="3200"
     inkscape:cy="2400"
     inkscape:current-layer="layer1"
     inkscape:document-units="px"
     inkscape:window-width="1280"
     inkscape:window-height="939"
     inkscape:window-x="-4"
     inkscape:window-y="-4" />
  <metadata
     id="metadata1311">
    <rdf:RDF>
      <cc:Work
         rdf:about="">
        <dc:format>image/svg+xml</dc:format>
        <dc:type
           rdf:resource="http://purl.org/dc/dcmitype/StillImage" />
      </cc:Work>
    </rdf:RDF>
  </metadata>
  <g
     id="layer1"
     inkscape:label="Layer 1"
     inkscape:groupmode="layer">
    <path
       style="font-size:1990.45581055px;font-style:normal;font-variant:normal;font-weight:normal;font-stretch:normal;text-align:start;line-height:125%;writing-mode:lr-tb;text-anchor:start;fill:#000000;fill-opacity:1;stroke:none;stroke-width:1px;stroke-linecap:butt;stroke-linejoin:miter;stroke-opacity:1;font-family:Demon"
       d="M 672.21875,1578.4688 L 562.71875,1624.25 C 526.8902,1636.1942 493.73875,1646.8065 463.21875,1656.0938 L 457.25,1956.6563 L 425.375,2364.7188 L 300,2987.7188 C 293.36502,3019.5662 288.04329,3036.8147 284.0625,3039.4688 L 194.5,3093.2188 C 187.86513,3097.1997 170.61639,3109.7998 142.75,3131.0313 C 110.90277,3153.5897 94.968828,3166.1899 94.96875,3168.8438 C 94.968752,3168.9163 94.994538,3169.0018 95.03125,3169.0625 C 96.517682,3171.1514 121.06145,3165.7925 168.625,3152.9375 C 217.72287,3140.9947 242.92296,3135 244.25,3135 L 473.15625,3135 C 516.94594,3135 538.84337,3135 538.84375,3135 C 538.8434,3134.9947 538.84444,3134.9742 538.84375,3134.9688 C 538.84272,3134.9632 538.84513,3134.9432 538.84375,3134.9375 C 538.84203,3134.9317 538.81457,3134.9122 538.8125,3134.9063 C 538.81009,3134.9002 538.81526,3134.8812 538.8125,3134.875 C 538.8063,3134.8624 538.78883,3134.8255 538.78125,3134.8125 C 538.76059,3134.7793 538.71676,3134.7237 538.6875,3134.6875 C 537.2126,3132.9334 525.97203,3127.7294 505,3119.0938 C 482.44119,3109.805 469.84113,3103.1686 467.1875,3099.1875 L 389.5625,3071.3125 C 386.90834,3067.3316 388.22315,3048.7679 393.53125,3015.5938 C 398.83891,2975.7847 401.49976,2955.8753 401.5,2955.875 L 423.40625,2874.25 L 433.34375,2711.0625 L 463.21875,2555.7813 C 465.8724,2546.493 469.84808,2541.8443 475.15625,2541.8438 L 546.8125,2549.8125 L 650.3125,2533.9063 L 702.0625,2541.8438 C 702.06197,2541.8444 712.00113,2541.2025 731.90625,2539.875 C 747.82932,2538.5486 755.81193,2539.8634 755.8125,2543.8438 C 762.44676,2565.0759 769.08328,2585.6584 775.71875,2605.5625 C 787.66087,2646.6991 793.62439,2683.8576 793.625,2717.0313 C 794.95135,2774.0914 795.62436,2830.4862 795.625,2886.2188 C 795.62438,2932.6628 793.63654,2973.7969 789.65625,3009.625 C 789.65563,3010.9521 791.64345,3025.5399 795.625,3053.4063 C 798.27832,3074.6377 797.6053,3085.9231 793.625,3087.25 L 725.9375,3105.1563 C 671.53121,3119.753 644.34328,3129.6922 644.34375,3135 C 644.34328,3137.654 680.82858,3137.654 753.8125,3135 C 829.07598,3132.4912 867.56751,3131.1685 869.3125,3131.0313 L 964.8125,3135 C 1064.3344,3138.981 1114.0927,3138.981 1114.0938,3135 C 1114.0927,3132.3461 1094.8562,3125.7408 1056.375,3115.125 C 1019.2189,3104.5093 999.95114,3098.5145 998.625,3097.1875 L 956.84375,3053.4063 C 942.2463,3037.4826 934.93673,3018.9192 934.9375,2997.6875 L 940.90625,2734.9375 L 839.40625,2318.9375 C 840.73255,2227.3774 835.4108,2151.0729 823.46875,2090.0313 C 811.52537,2043.5885 799.59838,1997.1326 787.65625,1950.6875 L 765.75,1650.125 L 672.21875,1578.4688 z M 2985.5938,1730.2188 C 2946.4382,1730.4454 2914.7187,1759.54 2914.7188,1795.3438 C 2914.7188,1831.2879 2946.6638,1860.4687 2986.0313,1860.4688 C 3025.3987,1860.4687 3057.3749,1831.2879 3057.375,1795.3438 C 3057.375,1759.3996 3025.3987,1730.2188 2986.0313,1730.2188 C 2985.8775,1730.2188 2985.7473,1730.2179 2985.5938,1730.2188 z M 3319.0938,1748.8438 C 3280.5755,1749.7357 3249.6249,1778.5862 3249.625,1813.9688 C 3249.625,1849.9129 3281.5702,1879.0625 3320.9375,1879.0625 C 3360.3049,1879.0625 3392.2501,1849.9129 3392.25,1813.9688 C 3392.25,1778.0246 3360.3051,1748.8438 3320.9375,1748.8438 C 3320.3224,1748.8438 3319.7052,1748.8296 3319.0938,1748.8438 z M 574.65625,1749.6563 L 654.28125,2090.0313 L 733.90625,2354.75 C 733.90569,2354.7508 735.89354,2366.036 739.875,2388.5938 C 739.87443,2397.8833 739.87444,2407.1805 739.875,2416.4688 L 654.28125,2398.5313 L 542.8125,2416.4688 L 487.09375,2416.4688 C 483.11253,2416.4695 481.1247,2412.4938 481.125,2404.5313 L 499.03125,2307 L 510.96875,2026.3438 L 526.90625,1849.1875 L 574.65625,1749.6563 z M 4112.8125,1877.0313 C 4110.158,1877.0324 4099.5146,1887.6759 4080.9375,1908.9063 C 4059.7054,1934.1199 4048.4515,1948.0348 4047.125,1950.6875 C 4028.547,1967.9393 4015.9155,1976.5635 4009.2813,1976.5625 C 4003.9728,1976.5636 3996.0215,1972.588 3985.4063,1964.625 C 3974.79,1956.6644 3944.9413,1948.713 3895.8438,1940.75 C 3852.0534,1932.7893 3820.8584,1928.8138 3802.2813,1928.8125 C 3750.5291,1928.8137 3699.4559,1944.0747 3649.0313,1974.5938 C 3578.7018,2017.058 3543.5314,2062.1676 3543.5313,2109.9375 C 3543.5312,2119.2273 3546.1921,2140.4517 3551.5,2173.625 C 3556.8079,2206.8002 3559.4686,2226.7098 3559.4688,2233.3438 C 3560.7957,2262.5379 3564.7714,2286.4232 3571.4063,2305 C 3579.368,2322.2514 3587.3194,2340.1733 3595.2813,2358.75 C 3605.897,2385.2901 3627.1214,2409.8172 3658.9688,2432.375 C 3713.3743,2469.5309 3745.8839,2493.416 3756.5,2504.0313 C 3820.1943,2570.3802 3863.3163,2615.5213 3885.875,2639.4063 C 3901.7983,2655.3304 3917.7323,2670.56 3933.6563,2685.1563 C 3957.5413,2707.7152 3972.1293,2729.6127 3977.4375,2750.8438 C 3978.764,2760.1329 3973.4735,2780.7156 3961.5313,2812.5625 C 3950.9152,2844.4101 3946.2663,2867.6223 3947.5938,2882.2188 C 3964.8439,2911.4123 3973.4681,2933.9827 3973.4688,2949.9063 C 3973.4683,2965.8301 3965.5168,2982.4056 3949.5938,2999.6563 L 3842.0938,3047.4375 C 3819.5349,3047.4376 3779.7158,3037.467 3722.6563,3017.5625 C 3704.0785,3010.9277 3685.5149,3003.6496 3666.9375,2995.6875 C 3648.3598,2987.7259 3633.7719,2965.8283 3623.1563,2930 C 3612.5403,2892.8451 3603.916,2849.7231 3597.2813,2800.625 C 3597.2812,2800.6253 3595.9352,2785.3644 3593.2813,2754.8438 C 3590.7724,2725.9929 3588.8541,2710.7656 3587.5313,2709.1875 C 3587.5258,2709.1814 3587.5054,2709.1618 3587.5,2709.1563 C 3587.4946,2709.1511 3587.4741,2709.1297 3587.4688,2709.125 C 3587.4634,2709.1208 3587.4428,2709.0975 3587.4375,2709.0938 C 3587.4215,2709.084 3587.3908,2709.0681 3587.375,2709.0625 C 3587.3698,2709.0611 3587.349,2709.0634 3587.3438,2709.0625 C 3587.3385,2709.062 3587.3177,2709.0625 3587.3125,2709.0625 C 3580.6775,2709.0629 3578.0167,2739.5846 3579.3438,2800.625 L 3587.3125,2975.7813 L 3579.3438,3127.0625 C 3575.3628,3141.6592 3571.3873,3156.2469 3567.4063,3170.8438 C 3560.1597,3194.9987 3557.3275,3208.1734 3558.875,3210.3438 C 3558.9158,3210.3972 3558.9846,3210.4611 3559.0313,3210.5 C 3559.063,3210.5243 3559.1219,3210.5759 3559.1563,3210.5938 C 3559.2437,3210.6343 3559.3651,3210.6562 3559.4688,3210.6563 C 3562.1227,3210.6562 3570.0739,3196.0684 3583.3438,3166.875 C 3597.9404,3139.0087 3605.8916,3124.3894 3607.2188,3123.0625 C 3637.739,3100.504 3654.9877,3089.2188 3658.9688,3089.2188 C 3705.4125,3089.2187 3737.2803,3094.5406 3754.5313,3105.1563 C 3785.0514,3125.0609 3814.227,3135 3842.0938,3135 C 3885.8834,3135 3931.6662,3129.0365 3979.4375,3117.0938 C 4027.208,3105.1511 4054.4273,3093.2241 4061.0625,3081.2813 C 4106.179,3040.1452 4128.7179,2990.3867 4128.7188,2932 C 4128.7182,2865.6517 4126.0572,2816.5352 4120.75,2784.6875 C 4112.7876,2734.263 4096.2119,2685.8507 4071,2639.4063 C 4059.0567,2619.5021 4029.8497,2586.3195 3983.4063,2539.875 C 3946.2507,2505.3744 3909.7653,2470.2038 3873.9375,2434.375 C 3859.3405,2419.779 3850.0744,2404.5181 3846.0938,2388.5938 C 3842.1125,2372.6709 3835.476,2360.7127 3826.1875,2352.75 C 3816.8985,2343.462 3795.6429,2331.535 3762.4688,2316.9375 C 3737.2561,2306.3226 3721.3536,2293.0495 3714.7188,2277.125 C 3704.1028,2229.355 3696.7932,2192.1967 3692.8125,2165.6563 L 3716.6875,2082.0625 C 3716.6873,2070.1209 3721.336,2062.1695 3730.625,2058.1875 C 3735.9326,2055.5346 3745.9032,2054.8617 3760.5,2056.1875 C 3784.3852,2057.5155 3797.6584,2058.1886 3800.3125,2058.1875 C 3806.9471,2058.1885 3820.1888,2053.5398 3840.0938,2044.25 C 3861.325,2034.9623 3878.605,2030.3137 3891.875,2030.3125 C 3902.4904,2030.3136 3912.4295,2032.9744 3921.7188,2038.2813 C 3941.623,2043.5903 3962.8473,2049.5538 3985.4063,2056.1875 C 4007.9643,2061.4965 4025.2129,2077.4305 4037.1563,2103.9688 C 4039.8097,2110.6046 4045.7732,2119.229 4055.0625,2129.8438 C 4057.7159,2132.4987 4059.7351,2147.7596 4061.0625,2175.625 C 4063.7159,2222.0699 4068.3333,2245.282 4074.9688,2245.2813 C 4077.6221,2245.2821 4082.9439,2253.9066 4090.9063,2271.1563 C 4093.5596,2279.119 4096.8624,2287.0703 4100.8438,2295.0313 L 4090.9063,2092.0313 L 4094.875,1980.5625 C 4094.8745,1979.3994 4097.9653,1964.9384 4104.0938,1937.2188 C 4107.0852,1938.3073 4110.3248,1939.4972 4113.875,1940.75 C 4135.1065,1948.713 4145.7499,1952.6886 4145.75,1952.6875 L 4223.375,2000.4688 C 4230.0098,2003.1238 4237.961,2015.7238 4247.25,2038.2813 C 4257.8657,2059.5139 4261.8416,2074.1018 4259.1875,2082.0625 L 4235.3125,2165.6563 L 4207.4375,2380.625 L 4237.3125,2565.75 L 4253.2188,2788.6875 L 4237.3125,2961.8438 C 4232.0046,3008.2879 4241.2706,3048.7489 4265.1563,3083.25 C 4271.7909,3093.8658 4288.3981,3104.5093 4314.9375,3115.125 C 4336.1688,3121.7599 4356.7204,3128.3652 4376.625,3135 C 4403.1642,3145.6158 4447.632,3150.9376 4510,3150.9375 C 4548.4817,3150.9375 4582.9793,3146.9618 4613.5,3139 C 4640.0389,3119.0954 4657.2877,3100.5007 4665.25,3083.25 C 4665.2495,3083.25 4675.8619,3077.2866 4697.0938,3065.3438 C 4709.036,3057.3819 4716.3456,3047.4428 4719,3035.5 C 4726.9613,3002.3258 4730.9369,2973.7918 4730.9375,2949.9063 L 4738.9063,2693.125 L 4734.9063,2515.9688 L 4707.0313,2243.2813 L 4719,2078.0938 C 4720.3264,2056.8633 4724.302,2041.6024 4730.9375,2032.3125 L 4780.6875,1986.5313 C 4781.5949,1985.6242 4788.0989,1982.5062 4800.1875,1977.25 C 4807.297,1978.8409 4815.8561,1980.6049 4825.875,1982.5313 C 4858.1422,1988.9858 4875.3624,1992.9441 4877.5,1994.375 C 4877.5243,1994.392 4877.5738,1994.4212 4877.5938,1994.4375 C 4877.5999,1994.4428 4877.6193,1994.4635 4877.625,1994.4688 C 4898.8564,2013.0475 4918.0932,2045.5883 4935.3438,2092.0313 C 4949.9404,2133.1683 4957.25,2169.6535 4957.25,2201.5 L 4957.25,2462.25 L 4933.375,2565.75 L 4961.2188,2852.375 C 4957.2378,2929.3395 4947.9715,2977.7832 4933.375,2997.6875 L 4857.7188,3085.25 C 4856.3917,3086.577 4843.7917,3094.5284 4819.9063,3109.125 C 4796.0207,3123.7217 4784.0937,3132.3461 4784.0938,3135 C 4784.0938,3135 4808.6206,3135 4857.7188,3135 L 5084.625,3135 C 5189.4553,3135 5241.8747,3135 5241.875,3135 C 5241.8746,3131.0191 5178.8431,3113.1287 5052.7813,3081.2813 L 5018.9688,2949.9063 L 4989.0938,2717.0313 L 5009,2565.75 L 5005.0313,2448.3125 L 5014.9688,2318.9375 L 5012.9688,2197.5 L 5026.9063,2217.4063 C 5076.0039,2338.1613 5113.1621,2454.285 5138.375,2565.75 C 5148.9904,2612.1945 5178.1977,2689.1408 5225.9688,2796.625 C 5257.8156,2884.2053 5292.9859,2965.1584 5331.4688,3039.4688 C 5344.7379,3066.0081 5358.0108,3091.8813 5371.2813,3117.0938 C 5391.3728,3160.2914 5401.9527,3187.1306 5403.0313,3197.625 C 5409.0189,3186.9542 5427.6083,3159.4584 5458.8438,3115.125 L 5446.9063,2975.7813 L 5452.875,2802.5938 C 5451.5578,2709.1153 5451.5472,2662.012 5452.8438,2661.2813 C 5452.8489,2661.2798 5452.8698,2661.2813 5452.875,2661.2813 C 5455.5283,2661.2817 5452.8677,2545.1893 5444.9063,2312.9688 L 5458.8438,2187.5625 L 5470.7813,2044.25 C 5473.4345,2007.0959 5478.0835,1987.1863 5484.7188,1984.5313 L 5602.1563,1926.8125 L 5307.5625,1924.8125 C 5238.8811,1924.8137 5203.7344,1924.1728 5202.125,1922.9063 C 5202.1196,1922.9012 5202.098,1922.8801 5202.0938,1922.875 C 5202.4225,1925.5711 5223.6493,1932.1872 5265.7813,1942.7188 C 5308.3734,1953.0454 5330.2409,1958.9946 5331.4063,1960.5313 C 5331.4143,1960.5433 5331.4321,1960.5823 5331.4375,1960.5938 C 5331.4435,1960.6106 5331.4687,1960.6407 5331.4688,1960.6563 L 5363.3125,2000.4688 C 5371.2738,2019.0474 5375.9225,2033.6353 5377.25,2044.25 L 5411.0625,2173.625 L 5405.0938,2330.875 L 5379.2188,2541.8438 L 5377.25,2734.9375 L 5377.25,2846.4063 L 5307.5625,2685.1563 L 5289.6563,2617.5 L 5253.8438,2502.0625 L 5192.125,2356.75 L 5144.3438,2225.375 L 5106.5313,2096 L 5082.6563,2022.3438 L 5076.6875,1968.5938 L 4820.5,1968.5938 C 4844.3329,1958.5597 4856.9147,1952.6732 4858.2188,1950.9375 C 4858.2288,1950.9234 4858.2415,1950.8885 4858.25,1950.875 C 4858.2538,1950.8684 4858.2778,1950.8502 4858.2813,1950.8438 C 4858.2874,1950.8311 4858.3079,1950.7933 4858.3125,1950.7813 C 4858.3144,1950.7754 4858.311,1950.7558 4858.3125,1950.75 C 4858.3137,1950.7444 4858.3117,1950.7242 4858.3125,1950.7188 C 4858.3129,1950.7134 4858.3125,1950.6927 4858.3125,1950.6875 C 4858.3125,1950.5424 4858.2669,1950.4025 4858.1875,1950.2813 C 4856.723,1948.223 4843.4836,1949.6917 4818.5,1954.6875 C 4793.2869,1958.6695 4780.0137,1960.6574 4778.6875,1960.6563 L 4545.8125,1960.6563 C 4504.676,1960.6575 4484.1245,1961.9723 4484.125,1964.625 C 4484.125,1964.6302 4484.1247,1964.651 4484.125,1964.6563 C 4484.1256,1964.6616 4484.1242,1964.6821 4484.125,1964.6875 C 4484.1261,1964.693 4484.1236,1964.7132 4484.125,1964.7188 C 4484.1301,1964.7358 4484.1486,1964.7635 4484.1563,1964.7813 C 4484.1619,1964.7932 4484.1807,1964.8314 4484.1875,1964.8438 C 4484.2022,1964.8687 4484.2307,1964.9112 4484.25,1964.9375 C 4485.4642,1966.5191 4494.6971,1970.3952 4511.9688,1976.5625 C 4531.873,1981.8715 4542.4854,1985.2054 4543.8125,1986.5313 L 4593.5938,2032.3125 C 4617.4787,2054.8721 4629.4057,2068.7868 4629.4063,2074.0938 L 4639.375,2237.3125 C 4631.4127,2253.237 4627.4372,2283.0858 4627.4375,2326.875 C 4627.437,2358.7231 4629.4247,2395.2396 4633.4063,2436.375 C 4636.0597,2452.2993 4638.0476,2467.5603 4639.375,2482.1563 C 4622.1239,2556.4672 4618.79,2634.7598 4629.4063,2717.0313 L 4619.4688,2876.25 C 4618.1413,2882.8851 4619.4559,2900.8068 4623.4375,2930 C 4626.0909,2949.9047 4624.1032,2965.1655 4617.4688,2975.7813 C 4597.5638,3006.3016 4566.4,3021.5627 4523.9375,3021.5625 C 4498.7247,3021.5626 4472.1784,3020.2164 4444.3125,3017.5625 C 4417.7728,3014.9086 4397.8632,3013.5941 4384.5938,3013.5938 C 4380.6125,2993.6894 4375.2911,2975.1259 4368.6563,2957.875 C 4358.0403,2928.6818 4354.7377,2905.4385 4358.7188,2888.1875 L 4372.6563,2826.5 L 4332.8438,2482.1563 L 4348.75,2263.1875 L 4358.7188,2044.25 C 4360.0455,2013.7308 4370.6579,1986.5116 4390.5625,1962.625 C 4390.563,1962.6197 4390.5615,1962.5993 4390.5625,1962.5938 C 4390.5683,1962.5711 4390.5801,1962.5253 4390.5938,1962.5 C 4390.5976,1962.4935 4390.6206,1962.4754 4390.625,1962.4688 C 4391.8203,1960.7962 4407.7404,1954.1961 4438.3438,1942.7188 C 4452.9401,1937.412 4467.5282,1932.1216 4482.125,1926.8125 L 4235.5313,1928.8125 C 4235.5986,1928.8122 4235.6669,1928.7819 4235.7188,1928.7813 C 4232.9232,1928.628 4206.2495,1927.9626 4155.6875,1926.8125 C 4135.2708,1925.7384 4118.9938,1925.0793 4106.8438,1924.875 C 4106.8482,1924.8549 4106.8393,1924.8326 4106.8438,1924.8125 C 4114.8051,1892.9665 4116.7928,1877.0324 4112.8125,1877.0313 z M 5948.5,1894.9688 C 5841.0151,1926.8172 5781.2864,1948.7147 5769.3438,1960.6563 C 5757.4008,1971.2731 5739.5104,2001.7949 5715.625,2052.2188 C 5689.0855,2109.2795 5671.1635,2155.7041 5661.875,2191.5313 C 5636.6625,2293.7089 5616.753,2372.0013 5602.1563,2426.4063 C 5602.1561,2426.4069 5602.1563,2460.2628 5602.1563,2527.9375 C 5602.1561,2611.5372 5602.1563,2653.3131 5602.1563,2653.3125 C 5614.0989,2744.8739 5626.0574,2811.2393 5638,2852.375 C 5639.3269,2873.6068 5655.2297,2904.1286 5685.75,2943.9375 C 5709.6353,2973.131 5732.8789,3002.9797 5755.4375,3033.5 C 5807.1891,3056.0586 5855.6016,3073.9804 5900.7188,3087.25 C 5937.8736,3108.4816 5962.4319,3124.3843 5974.375,3135 L 6079.875,3101.1875 C 6099.779,3094.5527 6117.0277,3089.904 6131.625,3087.25 L 6205.2813,3075.3125 L 6197.3125,2995.6875 L 6195.3125,2812.5625 L 6195.3125,2587.625 L 6227.1563,2454.2813 L 6255.0313,2376.6563 L 6259,2320.9063 C 6203.2666,2319.5801 6148.2178,2319.5801 6093.8125,2320.9063 C 5892.7684,2326.1631 5791.2443,2328.1881 5789.2813,2326.9375 C 5789.6719,2329.6332 5814.8751,2336.2492 5864.9063,2346.7813 C 5892.7724,2352.09 5920.6334,2357.4117 5948.5,2362.7188 L 6079.875,2398.5313 L 6093.8125,2539.875 L 6091.8125,2623.4688 L 6099.7813,2812.5625 C 6105.0887,2942.6058 6105.0889,3016.2494 6099.7813,3033.5 C 6074.5683,3036.154 6059.3074,3040.1297 6054,3045.4375 C 6050.0186,3049.4185 6044.6971,3051.4063 6038.0625,3051.4063 C 6030.1002,3051.4063 6018.1734,3049.4185 6002.25,3045.4375 C 5986.3259,3041.4567 5975.7138,3039.4687 5970.4063,3039.4688 C 5966.425,3039.4688 5955.7814,3032.1591 5938.5313,3017.5625 C 5915.9725,2998.985 5900.7117,2987.0581 5892.75,2981.75 C 5860.9024,2967.1534 5829.0656,2951.8927 5797.2188,2935.9688 C 5774.66,2880.2363 5760.7453,2837.7874 5755.4375,2808.5938 C 5740.8406,2715.7062 5730.8704,2653.9895 5725.5625,2623.4688 C 5725.5624,2612.8536 5723.5744,2594.2901 5719.5938,2567.75 C 5715.6127,2539.8843 5713.6247,2518.6284 5713.625,2504.0313 C 5713.6249,2488.1082 5705.6735,2445.6595 5689.75,2376.6563 C 5699.0387,2319.5974 5708.3051,2276.4754 5717.5938,2247.2813 C 5738.8251,2192.8764 5756.7468,2147.0937 5771.3438,2109.9375 C 5777.9784,2076.7643 5796.5734,2048.2303 5827.0938,2024.3438 C 5828.4205,2023.0179 5841.6625,2010.4178 5866.875,1986.5313 C 5882.7983,1970.6089 5894.0837,1962.6261 5900.7188,1962.625 C 5908.6803,1962.6261 5932.5658,1970.6088 5972.375,1986.5313 L 6030.0938,2024.3438 L 6079.875,2064.1563 C 6081.2014,2068.1382 6088.4798,2076.0895 6101.75,2088.0313 C 6115.0191,2099.9751 6124.3167,2111.9334 6129.625,2123.875 C 6144.2211,2166.339 6153.5183,2195.5148 6157.5,2211.4375 L 6179.4063,2295.0313 L 6195.3125,2279.125 L 6179.4063,2123.875 L 6157.5,2024.3438 C 6152.1916,2024.3449 6146.2278,1991.8352 6139.5938,1926.8125 C 6095.8032,1944.0643 6071.2448,1952.6886 6065.9375,1952.6875 C 6046.0324,1952.6887 6031.4445,1949.3549 6022.1563,1942.7188 C 5991.6355,1922.8155 5967.0773,1906.9127 5948.5,1894.9688 z M 990.46875,1924.8125 C 980.58937,1924.8818 975.10155,1925.4413 974.03125,1926.4375 C 973.92045,1926.5502 973.84375,1926.6882 973.84375,1926.8125 C 973.84409,1926.8178 973.84306,1926.8384 973.84375,1926.8438 C 973.84478,1926.8492 973.87362,1926.8694 973.875,1926.875 C 973.87844,1926.8864 973.87018,1926.9257 973.875,1926.9375 C 973.87775,1926.9435 973.90315,1926.9627 973.90625,1926.9688 C 973.91313,1926.9811 973.92924,1927.0184 973.9375,1927.0313 C 975.02493,1928.6116 986.27462,1933.1935 1007.6875,1940.75 C 1028.9191,1948.713 1039.5313,1952.6886 1039.5313,1952.6875 L 1117.1563,2000.4688 C 1123.7911,2003.1238 1131.7736,2015.7238 1141.0625,2038.2813 C 1151.6781,2059.5139 1155.6537,2074.1018 1153,2082.0625 L 1129.0938,2165.6563 L 1101.25,2380.625 L 1131.0938,2565.75 L 1147.0313,2788.6875 L 1131.0938,2961.8438 C 1125.7858,3008.2879 1135.0832,3048.7489 1158.9688,3083.25 C 1165.6034,3093.8658 1182.1791,3104.5093 1208.7188,3115.125 C 1229.95,3121.7599 1250.5327,3128.3652 1270.4375,3135 C 1296.9766,3145.6158 1341.4133,3150.9376 1403.7813,3150.9375 C 1442.2631,3150.9375 1476.7606,3146.9618 1507.2813,3139 C 1533.8202,3119.0954 1551.0688,3100.5007 1559.0313,3083.25 C 1559.0308,3083.25 1569.6741,3077.2866 1590.9063,3065.3438 C 1602.8483,3057.3819 1610.1267,3047.4428 1612.7813,3035.5 C 1620.7425,3002.3258 1624.7182,2973.7918 1624.7188,2949.9063 L 1632.6875,2693.125 L 1628.7188,2515.9688 L 1600.8438,2243.2813 L 1612.7813,2078.0938 C 1614.1076,2056.8633 1618.0834,2041.6024 1624.7188,2032.3125 L 1674.5,1986.5313 C 1675.8264,1985.2054 1689.0994,1979.2107 1714.3125,1968.5938 C 1733.5562,1960.4919 1745.4443,1955.1292 1750,1952.4375 C 1758.2223,1955.8333 1762.7057,1957.8939 1763.4688,1958.6563 L 1817.2188,1994.4688 C 1837.1232,2009.0666 1847.0624,2025.6735 1847.0625,2044.25 L 1841.0938,2279.125 L 1817.2188,2629.4375 L 1821.1875,2734.9375 L 1843.0938,2928 C 1851.0554,2990.3678 1851.0554,3023.5504 1843.0938,3027.5313 L 1755.5,3091.2188 C 1754.173,3093.8728 1738.9121,3101.8553 1709.7188,3115.125 C 1682.9202,3126.088 1668.4171,3132.5763 1666.2188,3134.5938 C 1666.1297,3134.678 1666.0445,3134.7757 1666,3134.8438 C 1665.992,3134.857 1665.975,3134.8936 1665.9688,3134.9063 C 1665.9607,3134.9247 1665.9415,3134.9517 1665.9375,3134.9688 C 1665.9366,3134.9743 1665.9379,3134.9947 1665.9375,3135 C 1665.9375,3135 1705.0838,3135 1783.375,3135 L 2044.125,3135 C 2131.7046,3135 2175.4997,3135 2175.5,3135 C 2175.4992,3134.9946 2175.5015,3134.9744 2175.5,3134.9688 C 2175.4977,3134.9628 2175.4718,3134.9437 2175.4688,3134.9375 C 2175.4611,3134.9247 2175.4483,3134.8888 2175.4375,3134.875 C 2173.9106,3133.1075 2148.6924,3123.8679 2099.8438,3107.1563 C 2051.1291,3090.0404 2025.9366,3080.7525 2024.25,3079.3125 C 2024.2441,3079.3071 2024.2239,3079.2864 2024.2188,3079.2813 L 1984.4063,3065.3438 C 1975.1172,3061.363 1970.4685,3046.1021 1970.4688,3019.5625 L 1970.4688,2904.125 L 1938.625,2661.2813 L 1970.4688,2486.125 L 2004.3125,2486.125 C 2109.1428,2486.1256 2162.8768,2490.1013 2165.5313,2498.0625 L 2179.4688,2517.9688 C 2179.4739,2517.9739 2179.4947,2517.9942 2179.5,2518 C 2180.8779,2519.6464 2186.1897,2542.2091 2195.4063,2585.6563 C 2205.6898,2626.7929 2211.6202,2647.9961 2213.1875,2649.2813 C 2213.1937,2649.2858 2213.2127,2649.3086 2213.2188,2649.3125 C 2213.2305,2649.319 2213.27,2649.3399 2213.2813,2649.3438 C 2213.2867,2649.345 2213.3072,2649.3431 2213.3125,2649.3438 C 2210.6589,2520.666 2211.9768,2439.7245 2217.2813,2406.5313 C 2217.2816,2406.5334 2217.3121,2406.5301 2217.3125,2406.5313 C 2217.5129,2405.8088 2220.822,2373.9593 2227.25,2310.9688 C 2232.4952,2251.9558 2234.484,2222.0986 2233.25,2221.4063 C 2233.2449,2221.4053 2233.2239,2221.4063 2233.2188,2221.4063 C 2230.5642,2221.4071 2224.6007,2244.6195 2215.3125,2291.0625 C 2206.1683,2335.4753 2200.8658,2358.6772 2199.4375,2360.6563 C 2199.4209,2360.6778 2199.3905,2360.7032 2199.375,2360.7188 L 2165.5313,2390.5938 C 2156.2419,2397.2293 2102.508,2400.5318 2004.3125,2400.5313 L 1970.4688,2400.5313 L 1964.5,2283.0938 L 1960.5313,2223.375 L 1970.4688,2008.4063 C 2051.4475,2052.8151 2119.6073,2106.8718 2174.875,2170.5625 C 2150.3951,2130.5068 2120.0919,2075.1408 2083.9375,2004.4375 C 2122.4192,2003.1117 2143.6436,2009.7482 2147.625,2024.3438 L 2171.5,2119.875 C 2175.3087,2139.8728 2178.7805,2159.8783 2181.9063,2179.875 C 2188.842,2189.6957 2195.591,2199.5236 2202.1563,2209.3438 L 2213.3125,2008.4063 L 2220.3438,1936.4375 C 2228.9227,1940.1419 2240.3293,1944.8893 2254.5625,1950.6875 C 2291.4273,1963.8547 2310.6557,1971.1544 2312.25,1972.5625 C 2312.2557,1972.5679 2312.2761,1972.5886 2312.2813,1972.5938 L 2364.0313,2000.4688 L 2385.9375,2227.375 L 2375.9688,2478.1563 L 2360.0625,2715.0313 L 2372,3001.6563 C 2373.3269,3024.2149 2368.6782,3038.8028 2358.0625,3045.4375 L 2302.3125,3083.25 C 2300.9855,3085.904 2279.761,3095.2014 2238.625,3111.125 C 2199.7386,3124.9234 2179.2516,3132.8096 2177.125,3134.75 C 2181.1315,3132.2714 2242.7687,3131.0313 2362.0313,3131.0313 L 2517.2813,3135 C 2689.4164,3135 2776.3499,3136.3038 2778.0313,3138.9063 C 2777.9896,3134.7815 2775.3597,3119.5508 2770.0938,3093.2188 L 2770.0938,2939.9375 L 2760.125,2770.75 L 2746.1875,2645.375 L 2728.2813,2834.4688 L 2704.4063,2957.875 L 2654.625,3031.5 L 2549.1563,3019.5625 L 2509.3438,3045.4375 C 2500.0547,3028.187 2495.406,3013.5992 2495.4063,3001.6563 L 2495.4063,2776.7188 L 2485.4375,2635.4063 L 2481.4688,2396.5625 L 2481.4688,2177.5938 L 2499.375,2062.1563 C 2504.6826,2034.2909 2510.0043,2019.03 2515.3125,2016.375 L 2563.0625,1984.5313 C 2563.0625,1984.5157 2563.0874,1984.4865 2563.0938,1984.4688 C 2563.1051,1984.4441 2563.1336,1984.4035 2563.1563,1984.375 C 2564.7314,1982.5556 2587.9383,1973.3015 2632.75,1956.6563 C 2678.105,1938.5152 2701.3116,1928.598 2702.375,1926.9063 C 2702.3821,1926.8932 2702.402,1926.8557 2702.4063,1926.8438 C 2702.4077,1926.838 2702.4055,1926.818 2702.4063,1926.8125 C 2702.4059,1924.1597 2662.5865,1924.1597 2582.9688,1926.8125 C 2504.6772,1929.4676 2463.5433,1931.4556 2459.5625,1932.7813 C 2406.4835,1928.8015 2360.7008,1926.8137 2322.2188,1926.8125 C 2241.2737,1926.8137 2200.8127,1926.8137 2200.8125,1926.8125 C 2200.813,1926.8179 2200.8114,1926.8382 2200.8125,1926.8438 C 2200.8158,1926.8553 2200.8383,1926.8938 2200.8438,1926.9063 L 1783.375,1928.8125 C 1721.9819,1928.8137 1690.8031,1928.1619 1689.8438,1926.875 C 1689.851,1926.8982 1689.8619,1926.9436 1689.875,1926.9688 C 1689.8823,1926.9816 1689.8975,1927.018 1689.9063,1927.0313 C 1691.0577,1928.6756 1702.9837,1933.9028 1725.6563,1942.7188 C 1732.374,1945.3316 1738.1916,1947.6422 1743.125,1949.625 C 1736.5067,1950.2172 1726.2449,1951.9015 1712.3125,1954.6875 C 1687.0994,1958.6695 1673.8263,1960.6574 1672.5,1960.6563 L 1439.625,1960.6563 C 1398.4886,1960.6575 1377.906,1961.9723 1377.9063,1964.625 C 1377.9062,1964.6302 1377.906,1964.651 1377.9063,1964.6563 C 1377.9068,1964.6616 1377.9054,1964.6821 1377.9063,1964.6875 C 1377.9074,1964.693 1377.9361,1964.7132 1377.9375,1964.7188 C 1377.9392,1964.7244 1377.9355,1964.7442 1377.9375,1964.75 C 1377.9511,1964.785 1377.9762,1964.8371 1378,1964.875 C 1379.0245,1966.418 1388.2918,1970.3174 1405.7813,1976.5625 C 1425.6854,1981.8715 1436.2976,1985.2054 1437.625,1986.5313 L 1487.375,2032.3125 C 1511.26,2054.8721 1523.2183,2068.7868 1523.2188,2074.0938 L 1533.1563,2237.3125 C 1525.1938,2253.237 1521.2182,2283.0858 1521.2188,2326.875 C 1521.2183,2358.7231 1523.2061,2395.2396 1527.1875,2436.375 C 1529.8409,2452.2993 1531.8288,2467.5603 1533.1563,2482.1563 C 1515.9052,2556.4672 1512.6025,2634.7598 1523.2188,2717.0313 L 1513.25,2876.25 C 1511.9226,2882.8851 1513.2687,2900.8068 1517.25,2930 C 1519.9035,2949.9047 1517.9156,2965.1655 1511.2813,2975.7813 C 1491.3762,3006.3016 1460.1814,3021.5627 1417.7188,3021.5625 C 1392.5059,3021.5626 1365.9598,3020.2164 1338.0938,3017.5625 C 1311.554,3014.9086 1291.6757,3013.5941 1278.4063,3013.5938 C 1274.4252,2993.6894 1269.1033,2975.1259 1262.4688,2957.875 C 1251.8528,2928.6818 1248.5189,2905.4385 1252.5,2888.1875 L 1266.4375,2826.5 L 1226.625,2482.1563 L 1242.5625,2263.1875 L 1252.5,2044.25 C 1253.8267,2013.7308 1264.4703,1986.5116 1284.375,1962.625 C 1284.3755,1962.6197 1284.374,1962.5993 1284.375,1962.5938 C 1284.3765,1962.5881 1284.3731,1962.5683 1284.375,1962.5625 C 1284.3799,1962.5505 1284.3994,1962.5126 1284.4063,1962.5 C 1284.4373,1962.4482 1284.5003,1962.3747 1284.5625,1962.3125 C 1286.5367,1960.4165 1302.3923,1953.8695 1332.125,1942.7188 C 1346.7214,1937.412 1361.3405,1932.1216 1375.9375,1926.8125 L 1129.3438,1928.8125 C 1129.4516,1928.812 1129.5257,1928.7826 1129.5938,1928.7813 C 1127.2715,1928.6369 1100.5883,1927.9746 1049.5,1926.8125 C 1022.7118,1925.4032 1003.0257,1924.7244 990.46875,1924.8125 z M 2202.1563,2209.3438 L 2202,2212.0313 C 2206.778,2218.704 2211.221,2224.4731 2215.3125,2229.3438 C 2211.0203,2222.6677 2206.6196,2216.02 2202.1563,2209.3438 z M 2202,2212.0313 C 2195.9904,2203.6385 2189.4394,2193.8375 2182.3438,2182.5938 C 2183.422,2189.5602 2184.4422,2196.5024 2185.4375,2203.4688 C 2193.2901,2257.1316 2198.5916,2284.3296 2201.2813,2285.0625 C 2200.0456,2284.1218 2200.0787,2263.5477 2201.375,2223.375 L 2202,2212.0313 z M 2201.2813,2285.0625 C 2201.2972,2285.0669 2201.2967,2285.0913 2201.3125,2285.0938 C 2201.3024,2285.09 2201.2912,2285.0688 2201.2813,2285.0625 z M 2182.3438,2182.5938 C 2182.204,2181.691 2182.0474,2180.7778 2181.9063,2179.875 C 2180.4365,2177.794 2178.9863,2175.7061 2177.5,2173.625 C 2176.6536,2172.6375 2175.79,2171.6704 2174.9375,2170.6875 C 2177.4615,2174.8162 2179.944,2178.7911 2182.3438,2182.5938 z M 3162.0625,1928.75 C 3161.6922,1928.7513 3161.3525,1928.7918 3161,1928.8125 C 3149.0569,1928.8137 3139.0864,1936.7649 3131.125,1952.6875 C 3121.8359,1972.5932 3112.5697,1985.1932 3103.2813,1990.5 C 3095.3192,1994.482 3066.7852,2005.7672 3017.6875,2024.3438 C 2981.8591,2038.9416 2961.2764,2050.8686 2955.9688,2060.1563 C 2918.8135,2138.4485 2887.6187,2200.165 2862.4063,2245.2813 C 2847.8095,2339.4969 2835.2095,2407.8501 2824.5938,2450.3125 C 2824.5937,2450.3132 2824.5938,2478.1742 2824.5938,2533.9063 C 2824.5937,2640.0643 2831.2303,2705.7255 2844.5,2730.9375 C 2873.6932,2794.6324 2900.9125,2846.4098 2926.125,2886.2188 C 2946.0295,2945.9325 2959.9443,2995.0179 2967.9063,3033.5 C 3068.7557,3101.1755 3133.1333,3135 3161,3135 C 3160.9997,3135 3166.9632,3129.7095 3178.9063,3119.0938 C 3190.8486,3107.1511 3201.4608,3100.5146 3210.75,3099.1875 C 3250.5587,3092.5527 3279.7656,3087.2311 3298.3438,3083.25 C 3310.2859,3067.3264 3328.1766,3036.1627 3352.0625,2989.7188 C 3377.2743,2941.9479 3391.8936,2910.0802 3395.875,2894.1563 C 3397.2014,2882.2137 3411.7893,2844.4138 3439.6563,2780.7188 C 3468.8489,2715.6977 3484.1099,2674.5634 3485.4375,2657.3125 C 3485.4368,2646.6972 3489.4123,2624.7999 3497.375,2591.625 C 3506.663,2557.1244 3511.3117,2534.554 3511.3125,2523.9375 C 3511.3117,2511.9954 3507.9777,2486.7953 3501.3438,2448.3125 C 3496.0351,2408.5041 3493.4055,2382.6309 3493.4063,2370.6875 C 3488.0978,2334.8601 3466.2002,2285.7434 3427.7188,2223.375 C 3426.3911,2216.7411 3417.0938,2204.8141 3399.8438,2187.5625 C 3383.9196,2170.3128 3375.9683,2157.7128 3375.9688,2149.75 C 3356.0635,2104.6341 3343.4323,2069.4635 3338.125,2044.25 C 3244.0755,1967.1832 3185.3907,1928.6696 3162.0625,1928.75 z M 3160.2188,2006.4375 C 3160.4847,2006.4226 3160.746,2006.4375 3161,2006.4375 C 3168.9615,2006.4386 3185.5372,2017.6926 3210.75,2040.25 C 3237.289,2061.4826 3253.2228,2078.7626 3258.5313,2092.0313 C 3261.1847,2097.3402 3271.124,2111.928 3288.375,2135.8125 C 3305.6251,2159.699 3314.9225,2180.2503 3316.25,2197.5 C 3318.9034,2213.4245 3326.1817,2240.6437 3338.125,2279.125 C 3351.3941,2316.281 3358.0307,2340.8082 3358.0313,2352.75 C 3358.0306,2358.0587 3358.7037,2379.956 3360.0313,2418.4375 C 3361.3576,2456.9203 3362.0307,2485.4542 3362.0313,2504.0313 C 3362.0307,2580.996 3362.0307,2619.5005 3362.0313,2619.5 C 3354.0688,2729.639 3346.0863,2807.2584 3338.125,2852.375 C 3336.7975,2874.9338 3322.2096,2895.485 3294.3438,2914.0625 C 3278.4196,2923.3515 3262.517,2933.3219 3246.5938,2943.9375 C 3239.9585,2950.5725 3224.6977,2971.7969 3200.8125,3007.625 C 3180.9076,3038.1454 3167.6345,3053.4062 3161,3053.4063 C 3153.0378,3053.4063 3136.431,3043.4672 3111.2188,3023.5625 C 3086.0061,3003.6581 3070.7451,2989.712 3065.4375,2981.75 C 3060.1293,2973.7883 3050.1902,2951.8909 3035.5938,2916.0625 C 3017.0159,2873.5997 3006.4037,2843.751 3003.75,2826.5 C 3002.4228,2807.9227 2993.7984,2777.4008 2977.875,2734.9375 C 2963.2782,2692.4749 2955.9685,2659.9653 2955.9688,2637.4063 C 2950.6607,2580.347 2946.0119,2538.54 2942.0313,2512 C 2947.3389,2436.3634 2950.6728,2389.2658 2952,2370.6875 C 2953.3268,2352.1107 2961.2781,2326.8794 2975.875,2295.0313 C 2990.4715,2263.1849 2998.4227,2238.6576 2999.75,2221.4063 C 3022.3083,2160.3666 3042.8909,2115.8986 3061.4688,2088.0313 C 3069.4304,2073.4356 3085.3642,2056.187 3109.25,2036.2813 C 3133.7727,2016.9221 3150.7602,2006.9679 3160.2188,2006.4375 z M 5403.0313,3197.6563 C 5401.4201,3200.5298 5400.709,3202.173 5400.9375,3202.5938 C 5400.9526,3202.6151 5400.9789,3202.6429 5401,3202.6563 C 5401.0308,3202.6705 5401.0835,3202.6875 5401.125,3202.6875 C 5402.7318,3202.6875 5403.3702,3201.0031 5403.0313,3197.6563 z "
       id="text19031" />
  </g>
</svg>
