<?xml version="1.0" encoding="UTF-8" standalone="no"?>
<!-- Created with Inkscape (http://www.inkscape.org/) -->
<svg
   xmlns:dc="http://purl.org/dc/elements/1.1/"
   xmlns:cc="http://web.resource.org/cc/"
   xmlns:rdf="http://www.w3.org/1999/02/22-rdf-syntax-ns#"
   xmlns:svg="http://www.w3.org/2000/svg"
   xmlns="http://www.w3.org/2000/svg"
   xmlns:xlink="http://www.w3.org/1999/xlink"
   xmlns:sodipodi="http://inkscape.sourceforge.net/DTD/sodipodi-0.dtd"
   xmlns:inkscape="http://www.inkscape.org/namespaces/inkscape"
   width="6400"
   height="4800"
   id="svg1306"
   sodipodi:version="0.32"
   inkscape:version="0.43"
   sodipodi:docbase="L:\home\paniq\devel\neuro\demo\res"
   sodipodi:docname="scene4.svg"
   version="1.0">
  <defs
     id="defs1308">
    <linearGradient
       inkscape:collect="always"
       id="linearGradient12819">
      <stop
         style="stop-color:#000000;stop-opacity:1;"
         offset="0"
         id="stop12821" />
      <stop
         style="stop-color:#000000;stop-opacity:0;"
         offset="1"
         id="stop12823" />
    </linearGradient>
    <linearGradient
       id="linearGradient2967">
      <stop
         style="stop-color:#809dc9;stop-opacity:1;"
         offset="0"
         id="stop2969" />
      <stop
         style="stop-color:#001c66;stop-opacity:1;"
         offset="1"
         id="stop2971" />
    </linearGradient>
    <radialGradient
       inkscape:collect="always"
       xlink:href="#linearGradient2967"
       id="radialGradient2975"
       cx="4.9612255"
       cy="554.69659"
       fx="4.9612255"
       fy="554.69659"
       r="321.2403"
       gradientTransform="matrix(1.959604,-1.039323e-2,7.620626e-3,1.454567,-9.011896,-331.4489)"
       gradientUnits="userSpaceOnUse" />
    <linearGradient
       inkscape:collect="always"
       xlink:href="#linearGradient12819"
       id="linearGradient12825"
       x1="1694.8372"
       y1="-1115.2026"
       x2="1694.8325"
       y2="-1117.7974"
       gradientUnits="userSpaceOnUse"
       gradientTransform="translate(-3093.782,-1289.073)" />
  </defs>
  <sodipodi:namedview
     id="base"
     pagecolor="#ff0000"
     bordercolor="#666666"
     borderopacity="1.0"
     inkscape:pageopacity="1"
     inkscape:pageshadow="2"
     inkscape:zoom="0.16125"
     inkscape:cx="3200"
     inkscape:cy="2400"
     inkscape:current-layer="layer1"
     inkscape:document-units="px"
     inkscape:window-width="1280"
     inkscape:window-height="939"
     inkscape:window-x="-4"
     inkscape:window-y="-4" />
  <metadata
     id="metadata1311">
    <rdf:RDF>
      <cc:Work
         rdf:about="">
        <dc:format>image/svg+xml</dc:format>
        <dc:type
           rdf:resource="http://purl.org/dc/dcmitype/StillImage" />
      </cc:Work>
    </rdf:RDF>
  </metadata>
  <g
     id="layer1"
     inkscape:label="Layer 1"
     inkscape:groupmode="layer">
    <path
       style="font-size:988.5657959px;font-style:normal;font-variant:normal;font-weight:normal;font-stretch:normal;text-align:start;line-height:125%;writing-mode:lr-tb;text-anchor:start;fill:#ffffff;fill-opacity:1;stroke:none;stroke-width:1px;stroke-linecap:butt;stroke-linejoin:miter;stroke-opacity:1;font-family:Arial Black"
       d="M 6372.9845,2665.0544 L 6189.5592,2665.0544 L 6189.5592,2590.2362 C 6163.172,2621.4502 6136.6236,2643.6543 6109.914,2656.8486 C 6082.8833,2670.0418 6050.3816,2676.6387 6012.409,2676.6392 C 5971.541,2676.6387 5939.2003,2669.3982 5915.3867,2654.9178 C 5891.5741,2640.4364 5872.1053,2618.8759 5856.9802,2590.2362 C 5826.0881,2623.7028 5797.9308,2646.3896 5772.508,2658.2967 C 5747.0866,2670.5245 5715.7113,2676.6387 5678.3819,2676.6392 C 5623.3551,2676.6387 5580.395,2660.227 5549.5015,2627.404 C 5518.6097,2594.9019 5503.1634,2543.8968 5503.1625,2474.3887 L 5503.1625,2152.429 L 5700.1033,2152.429 L 5700.1033,2444.4614 C 5700.104,2467.6306 5704.6092,2484.8468 5713.6188,2496.1101 C 5726.8133,2513.8087 5743.225,2522.6581 5762.8541,2522.6585 C 5786.0242,2522.6581 5804.6885,2514.2914 5818.847,2497.5582 C 5833.0068,2480.8243 5840.0863,2453.9542 5840.0858,2416.9476 L 5840.0858,2152.429 L 6037.0266,2152.429 L 6037.0266,2434.8074 C 6037.027,2457.333 6038.3142,2472.6185 6040.8882,2480.6638 C 6045.072,2493.5354 6052.3124,2503.8329 6062.6096,2511.5564 C 6072.9075,2519.601 6084.975,2523.6235 6098.812,2523.6239 C 6121.3382,2523.6235 6139.8416,2515.0959 6154.3222,2498.0409 C 6168.8035,2480.9852 6176.0439,2452.9888 6176.0437,2414.0514 L 6176.0437,2152.429 L 6372.9845,2152.429 L 6372.9845,2665.0544 M 4816.7657,2359.9892 L 5210.6474,2359.9892 C 5207.1078,2328.4528 5198.5802,2304.9615 5185.0644,2289.5153 C 5166.0785,2267.3111 5141.3,2256.209 5110.7288,2256.2091 C 5091.4213,2256.209 5073.0788,2261.036 5055.7013,2270.6901 C 5045.0823,2276.8041 5033.6585,2287.5844 5021.4297,2303.0308 L 4827.8677,2285.171 C 4857.4738,2233.6831 4893.1934,2196.6763 4935.0267,2174.1504 C 4976.861,2151.9463 5036.8764,2140.8443 5115.0731,2140.8443 C 5182.9729,2140.8443 5236.3915,2150.3373 5275.3289,2169.3235 C 5314.2667,2188.6313 5346.6074,2219.0413 5372.3512,2260.5534 C 5397.7734,2302.3871 5410.4844,2351.4614 5410.4844,2407.7763 C 5410.4844,2487.9039 5384.9015,2552.7463 5333.7354,2602.3037 C 5282.2477,2651.8602 5211.2912,2676.6387 5120.8655,2676.6392 C 5047.4958,2676.6387 4989.5721,2665.5366 4947.0942,2643.333 C 4904.6173,2621.1284 4872.2765,2588.9486 4850.0718,2546.7934 C 4827.8684,2504.6374 4816.7663,2449.7708 4816.7657,2382.1933 L 4816.7657,2359.9892 M 5016.6027,2454.1154 C 5020.4647,2492.0873 5030.7623,2519.2792 5047.4954,2535.6913 C 5063.9075,2552.1027 5085.6289,2560.3085 5112.6596,2560.309 C 5143.8744,2560.3085 5168.8138,2547.9193 5187.4778,2523.1412 C 5199.3846,2507.6945 5206.9469,2484.6859 5210.1647,2454.1154 L 5016.6027,2454.1154 M 4718.2953,2860.0645 L 4521.8371,2860.0645 L 4521.8371,2726.3571 L 4718.2953,2726.3571 L 4718.2953,2860.0645 M 4718.2953,2665.0544 L 4521.8371,2665.0544 L 4521.8371,2152.429 L 4718.2953,2152.429 L 4718.2953,2665.0544 M 4395.3702,2665.0544 L 4212.4276,2665.0544 L 4212.4276,2581.5477 C 4185.075,2615.6579 4157.4003,2639.9537 4129.4035,2654.4351 C 4101.4074,2669.2373 4067.2968,2676.6387 4027.0715,2676.6392 C 3972.688,2676.6387 3930.2106,2660.3879 3899.6392,2627.8867 C 3868.7471,2595.7064 3853.3008,2545.8276 3853.3002,2478.2503 L 3853.3002,2152.429 L 4050.7237,2152.429 L 4050.7237,2434.3247 C 4050.7241,2466.5043 4056.6774,2489.1911 4068.5836,2502.3852 C 4080.4905,2515.9004 4097.224,2522.6581 4118.7842,2522.6585 C 4142.5976,2522.6581 4161.9055,2513.6478 4176.7079,2495.6274 C 4191.511,2477.6063 4198.9123,2445.2656 4198.9121,2398.6051 L 4198.9121,2152.429 L 4395.3702,2152.429 L 4395.3702,2665.0544 M 3391.8407,2860.0645 L 3173.1784,2860.0645 L 3173.1784,2326.683 L 2831.9108,2326.683 L 2831.9108,2152.429 L 3391.8407,2152.429 L 3391.8407,2860.0645 M 2175.4413,2359.9892 L 2569.323,2359.9892 C 2565.7835,2328.4528 2557.2558,2304.9615 2543.74,2289.5153 C 2524.7542,2267.3111 2499.9757,2256.209 2469.4045,2256.2091 C 2450.0969,2256.209 2431.7544,2261.036 2414.3769,2270.6901 C 2403.758,2276.8041 2392.3341,2287.5844 2380.1053,2303.0308 L 2186.5434,2285.171 C 2216.1495,2233.6831 2251.8691,2196.6763 2293.7024,2174.1504 C 2335.5367,2151.9463 2395.5521,2140.8443 2473.7488,2140.8443 C 2541.6486,2140.8443 2595.0671,2150.3373 2634.0046,2169.3235 C 2672.9424,2188.6313 2705.2831,2219.0413 2731.0269,2260.5534 C 2756.449,2302.3871 2769.1601,2351.4614 2769.1601,2407.7763 C 2769.1601,2487.9039 2743.5771,2552.7463 2692.411,2602.3037 C 2640.9234,2651.8602 2569.9669,2676.6387 2479.5412,2676.6392 C 2406.1714,2676.6387 2348.2477,2665.5366 2305.7698,2643.333 C 2263.2929,2621.1284 2230.9522,2588.9486 2208.7475,2546.7934 C 2186.544,2504.6374 2175.442,2449.7708 2175.4413,2382.1933 L 2175.4413,2359.9892 M 2375.2784,2454.1154 C 2379.1404,2492.0873 2389.4379,2519.2792 2406.171,2535.6913 C 2422.5832,2552.1027 2444.3046,2560.3085 2471.3353,2560.309 C 2502.5501,2560.3085 2527.4895,2547.9193 2546.1535,2523.1412 C 2558.0603,2507.6945 2565.6226,2484.6859 2568.8403,2454.1154 L 2375.2784,2454.1154 M 2083.246,2860.0645 L 1884.8571,2860.0645 L 1884.8571,2614.8538 C 1865.2276,2635.4485 1843.0235,2650.8948 1818.2447,2661.1929 C 1793.1448,2671.4899 1765.4701,2676.6387 1735.2206,2676.6392 C 1672.7921,2676.6387 1621.1435,2654.1128 1580.2745,2609.0615 C 1539.4067,2564.331 1518.9725,2499.9713 1518.9719,2415.9822 C 1518.9725,2359.989 1528.3046,2310.593 1546.9684,2267.7939 C 1565.6333,2225.3164 1591.538,2193.4583 1624.6828,2172.2196 C 1657.5067,2151.3027 1694.0308,2140.8443 1734.2552,2140.8443 C 1768.6881,2140.8443 1800.2243,2148.2456 1828.8641,2163.0484 C 1850.4249,2174.6331 1873.9162,2196.3545 1899.338,2228.2126 L 1899.338,2152.429 L 2083.246,2152.429 L 2083.246,2860.0645 M 1886.3052,2410.1898 C 1886.3054,2366.1032 1878.0995,2334.0842 1861.6875,2314.1329 C 1844.9543,2294.503 1823.8765,2284.6882 1798.4541,2284.6883 C 1774.9631,2284.6882 1755.3334,2294.3421 1739.5649,2313.6502 C 1723.4754,2333.2797 1715.4304,2366.1032 1715.43,2412.1206 C 1715.4304,2452.667 1723.3145,2482.4333 1739.0822,2501.4198 C 1754.5289,2520.4055 1773.3542,2529.8986 1795.5579,2529.899 C 1822.2675,2529.8986 1844.1498,2519.9228 1861.2048,2499.9717 C 1877.9387,2480.3416 1886.3054,2450.4144 1886.3052,2410.1898 M 854.77921,2359.9892 L 1248.6609,2359.9892 C 1245.1214,2328.4528 1236.5937,2304.9615 1223.0779,2289.5153 C 1204.0921,2267.3111 1179.3136,2256.209 1148.7424,2256.2091 C 1129.4348,2256.209 1111.0923,2261.036 1093.7148,2270.6901 C 1083.0958,2276.8041 1071.672,2287.5844 1059.4432,2303.0308 L 865.88131,2285.171 C 895.48741,2233.6831 931.20701,2196.6763 973.04031,2174.1504 C 1014.8746,2151.9463 1074.89,2140.8443 1153.0867,2140.8443 C 1220.9865,2140.8443 1274.405,2150.3373 1313.3425,2169.3235 C 1352.2802,2188.6313 1384.621,2219.0413 1410.3648,2260.5534 C 1435.7869,2302.3871 1448.498,2351.4614 1448.4979,2407.7763 C 1448.498,2487.9039 1422.915,2552.7463 1371.7489,2602.3037 C 1320.2613,2651.8602 1249.3047,2676.6387 1158.8791,2676.6392 C 1085.5093,2676.6387 1027.5856,2665.5366 985.10771,2643.333 C 942.63081,2621.1284 910.29011,2588.9486 888.08541,2546.7934 C 865.88191,2504.6374 854.77991,2449.7708 854.77921,2382.1933 L 854.77921,2359.9892 M 1054.6163,2454.1154 C 1058.4783,2492.0873 1068.7758,2519.2792 1085.5089,2535.6913 C 1101.9211,2552.1027 1123.6425,2560.3085 1150.6732,2560.309 C 1181.888,2560.3085 1206.8273,2547.9193 1225.4914,2523.1412 C 1237.3982,2507.6945 1244.9605,2484.6859 1248.1782,2454.1154 L 1054.6163,2454.1154 M 763.54931,2665.0544 L 580.60671,2665.0544 L 580.60671,2581.5477 C 553.25411,2615.6579 525.57941,2639.9537 497.58261,2654.4351 C 469.58651,2669.2373 435.47581,2676.6387 395.25061,2676.6392 C 340.86711,2676.6387 298.38971,2660.3879 267.81831,2627.8867 C 236.92621,2595.7064 221.47991,2545.8276 221.47931,2478.2503 L 221.47931,2152.429 L 418.90281,2152.429 L 418.90281,2434.3247 C 418.90321,2466.5043 424.85651,2489.1911 436.76261,2502.3852 C 448.66961,2515.9004 465.40311,2522.6581 486.96321,2522.6585 C 510.77671,2522.6581 530.08461,2513.6478 544.88701,2495.6274 C 559.69001,2477.6063 567.09141,2445.2656 567.09111,2398.6051 L 567.09111,2152.429 L 763.54931,2152.429 L 763.54931,2665.0544"
       id="text13721" />
    <path
       style="font-size:656.27935791px;font-style:normal;font-variant:normal;font-weight:normal;font-stretch:normal;text-align:start;line-height:125%;writing-mode:lr-tb;text-anchor:start;fill:#ffffff;fill-opacity:1;stroke:none;stroke-width:1px;stroke-linecap:butt;stroke-linejoin:miter;stroke-opacity:1;font-family:Arial Black"
       d="M 4390.6518,1780.6759 L 4652.1381,1780.6759 C 4649.7883,1759.7398 4644.127,1744.1446 4635.1543,1733.8904 C 4622.5502,1719.1496 4606.1005,1711.7793 4585.8052,1711.7794 C 4572.9875,1711.7793 4560.8104,1714.9838 4549.274,1721.3929 C 4542.2244,1725.4518 4534.6404,1732.6085 4526.5221,1742.8629 L 4398.0221,1731.0063 C 4417.6767,1696.8251 4441.3899,1672.2573 4469.1618,1657.3031 C 4496.9343,1642.5624 4536.7768,1635.1921 4588.6892,1635.1921 C 4633.7659,1635.1921 4669.2288,1641.4943 4695.0783,1654.0986 C 4720.9279,1666.9165 4742.3979,1687.1048 4759.4885,1714.6634 C 4776.3655,1742.4356 4784.804,1775.0145 4784.8039,1812.4003 C 4784.804,1865.5946 4767.8202,1908.6416 4733.8526,1941.5413 C 4699.6715,1974.4403 4652.5655,1990.89 4592.5346,1990.8904 C 4543.8266,1990.89 4505.3728,1983.5197 4477.173,1968.7794 C 4448.9739,1954.0385 4427.5038,1932.6752 4412.7628,1904.6896 C 4398.0225,1876.7035 4390.6522,1840.2792 4390.6518,1795.4166 L 4390.6518,1780.6759 M 4523.3176,1843.1634 C 4525.8815,1868.3719 4532.7178,1886.4238 4543.8264,1897.3193 C 4554.7219,1908.2143 4569.1421,1913.6619 4587.087,1913.6622 C 4607.8095,1913.6619 4624.366,1905.4371 4636.7566,1888.9876 C 4644.6611,1878.733 4649.6815,1863.4583 4651.8177,1843.1634 L 4523.3176,1843.1634 M 4330.0869,1983.1996 L 4208.6368,1983.1996 L 4208.6368,1927.762 C 4190.4782,1950.4067 4172.1058,1966.5359 4153.5196,1976.1497 C 4134.9338,1985.9765 4112.2888,1990.89 4085.5844,1990.8904 C 4049.4808,1990.89 4021.2814,1980.1016 4000.9859,1958.525 C 3980.4776,1937.1615 3970.2232,1904.0485 3970.2228,1859.1859 L 3970.2228,1642.8829 L 4101.2864,1642.8829 L 4101.2864,1830.025 C 4101.2867,1851.3881 4105.2389,1866.4492 4113.143,1875.2083 C 4121.0477,1884.1807 4132.1566,1888.6669 4146.4697,1888.6672 C 4162.2787,1888.6669 4175.0967,1882.6852 4184.9236,1870.722 C 4194.7509,1858.7584 4199.6644,1837.2884 4199.6642,1806.3118 L 4199.6642,1642.8829 L 4330.0869,1642.8829 L 4330.0869,1983.1996 M 3734.3724,2112.661 L 3734.3724,1983.1996 L 3662.5919,1983.1996 L 3662.5919,1888.0263 L 3734.3724,1888.0263 L 3734.3724,1767.2171 C 3734.3726,1752.6899 3732.984,1743.0765 3730.2066,1738.3767 C 3725.9341,1731.1131 3718.457,1727.4813 3707.7752,1727.4814 C 3698.1619,1727.4813 3684.7031,1730.2585 3667.3986,1735.8131 L 3657.7851,1645.7669 C 3690.0439,1638.717 3720.1661,1635.1921 3748.1517,1635.1921 C 3780.624,1635.1921 3804.5508,1639.3579 3819.9323,1647.6896 C 3835.3139,1656.0213 3846.7432,1668.6256 3854.2203,1685.5026 C 3861.4839,1702.5931 3865.1156,1730.1517 3865.1156,1768.1784 L 3865.1156,1888.0263 L 3913.1829,1888.0263 L 3913.1829,1983.1996 L 3865.1156,1983.1996 L 3865.1156,2045.6872 L 3734.3724,2112.661 M 3455.5819,1983.1996 L 3393.4148,1983.1996 L 3393.4148,1887.7058 L 3455.5819,1887.7058 L 3455.5819,1642.8829 L 3586.325,1642.8829 L 3586.325,1887.7058 L 3635.0333,1887.7058 L 3635.0333,1983.1996 L 3586.325,1983.1996 L 3586.325,1998.5812 C 3586.3251,2012.4669 3584.8297,2027.7416 3581.8387,2044.4054 C 3578.848,2061.0683 3573.2935,2074.6339 3565.1754,2085.1024 C 3556.8438,2095.7835 3545.3077,2104.3288 3530.5669,2110.7383 C 3515.6128,2117.3604 3493.8223,2120.6717 3465.1953,2120.6722 C 3442.3369,2120.6717 3409.117,2118.0013 3365.5357,2112.661 L 3379.9559,2033.8305 C 3395.5514,2036.3937 3408.1557,2037.6755 3417.7689,2037.6759 C 3429.5189,2037.6755 3437.9574,2035.646 3443.0844,2031.5874 C 3448.2117,2027.7416 3451.8435,2021.5463 3453.9796,2013.0014 C 3455.048,2008.3011 3455.5821,1998.3672 3455.5819,1983.1996 M 3226.7813,1872.9652 L 3351.4359,1886.1036 C 3346.736,1907.8939 3340.0066,1924.9844 3331.2476,1937.3754 C 3322.2751,1949.9794 3309.4572,1960.8747 3292.7938,1970.0612 C 3280.8305,1976.6835 3264.3808,1981.8107 3243.4446,1985.4428 C 3222.5088,1989.0742 3199.8638,1990.89 3175.5095,1990.8904 C 3136.415,1990.89 3105.011,1988.6469 3081.2975,1984.161 C 3057.5846,1979.888 3037.8236,1970.8086 3022.0144,1956.9228 C 3010.9059,1947.309 3002.147,1933.6366 2995.7376,1915.9053 C 2989.3291,1898.3872 2986.1246,1881.6171 2986.1242,1865.5949 L 2986.1242,1715.3043 C 2986.1246,1699.2818 2985.1632,1686.6775 2983.2401,1677.4914 C 2981.1042,1668.5188 2976.6179,1656.9826 2969.7813,1642.8829 L 3092.1928,1642.8829 C 3097.1066,1651.6418 3100.3111,1658.2644 3101.8062,1662.7507 C 3103.3019,1667.4506 3104.7974,1674.7141 3106.2925,1684.5412 C 3123.3834,1668.0915 3140.3672,1656.3417 3157.2439,1649.2919 C 3180.3164,1639.892 3207.1273,1635.1921 3237.6766,1635.1921 C 3278.2669,1635.1921 3309.1367,1644.5919 3330.2863,1663.3916 C 3351.2223,1682.1912 3361.6903,1705.3704 3361.6903,1732.929 C 3361.6903,1758.7784 3354.1064,1780.0349 3338.9384,1796.6984 C 3323.7706,1813.3615 3295.7847,1825.7522 3254.9808,1833.8704 C 3206.0591,1843.6973 3174.3347,1850.5336 3159.8075,1854.3792 C 3145.2807,1858.438 3129.8992,1863.672 3113.6628,1870.0812 C 3113.6631,1886.1034 3116.9744,1897.3191 3123.5967,1903.7283 C 3130.2196,1910.137 3141.8626,1913.3415 3158.5257,1913.3418 C 3179.8891,1913.3415 3195.9116,1909.9234 3206.593,1903.0874 C 3214.9249,1897.7463 3221.6543,1887.7056 3226.7813,1872.9652 M 3113.6628,1804.3891 C 3131.6082,1797.98 3150.3011,1792.3187 3169.7414,1787.4053 C 3196.232,1780.3553 3213.0022,1773.4123 3220.0519,1766.5762 C 3227.3155,1759.5262 3230.9473,1751.5149 3230.9471,1742.5425 C 3230.9473,1732.288 3227.4224,1723.8496 3220.3723,1717.227 C 3213.109,1710.818 3202.5342,1707.6135 3188.6479,1707.6136 C 3174.1211,1707.6135 3160.6622,1711.1384 3148.2713,1718.1884 C 3135.6672,1725.2382 3126.8015,1733.7835 3121.6741,1743.8243 C 3116.3335,1754.0785 3113.6631,1767.3237 3113.6628,1783.5599 L 3113.6628,1804.3891 M 2902.8075,2112.661 L 2772.0644,2112.661 L 2772.0644,1642.8829 L 2902.8075,1642.8829 L 2902.8075,2112.661 M 2530.7664,2112.661 L 2530.7664,1983.1996 L 2458.9858,1983.1996 L 2458.9858,1888.0263 L 2530.7664,1888.0263 L 2530.7664,1767.2171 C 2530.7666,1752.6899 2529.378,1743.0765 2526.6006,1738.3767 C 2522.3281,1731.1131 2514.851,1727.4813 2504.1691,1727.4814 C 2494.5559,1727.4813 2481.0971,1730.2585 2463.7926,1735.8131 L 2454.1791,1645.7669 C 2486.4379,1638.717 2516.56,1635.1921 2544.5457,1635.1921 C 2577.018,1635.1921 2600.9448,1639.3579 2616.3263,1647.6896 C 2631.7079,1656.0213 2643.1372,1668.6256 2650.6143,1685.5026 C 2657.8779,1702.5931 2661.5096,1730.1517 2661.5095,1768.1784 L 2661.5095,1888.0263 L 2709.5769,1888.0263 L 2709.5769,1983.1996 L 2661.5095,1983.1996 L 2661.5095,2045.6872 L 2530.7664,2112.661 M 2019.3298,1780.6759 L 2280.8161,1780.6759 C 2278.4663,1759.7398 2272.805,1744.1446 2263.8323,1733.8904 C 2251.2281,1719.1496 2234.7785,1711.7793 2214.4832,1711.7794 C 2201.6654,1711.7793 2189.4884,1714.9838 2177.952,1721.3929 C 2170.9024,1725.4518 2163.3184,1732.6085 2155.2001,1742.8629 L 2026.7001,1731.0063 C 2046.3547,1696.8251 2070.0679,1672.2573 2097.8398,1657.3031 C 2125.6123,1642.5624 2165.4547,1635.1921 2217.3672,1635.1921 C 2262.4439,1635.1921 2297.9068,1641.4943 2323.7562,1654.0986 C 2349.6059,1666.9165 2371.0759,1687.1048 2388.1665,1714.6634 C 2405.0435,1742.4356 2413.4819,1775.0145 2413.4819,1812.4003 C 2413.4819,1865.5946 2396.4982,1908.6416 2362.5306,1941.5413 C 2328.3494,1974.4403 2281.2435,1990.89 2221.2126,1990.8904 C 2172.5046,1990.89 2134.0508,1983.5197 2105.851,1968.7794 C 2077.6518,1954.0385 2056.1818,1932.6752 2041.4407,1904.6896 C 2026.7005,1876.7035 2019.3302,1840.2792 2019.3298,1795.4166 L 2019.3298,1780.6759 M 2151.9956,1843.1634 C 2154.5595,1868.3719 2161.3957,1886.4238 2172.5043,1897.3193 C 2183.3999,1908.2143 2197.8201,1913.6619 2215.765,1913.6622 C 2236.4875,1913.6619 2253.044,1905.4371 2265.4345,1888.9876 C 2273.3391,1878.733 2278.3595,1863.4583 2280.4956,1843.1634 L 2151.9956,1843.1634 M 1801.4246,2112.661 L 1801.4246,1983.1996 L 1729.644,1983.1996 L 1729.644,1888.0263 L 1801.4246,1888.0263 L 1801.4246,1767.2171 C 1801.4248,1752.6899 1800.0362,1743.0765 1797.2588,1738.3767 C 1792.9863,1731.1131 1785.5092,1727.4813 1774.8273,1727.4814 C 1765.2141,1727.4813 1751.7553,1730.2585 1734.4508,1735.8131 L 1724.8373,1645.7669 C 1757.0961,1638.717 1787.2182,1635.1921 1815.2039,1635.1921 C 1847.6762,1635.1921 1871.603,1639.3579 1886.9845,1647.6896 C 1902.3661,1656.0213 1913.7954,1668.6256 1921.2725,1685.5026 C 1928.5361,1702.5931 1932.1678,1730.1517 1932.1677,1768.1784 L 1932.1677,1888.0263 L 1980.2351,1888.0263 L 1980.2351,1983.1996 L 1932.1677,1983.1996 L 1932.1677,2045.6872 L 1801.4246,2112.661 M 1471.6825,1737.0949 L 1342.2212,1749.2719 C 1336.8805,1733.8903 1329.4034,1722.8882 1319.7898,1716.2657 C 1310.1765,1709.643 1297.3585,1706.3317 1281.3359,1706.3318 C 1263.8182,1706.3317 1250.2526,1710.0703 1240.6389,1717.5475 C 1233.162,1723.1018 1229.4234,1730.0449 1229.4232,1738.3767 C 1229.4234,1747.7764 1234.337,1755.0399 1244.1638,1760.1672 C 1251.2139,1763.7988 1269.9068,1768.2851 1300.2424,1773.626 C 1345.5326,1781.5303 1377.0434,1788.7938 1394.7748,1795.4166 C 1412.2928,1802.2526 1427.1402,1813.682 1439.3172,1829.7046 C 1451.2807,1845.7268 1457.2624,1863.9924 1457.2623,1884.5014 C 1457.2624,1906.9325 1450.7466,1926.2662 1437.715,1942.5026 C 1424.6834,1958.7384 1406.7383,1970.8086 1383.8795,1978.7133 C 1361.021,1986.831 1330.3647,1990.89 1291.9107,1990.8904 C 1251.3208,1990.89 1221.4122,1987.7924 1202.185,1981.5974 C 1182.7448,1975.4017 1166.6155,1965.7882 1153.7972,1952.757 C 1140.766,1939.7251 1129.9776,1922.1004 1121.4319,1899.8829 L 1245.1252,1887.7058 C 1248.3299,1898.6008 1253.6707,1906.6121 1261.1476,1911.7395 C 1271.4022,1918.5755 1283.7929,1921.9936 1298.3197,1921.9939 C 1313.0605,1921.9936 1323.8489,1919.3232 1330.685,1913.9827 C 1337.3078,1908.8552 1340.6191,1902.553 1340.6189,1895.0762 C 1340.6191,1886.7443 1336.3464,1880.4421 1327.801,1876.1697 C 1319.2559,1871.8968 1300.6698,1868.0514 1272.0429,1864.6335 C 1228.6757,1859.7198 1196.4172,1852.8835 1175.2673,1844.1248 C 1154.118,1835.3657 1137.9888,1822.8682 1126.8795,1806.6323 C 1115.5574,1790.396 1109.8961,1772.5577 1109.8957,1753.1173 C 1109.8961,1733.463 1115.8778,1714.3429 1127.8409,1695.7569 C 1139.591,1677.1709 1158.2838,1662.3234 1183.9194,1651.2145 C 1209.342,1640.3193 1244.0573,1634.8717 1288.0653,1634.8717 C 1350.2325,1634.8717 1394.5613,1643.7374 1421.0516,1661.4689 C 1447.3285,1679.2004 1464.2054,1704.409 1471.6825,1737.0949 M 1042.6016,2112.661 L 912.17891,2112.661 L 912.17891,2023.8966 L 1042.6016,2023.8966 L 1042.6016,2112.661 M 1042.6016,1983.1996 L 912.17891,1983.1996 L 912.17891,1642.8829 L 1042.6016,1642.8829 L 1042.6016,1983.1996 M 574.42581,1775.8692 L 450.41201,1761.7694 C 457.24871,1735.9198 468.46441,1713.4884 484.05921,1694.4752 C 499.65471,1675.6754 519.62941,1661.0416 543.98311,1650.5737 C 568.12391,1640.1057 598.88701,1634.8717 636.27241,1634.8717 C 672.37651,1634.8717 702.49871,1638.183 726.63901,1644.8056 C 750.56601,1651.6418 771.18151,1662.5371 788.48561,1677.4914 C 805.78991,1692.6592 819.35561,1710.3907 829.18271,1730.6859 C 839.00981,1750.9809 843.92331,1777.8985 843.92331,1811.439 C 843.92331,1846.4745 837.94161,1875.6354 825.97821,1898.9216 C 817.21931,1916.0119 805.25591,1931.2866 790.08791,1944.7457 C 774.92011,1958.4179 759.32491,1968.5655 743.30231,1975.1884 C 717.88021,1985.656 685.30131,1990.89 645.56541,1990.8904 C 590.02121,1990.89 547.72201,1980.9561 518.66771,1961.0886 C 489.40041,1941.2205 468.89171,1912.1665 457.14151,1873.9265 L 579.87341,1857.5836 C 583.71911,1872.1104 590.76891,1883.0057 601.02301,1890.2694 C 611.06401,1897.7463 624.62971,1901.4849 641.72001,1901.4851 C 663.29711,1901.4849 680.81501,1893.6873 694.27371,1878.0924 C 707.51901,1862.7106 714.14171,1839.3179 714.14151,1807.9141 C 714.14171,1779.9281 707.51901,1758.6716 694.27371,1744.1447 C 681.02861,1729.6176 664.15171,1722.3541 643.64271,1722.3542 C 626.55241,1722.3541 612.23901,1726.7336 600.70261,1735.4926 C 588.95311,1744.2514 580.19411,1757.7103 574.42581,1775.8692 M 389.84731,2112.661 L 259.42461,2112.661 L 259.42461,1939.6186 C 241.69331,1957.9907 224.06861,1971.129 206.55051,1979.0338 C 189.03291,1986.9378 168.31051,1990.89 144.38341,1990.8904 C 108.92071,1990.89 81.041712,1980.1016 60.746312,1958.525 C 40.237912,1936.9479 29.983612,1903.8348 29.983212,1859.1859 L 29.983212,1642.8829 L 161.04681,1642.8829 L 161.04681,1830.025 C 161.04701,1851.3881 164.99921,1866.4492 172.90341,1875.2083 C 180.80801,1884.1807 191.91691,1888.6669 206.23011,1888.6672 C 222.03911,1888.6669 234.85701,1882.6852 244.68391,1870.722 C 254.51121,1858.7584 259.42471,1837.2884 259.42461,1806.3118 L 259.42461,1642.8829 L 389.84731,1642.8829 L 389.84731,2112.661"
       id="text13725" />
    <path
       style="font-size:239.06533813px;font-style:normal;font-variant:normal;font-weight:normal;font-stretch:normal;text-align:start;line-height:125%;writing-mode:lr-tb;text-anchor:start;fill:#000000;fill-opacity:1;stroke:none;stroke-width:1px;stroke-linecap:butt;stroke-linejoin:miter;stroke-opacity:1;font-family:Arial Black"
       d="M 3363.2043,2686.6312 L 3363.2043,2730.989 L 3343.1265,2730.989 C 3351.3755,2737.6039 3357.251,2744.2965 3360.7529,2751.0668 C 3364.2549,2757.7595 3366.0058,2766.0084 3366.0058,2775.8138 C 3366.0058,2788.8877 3362.1148,2799.1601 3354.3327,2806.6308 C 3346.4728,2814.0238 3334.4106,2817.7203 3318.1461,2817.7203 L 3239.2358,2817.7203 L 3239.2358,2769.9772 L 3307.4068,2769.9772 C 3315.1889,2769.9773 3320.7142,2768.5376 3323.9826,2765.6582 C 3327.2511,2762.7789 3328.8854,2758.7322 3328.8853,2753.5182 C 3328.8854,2747.8373 3326.7064,2743.207 3322.3484,2739.6271 C 3317.9905,2735.9697 3310.1695,2734.1409 3298.8854,2734.1408 L 3239.2358,2734.1408 L 3239.2358,2686.6312 L 3363.2043,2686.6312 M 3239.2358,2657.5652 L 3239.2358,2613.3241 L 3259.4303,2613.3241 C 3251.1814,2606.7094 3245.306,2600.0168 3241.8039,2593.2463 C 3238.2243,2586.476 3236.4344,2578.227 3236.4343,2568.4993 C 3236.4344,2555.3477 3240.3643,2545.0754 3248.2241,2537.6823 C 3256.0063,2530.2117 3268.0685,2526.4763 3284.4108,2526.4761 L 3363.2043,2526.4761 L 3363.2043,2574.2192 L 3295.0333,2574.2192 C 3287.2513,2574.2192 3281.7649,2575.6589 3278.5742,2578.5382 C 3275.3058,2581.4177 3273.6716,2585.4643 3273.6715,2590.6782 C 3273.6716,2596.437 3275.8506,2601.1063 3280.2084,2604.686 C 3284.5665,2608.2658 3292.3875,2610.0557 3303.6714,2610.0556 L 3363.2043,2610.0556 L 3363.2043,2657.5652 L 3239.2358,2657.5652 M 3192.0764,2367.3716 L 3363.2043,2367.3716 L 3363.2043,2411.8462 L 3344.8775,2411.8462 C 3352.6596,2418.0719 3357.9125,2423.7528 3360.6362,2428.8889 C 3364.2159,2435.7372 3366.0058,2443.3636 3366.0058,2451.7682 C 3366.0058,2468.6554 3359.5856,2481.5736 3346.7452,2490.5229 C 3333.9048,2499.3945 3318.3017,2503.8303 3299.936,2503.8303 C 3279.3914,2503.8303 3263.6716,2498.9276 3252.7766,2489.1222 C 3241.8818,2479.239 3236.4344,2466.7098 3236.4343,2451.5347 C 3236.4344,2444.1418 3237.6795,2437.4493 3240.1697,2431.457 C 3242.6601,2425.3871 3246.3954,2420.0174 3251.3759,2415.3481 L 3192.0764,2415.3481 L 3192.0764,2367.3716 M 3300.8699,2414.9979 C 3291.1423,2414.998 3283.905,2417.0602 3279.1579,2421.1847 C 3274.3331,2425.3092 3271.9206,2430.5232 3271.9205,2436.8266 C 3271.9206,2442.352 3274.2163,2446.9823 3278.8077,2450.7176 C 3283.3992,2454.4531 3291.1034,2456.3208 3301.9204,2456.3207 C 3312.0372,2456.3208 3319.4691,2454.4142 3324.2161,2450.6009 C 3328.8854,2446.7099 3331.22,2441.924 3331.2199,2436.243 C 3331.22,2430.173 3328.8464,2425.1147 3324.0993,2421.0679 C 3319.3523,2417.0213 3311.6092,2414.998 3300.8699,2414.9979"
       id="text14602" />
    <path
       style="font-size:42.03397369px;font-style:normal;font-variant:normal;font-weight:normal;font-stretch:normal;text-align:start;line-height:125%;writing-mode:lr-tb;text-anchor:start;fill:#000000;fill-opacity:1;stroke:none;stroke-width:1px;stroke-linecap:butt;stroke-linejoin:miter;stroke-opacity:1;font-family:Arial Black"
       d="M 2871.1297,2300.9343 L 2854.3818,2300.9343 C 2854.5323,2302.2753 2854.8949,2303.2741 2855.4696,2303.9309 C 2856.2768,2304.875 2857.3304,2305.3471 2858.6303,2305.3471 C 2859.4513,2305.3471 2860.2312,2305.1418 2860.9701,2304.7314 C 2861.4216,2304.4714 2861.9074,2304.013 2862.4273,2303.3562 L 2870.6576,2304.1156 C 2869.3988,2306.3049 2867.88,2307.8784 2866.1012,2308.8362 C 2864.3224,2309.7804 2861.7705,2310.2524 2858.4456,2310.2524 C 2855.5585,2310.2524 2853.2871,2309.8488 2851.6315,2309.0415 C 2849.9759,2308.2205 2848.6007,2306.9275 2847.5061,2305.1624 C 2846.4251,2303.3836 2845.8847,2301.2969 2845.8847,2298.9024 C 2845.8847,2295.4954 2846.9725,2292.7383 2849.148,2290.6311 C 2851.3373,2288.5239 2854.3544,2287.4704 2858.1993,2287.4703 C 2861.319,2287.4704 2863.7819,2287.9424 2865.5881,2288.8865 C 2867.3942,2289.8307 2868.7693,2291.1989 2869.7135,2292.9914 C 2870.6576,2294.7839 2871.1297,2297.1168 2871.1297,2299.9902 L 2871.1297,2300.9343 M 2862.6326,2296.9321 C 2862.4684,2295.3175 2862.0305,2294.1613 2861.319,2293.4635 C 2860.6212,2292.7656 2859.6976,2292.4167 2858.5482,2292.4167 C 2857.221,2292.4167 2856.1605,2292.9435 2855.3669,2293.9971 C 2854.8607,2294.6539 2854.5391,2295.6322 2854.4023,2296.9321 L 2862.6326,2296.9321 M 2875.0088,2287.9629 L 2882.7875,2287.9629 L 2882.7875,2291.5136 C 2883.9506,2290.0633 2885.1273,2289.0302 2886.3177,2288.4145 C 2887.5081,2287.7851 2888.9585,2287.4704 2890.6689,2287.4703 C 2892.9813,2287.4704 2894.7875,2288.1613 2896.0874,2289.5433 C 2897.4009,2290.9116 2898.0577,2293.0325 2898.0577,2295.9059 L 2898.0577,2309.7598 L 2889.6632,2309.7598 L 2889.6632,2297.7736 C 2889.6632,2296.4053 2889.4101,2295.4407 2888.9038,2294.8796 C 2888.3975,2294.305 2887.686,2294.0176 2886.7693,2294.0176 C 2885.7567,2294.0176 2884.9357,2294.4008 2884.3063,2295.167 C 2883.6769,2295.9332 2883.3622,2297.3084 2883.3622,2299.2924 L 2883.3622,2309.7598 L 2875.0088,2309.7598 L 2875.0088,2287.9629 M 2913.1637,2279.6711 L 2913.1637,2287.9629 L 2917.7611,2287.9629 L 2917.7611,2294.0587 L 2913.1637,2294.0587 L 2913.1637,2301.7964 C 2913.1636,2302.7268 2913.2526,2303.3425 2913.4305,2303.6436 C 2913.7041,2304.1088 2914.183,2304.3414 2914.8672,2304.3414 C 2915.4829,2304.3414 2916.3449,2304.1635 2917.4533,2303.8078 L 2918.069,2309.5751 C 2916.0028,2310.0266 2914.0736,2310.2524 2912.2811,2310.2524 C 2910.2013,2310.2524 2908.6688,2309.9856 2907.6836,2309.452 C 2906.6985,2308.9183 2905.9664,2308.111 2905.4875,2307.0301 C 2905.0223,2305.9355 2904.7897,2304.1704 2904.7897,2301.7348 L 2904.7897,2294.0587 L 2901.711,2294.0587 L 2901.711,2287.9629 L 2904.7897,2287.9629 L 2904.7897,2283.9607 L 2913.1637,2279.6711 M 2936.8899,2287.9629 L 2944.7097,2287.9629 L 2944.7097,2308.5489 L 2944.7302,2309.5135 C 2944.7302,2310.8818 2944.436,2312.1817 2943.8476,2313.4132 C 2943.2729,2314.6583 2942.4998,2315.664 2941.5284,2316.4303 C 2940.5705,2317.1965 2939.3459,2317.7507 2937.8545,2318.0927 C 2936.3767,2318.4348 2934.68,2318.6058 2932.7645,2318.6058 C 2928.3859,2318.6058 2925.3757,2317.9491 2923.7337,2316.6355 C 2922.1054,2315.3219 2921.2913,2313.5637 2921.2913,2311.3607 C 2921.2913,2311.0871 2921.305,2310.7176 2921.3324,2310.2524 L 2929.4395,2311.176 C 2929.6447,2311.9286 2929.9594,2312.4485 2930.3836,2312.7359 C 2930.9993,2313.16 2931.7724,2313.3721 2932.7029,2313.3721 C 2933.907,2313.3721 2934.8032,2313.0506 2935.3916,2312.4075 C 2935.9936,2311.7644 2936.2946,2310.6424 2936.2947,2309.0415 L 2936.2947,2305.737 C 2935.4737,2306.7085 2934.6527,2307.4132 2933.8317,2307.8511 C 2932.5455,2308.5352 2931.1567,2308.8773 2929.6653,2308.8773 C 2926.7508,2308.8773 2924.3973,2307.6048 2922.6049,2305.0597 C 2921.3324,2303.2536 2920.6961,2300.8659 2920.6961,2297.8967 C 2920.6961,2294.5034 2921.5171,2291.9173 2923.159,2290.1385 C 2924.801,2288.3597 2926.9492,2287.4704 2929.6037,2287.4703 C 2931.3004,2287.4704 2932.696,2287.7577 2933.7907,2288.3324 C 2934.899,2288.9071 2935.932,2289.858 2936.8899,2291.1852 L 2936.8899,2287.9629 M 2929.029,2298.533 C 2929.029,2300.1065 2929.3642,2301.2764 2930.0347,2302.0427 C 2930.7052,2302.7952 2931.5877,2303.1715 2932.6824,2303.1715 C 2933.7222,2303.1715 2934.5911,2302.7815 2935.289,2302.0016 C 2936.0005,2301.208 2936.3562,2300.0176 2936.3562,2298.4304 C 2936.3562,2296.8432 2935.9868,2295.6322 2935.2479,2294.7975 C 2934.509,2293.9492 2933.6059,2293.525 2932.5387,2293.525 C 2931.4714,2293.525 2930.6162,2293.915 2929.9731,2294.6949 C 2929.3437,2295.4612 2929.029,2296.7405 2929.029,2298.533 M 2950.0871,2279.6711 L 2958.461,2279.6711 L 2958.461,2309.7598 L 2950.0871,2309.7598 L 2950.0871,2279.6711 M 2988.0367,2300.9343 L 2971.2888,2300.9343 C 2971.4393,2302.2753 2971.8019,2303.2741 2972.3766,2303.9309 C 2973.1838,2304.875 2974.2374,2305.3471 2975.5373,2305.3471 C 2976.3583,2305.3471 2977.1382,2305.1418 2977.8771,2304.7314 C 2978.3286,2304.4714 2978.8144,2304.013 2979.3343,2303.3562 L 2987.5646,2304.1156 C 2986.3058,2306.3049 2984.7869,2307.8784 2983.0082,2308.8362 C 2981.2294,2309.7804 2978.6775,2310.2524 2975.3526,2310.2524 C 2972.4655,2310.2524 2970.1941,2309.8488 2968.5385,2309.0415 C 2966.8828,2308.2205 2965.5077,2306.9275 2964.4131,2305.1624 C 2963.3321,2303.3836 2962.7917,2301.2969 2962.7917,2298.9024 C 2962.7917,2295.4954 2963.8794,2292.7383 2966.055,2290.6311 C 2968.2443,2288.5239 2971.2614,2287.4704 2975.1063,2287.4703 C 2978.226,2287.4704 2980.6889,2287.9424 2982.4951,2288.8865 C 2984.3012,2289.8307 2985.6763,2291.1989 2986.6205,2292.9914 C 2987.5646,2294.7839 2988.0366,2297.1168 2988.0367,2299.9902 L 2988.0367,2300.9343 M 2979.5396,2296.9321 C 2979.3754,2295.3175 2978.9375,2294.1613 2978.226,2293.4635 C 2977.5282,2292.7656 2976.6046,2292.4167 2975.4552,2292.4167 C 2974.128,2292.4167 2973.0675,2292.9435 2972.2739,2293.9971 C 2971.7677,2294.6539 2971.4461,2295.6322 2971.3093,2296.9321 L 2979.5396,2296.9321 M 2992.2237,2279.6711 L 3000.5771,2279.6711 L 3000.5771,2285.3563 L 2992.2237,2285.3563 L 2992.2237,2279.6711 M 2992.2237,2287.9629 L 3000.5771,2287.9629 L 3000.5771,2309.7598 L 2992.2237,2309.7598 L 2992.2237,2287.9629 M 3016.0319,2279.6711 L 3016.0319,2287.9629 L 3020.6294,2287.9629 L 3020.6294,2294.0587 L 3016.0319,2294.0587 L 3016.0319,2301.7964 C 3016.0319,2302.7268 3016.1209,2303.3425 3016.2988,2303.6436 C 3016.5724,2304.1088 3017.0513,2304.3414 3017.7355,2304.3414 C 3018.3512,2304.3414 3019.2132,2304.1635 3020.3215,2303.8078 L 3020.9373,2309.5751 C 3018.8711,2310.0266 3016.9418,2310.2524 3015.1494,2310.2524 C 3013.0696,2310.2524 3011.5371,2309.9856 3010.5519,2309.452 C 3009.5668,2308.9183 3008.8347,2308.111 3008.3558,2307.0301 C 3007.8906,2305.9355 3007.658,2304.1704 3007.658,2301.7348 L 3007.658,2294.0587 L 3004.5793,2294.0587 L 3004.5793,2287.9629 L 3007.658,2287.9629 L 3007.658,2283.9607 L 3016.0319,2279.6711 M 3048.7889,2300.9343 L 3032.041,2300.9343 C 3032.1915,2302.2753 3032.5541,2303.2741 3033.1288,2303.9309 C 3033.9361,2304.875 3034.9896,2305.3471 3036.2895,2305.3471 C 3037.1105,2305.3471 3037.8904,2305.1418 3038.6293,2304.7314 C 3039.0808,2304.4714 3039.5666,2304.013 3040.0865,2303.3562 L 3048.3168,2304.1156 C 3047.058,2306.3049 3045.5392,2307.8784 3043.7604,2308.8362 C 3041.9816,2309.7804 3039.4297,2310.2524 3036.1048,2310.2524 C 3033.2177,2310.2524 3030.9463,2309.8488 3029.2907,2309.0415 C 3027.6351,2308.2205 3026.2599,2306.9275 3025.1653,2305.1624 C 3024.0843,2303.3836 3023.5439,2301.2969 3023.5439,2298.9024 C 3023.5439,2295.4954 3024.6317,2292.7383 3026.8073,2290.6311 C 3028.9965,2288.5239 3032.0136,2287.4704 3035.8585,2287.4703 C 3038.9782,2287.4704 3041.4411,2287.9424 3043.2473,2288.8865 C 3045.0534,2289.8307 3046.4286,2291.1989 3047.3727,2292.9914 C 3048.3168,2294.7839 3048.7889,2297.1168 3048.7889,2299.9902 L 3048.7889,2300.9343 M 3040.2918,2296.9321 C 3040.1276,2295.3175 3039.6897,2294.1613 3038.9782,2293.4635 C 3038.2804,2292.7656 3037.3568,2292.4167 3036.2074,2292.4167 C 3034.8802,2292.4167 3033.8197,2292.9435 3033.0261,2293.9971 C 3032.5199,2294.6539 3032.1983,2295.6322 3032.0615,2296.9321 L 3040.2918,2296.9321 M 3062.7455,2279.6711 L 3062.7455,2287.9629 L 3067.343,2287.9629 L 3067.343,2294.0587 L 3062.7455,2294.0587 L 3062.7455,2301.7964 C 3062.7455,2302.7268 3062.8344,2303.3425 3063.0123,2303.6436 C 3063.286,2304.1088 3063.7649,2304.3414 3064.449,2304.3414 C 3065.0647,2304.3414 3065.9268,2304.1635 3067.0351,2303.8078 L 3067.6508,2309.5751 C 3065.5847,2310.0266 3063.6554,2310.2524 3061.8629,2310.2524 C 3059.7831,2310.2524 3058.2506,2309.9856 3057.2655,2309.452 C 3056.2803,2308.9183 3055.5483,2308.111 3055.0694,2307.0301 C 3054.6041,2305.9355 3054.3715,2304.1704 3054.3715,2301.7348 L 3054.3715,2294.0587 L 3051.2929,2294.0587 L 3051.2929,2287.9629 L 3054.3715,2287.9629 L 3054.3715,2283.9607 L 3062.7455,2279.6711 M 3085.4044,2287.9629 L 3093.2037,2287.9629 L 3093.2037,2291.1442 C 3094.3257,2289.817 3095.4545,2288.8729 3096.5902,2288.3118 C 3097.7396,2287.7509 3099.1215,2287.4704 3100.7361,2287.4703 C 3102.4739,2287.4704 3103.849,2287.7782 3104.8616,2288.3939 C 3105.8741,2289.0097 3106.7019,2289.9264 3107.345,2291.1442 C 3108.6585,2289.7212 3109.8558,2288.7565 3110.9368,2288.2503 C 3112.0177,2287.7303 3113.3518,2287.4704 3114.939,2287.4703 C 3117.2788,2287.4704 3119.1055,2288.1682 3120.4191,2289.5638 C 3121.7326,2290.9458 3122.3894,2293.1146 3122.3894,2296.0701 L 3122.3894,2309.7598 L 3114.0154,2309.7598 L 3114.0154,2297.3426 C 3114.0154,2296.3574 3113.8238,2295.6254 3113.4408,2295.1465 C 3112.8797,2294.3939 3112.1819,2294.0176 3111.3473,2294.0176 C 3110.3621,2294.0176 3109.5685,2294.3734 3108.9664,2295.0849 C 3108.3644,2295.7964 3108.0633,2296.9389 3108.0634,2298.5125 L 3108.0634,2309.7598 L 3099.6894,2309.7598 L 3099.6894,2297.7531 C 3099.6894,2296.7953 3099.6347,2296.1453 3099.5252,2295.8032 C 3099.3473,2295.2559 3099.0394,2294.8181 3098.6016,2294.4897 C 3098.1637,2294.1476 3097.6506,2293.9766 3097.0623,2293.9766 C 3096.1045,2293.9766 3095.3177,2294.3392 3094.702,2295.0644 C 3094.0862,2295.7896 3093.7784,2296.98 3093.7784,2298.6356 L 3093.7784,2309.7598 L 3085.4044,2309.7598 L 3085.4044,2287.9629 M 3127.6847,2279.6711 L 3136.0381,2279.6711 L 3136.0381,2285.3563 L 3127.6847,2285.3563 L 3127.6847,2279.6711 M 3127.6847,2287.9629 L 3136.0381,2287.9629 L 3136.0381,2309.7598 L 3127.6847,2309.7598 L 3127.6847,2287.9629 M 3141.4976,2287.9629 L 3149.3174,2287.9629 L 3149.3174,2291.5342 C 3150.07,2289.988 3150.843,2288.9276 3151.6367,2288.3529 C 3152.4439,2287.7645 3153.436,2287.4704 3154.6127,2287.4703 C 3155.8441,2287.4704 3157.1919,2287.8535 3158.656,2288.6197 L 3156.0699,2294.5718 C 3155.0847,2294.1613 3154.3048,2293.9561 3153.7302,2293.956 C 3152.6355,2293.9561 3151.7872,2294.4076 3151.1851,2295.3107 C 3150.3231,2296.5832 3149.8921,2298.964 3149.8921,2302.4531 L 3149.8921,2309.7598 L 3141.4976,2309.7598 L 3141.4976,2287.9629 M 3160.0722,2301.3859 L 3169.0003,2301.3859 L 3169.0003,2309.7598 L 3160.0722,2309.7598 L 3160.0722,2301.3859"
       id="text14623" />
    <path
       style="font-size:1.42835486px;font-style:normal;font-variant:normal;font-weight:normal;font-stretch:normal;text-align:start;line-height:125%;writing-mode:lr-tb;text-anchor:start;fill:#000000;fill-opacity:1;stroke:none;stroke-width:1px;stroke-linecap:butt;stroke-linejoin:miter;stroke-opacity:1;font-family:Arial Black"
       d="M 2992.9791,2279.2216 L 2992.6192,2279.2216 L 2992.5697,2279.3904 L 2992.2468,2279.3904 L 2992.631,2278.3679 L 2992.9756,2278.3679 L 2993.3599,2279.3904 L 2993.0293,2279.3904 L 2992.9791,2279.2216 M 2992.9128,2279.0005 L 2992.7998,2278.633 L 2992.6875,2279.0005 L 2992.9128,2279.0005 M 2993.4415,2278.6497 L 2993.7058,2278.6497 L 2993.7058,2278.7704 C 2993.7453,2278.7211 2993.7853,2278.686 2993.8258,2278.665 C 2993.8662,2278.6437 2993.9155,2278.633 2993.9736,2278.633 C 2994.0522,2278.633 2994.1136,2278.6564 2994.1577,2278.7034 C 2994.2024,2278.7499 2994.2247,2278.822 2994.2247,2278.9196 L 2994.2247,2279.3904 L 2993.9394,2279.3904 L 2993.9394,2278.9831 C 2993.9394,2278.9366 2993.9308,2278.9038 2993.9136,2278.8847 C 2993.8964,2278.8652 2993.8723,2278.8554 2993.8411,2278.8554 C 2993.8067,2278.8554 2993.7788,2278.8685 2993.7574,2278.8945 C 2993.736,2278.9205 2993.7253,2278.9673 2993.7253,2279.0347 L 2993.7253,2279.3904 L 2993.4415,2279.3904 L 2993.4415,2278.6497 M 2994.911,2278.6497 L 2995.1767,2278.6497 L 2995.1767,2279.3492 L 2995.1774,2279.382 C 2995.1774,2279.4285 2995.1674,2279.4727 2995.1474,2279.5145 C 2995.1279,2279.5568 2995.1016,2279.591 2995.0686,2279.617 C 2995.036,2279.6431 2994.9944,2279.6619 2994.9438,2279.6735 C 2994.8935,2279.6852 2994.8359,2279.691 2994.7708,2279.691 C 2994.622,2279.691 2994.5197,2279.6687 2994.4639,2279.624 C 2994.4086,2279.5794 2994.3809,2279.5196 2994.3809,2279.4448 C 2994.3809,2279.4355 2994.3814,2279.4229 2994.3823,2279.4071 L 2994.6578,2279.4385 C 2994.6648,2279.4641 2994.6755,2279.4817 2994.6899,2279.4915 C 2994.7108,2279.5059 2994.7371,2279.5131 2994.7687,2279.5131 C 2994.8096,2279.5131 2994.8401,2279.5022 2994.8601,2279.4804 C 2994.8805,2279.4585 2994.8907,2279.4204 2994.8907,2279.366 L 2994.8907,2279.2537 C 2994.8628,2279.2867 2994.835,2279.3106 2994.8071,2279.3255 C 2994.7633,2279.3488 2994.7162,2279.3604 2994.6655,2279.3604 C 2994.5664,2279.3604 2994.4865,2279.3171 2994.4256,2279.2307 C 2994.3823,2279.1693 2994.3607,2279.0882 2994.3607,2278.9873 C 2994.3607,2278.872 2994.3886,2278.7841 2994.4444,2278.7236 C 2994.5002,2278.6632 2994.5732,2278.633 2994.6634,2278.633 C 2994.721,2278.633 2994.7685,2278.6427 2994.8057,2278.6623 C 2994.8433,2278.6818 2994.8784,2278.7141 2994.911,2278.7592 L 2994.911,2278.6497 M 2994.6439,2279.0089 C 2994.6439,2279.0624 2994.6552,2279.1021 2994.678,2279.1281 C 2994.7008,2279.1537 2994.7308,2279.1665 2994.768,2279.1665 C 2994.8033,2279.1665 2994.8329,2279.1533 2994.8566,2279.1267 C 2994.8808,2279.0998 2994.8928,2279.0593 2994.8928,2279.0054 C 2994.8928,2278.9515 2994.8803,2278.9103 2994.8552,2278.8819 C 2994.8301,2278.8531 2994.7994,2278.8387 2994.7631,2278.8387 C 2994.7268,2278.8387 2994.6978,2278.852 2994.6759,2278.8785 C 2994.6545,2278.9045 2994.6439,2278.948 2994.6439,2279.0089 M 2995.2994,2279.1853 L 2995.5812,2279.1588 C 2995.5928,2279.1923 2995.6091,2279.2163 2995.63,2279.2307 C 2995.651,2279.2451 2995.6789,2279.2523 2995.7137,2279.2523 C 2995.7519,2279.2523 2995.7814,2279.2442 2995.8023,2279.2279 C 2995.8186,2279.2158 2995.8267,2279.2007 2995.8267,2279.1825 C 2995.8267,2279.1621 2995.816,2279.1463 2995.7946,2279.1351 C 2995.7793,2279.1272 2995.7386,2279.1175 2995.6726,2279.1058 C 2995.574,2279.0886 2995.5054,2279.0728 2995.4668,2279.0584 C 2995.4287,2279.0435 2995.3964,2279.0186 2995.3699,2278.9838 C 2995.3438,2278.9489 2995.3308,2278.9091 2995.3308,2278.8645 C 2995.3308,2278.8157 2995.345,2278.7736 2995.3734,2278.7383 C 2995.4017,2278.7029 2995.4408,2278.6767 2995.4905,2278.6595 C 2995.5403,2278.6418 2995.607,2278.633 2995.6907,2278.633 C 2995.7791,2278.633 2995.8441,2278.6397 2995.886,2278.6532 C 2995.9283,2278.6667 2995.9634,2278.6876 2995.9913,2278.716 C 2996.0197,2278.7443 2996.0431,2278.7827 2996.0617,2278.831 L 2995.7925,2278.8575 C 2995.7856,2278.8338 2995.7739,2278.8164 2995.7577,2278.8052 C 2995.7353,2278.7904 2995.7084,2278.7829 2995.6768,2278.7829 C 2995.6447,2278.7829 2995.6212,2278.7887 2995.6063,2278.8003 C 2995.5919,2278.8115 2995.5847,2278.8252 2995.5847,2278.8415 C 2995.5847,2278.8596 2995.594,2278.8733 2995.6126,2278.8826 C 2995.6312,2278.8919 2995.6716,2278.9003 2995.734,2278.9078 C 2995.8283,2278.9184 2995.8985,2278.9333 2995.9446,2278.9524 C 2995.9906,2278.9715 2996.0257,2278.9987 2996.0499,2279.034 C 2996.0745,2279.0693 2996.0869,2279.1082 2996.0869,2279.1505 C 2996.0869,2279.1932 2996.0738,2279.2349 2996.0478,2279.2753 C 2996.0222,2279.3158 2995.9815,2279.3481 2995.9257,2279.3722 C 2995.8704,2279.396 2995.7949,2279.4078 2995.6991,2279.4078 C 2995.5638,2279.4078 2995.4673,2279.3885 2995.4096,2279.3499 C 2995.3525,2279.3113 2995.3157,2279.2565 2995.2994,2279.1853 M 2996.5653,2278.3679 L 2996.5653,2278.6497 L 2996.7215,2278.6497 L 2996.7215,2278.8568 L 2996.5653,2278.8568 L 2996.5653,2279.1198 C 2996.5653,2279.1514 2996.5683,2279.1723 2996.5744,2279.1825 C 2996.5837,2279.1984 2996.5999,2279.2063 2996.6232,2279.2063 C 2996.6441,2279.2063 2996.6734,2279.2002 2996.7111,2279.1881 L 2996.732,2279.3841 C 2996.6618,2279.3994 2996.5962,2279.4071 2996.5353,2279.4071 C 2996.4646,2279.4071 2996.4126,2279.3981 2996.3791,2279.3799 C 2996.3456,2279.3618 2996.3207,2279.3344 2996.3045,2279.2976 C 2996.2886,2279.2604 2996.2807,2279.2004 2996.2807,2279.1177 L 2996.2807,2278.8568 L 2996.1761,2278.8568 L 2996.1761,2278.6497 L 2996.2807,2278.6497 L 2996.2807,2278.5137 L 2996.5653,2278.3679 M 2996.7717,2278.6497 L 2997.0675,2278.6497 L 2997.2111,2279.1191 L 2997.3597,2278.6497 L 2997.6463,2278.6497 L 2997.3318,2279.3904 L 2997.08,2279.3904 L 2996.7717,2278.6497 M 2997.6945,2279.0221 C 2997.6945,2278.9091 2997.7326,2278.8162 2997.8088,2278.7432 C 2997.8851,2278.6697 2997.9881,2278.633 2998.1178,2278.633 C 2998.2661,2278.633 2998.3782,2278.676 2998.454,2278.762 C 2998.5149,2278.8313 2998.5453,2278.9166 2998.5453,2279.0179 C 2998.5453,2279.1319 2998.5074,2279.2253 2998.4316,2279.2983 C 2998.3563,2279.3709 2998.2519,2279.4071 2998.1185,2279.4071 C 2997.9995,2279.4071 2997.9032,2279.3769 2997.8298,2279.3165 C 2997.7396,2279.2416 2997.6945,2279.1435 2997.6945,2279.0221 M 2997.979,2279.0214 C 2997.979,2279.0875 2997.9923,2279.1363 2998.0188,2279.1679 C 2998.0457,2279.1995 2998.0794,2279.2153 2998.1199,2279.2153 C 2998.1608,2279.2153 2998.1943,2279.1997 2998.2203,2279.1686 C 2998.2468,2279.1374 2998.2601,2279.0875 2998.2601,2279.0186 C 2998.2601,2278.9545 2998.2468,2278.9068 2998.2203,2278.8757 C 2998.1938,2278.8441 2998.161,2278.8282 2998.122,2278.8282 C 2998.0806,2278.8282 2998.0464,2278.8443 2998.0195,2278.8764 C 2997.9925,2278.908 2997.979,2278.9563 2997.979,2279.0214 M 2998.6932,2278.3679 L 2998.9777,2278.3679 L 2998.9777,2279.3904 L 2998.6932,2279.3904 L 2998.6932,2278.3679 M 2999.1702,2278.3679 L 2999.4548,2278.3679 L 2999.4548,2279.3904 L 2999.1702,2279.3904 L 2999.1702,2278.3679 M 3000.4598,2279.0905 L 2999.8907,2279.0905 C 2999.8958,2279.136 2999.9081,2279.17 2999.9277,2279.1923 C 2999.9551,2279.2244 2999.9909,2279.2404 3000.0351,2279.2404 C 3000.063,2279.2404 3000.0895,2279.2335 3000.1146,2279.2195 C 3000.1299,2279.2107 3000.1464,2279.1951 3000.1641,2279.1728 L 3000.4438,2279.1986 C 3000.401,2279.273 3000.3494,2279.3264 3000.2889,2279.359 C 3000.2285,2279.3911 3000.1418,2279.4071 3000.0288,2279.4071 C 2999.9307,2279.4071 2999.8535,2279.3934 2999.7972,2279.366 C 2999.741,2279.3381 2999.6942,2279.2941 2999.657,2279.2342 C 2999.6203,2279.1737 2999.6019,2279.1028 2999.6019,2279.0214 C 2999.6019,2278.9057 2999.6389,2278.812 2999.7128,2278.7404 C 2999.7872,2278.6688 2999.8898,2278.633 3000.0204,2278.633 C 3000.1264,2278.633 3000.2101,2278.649 3000.2715,2278.6811 C 3000.3329,2278.7132 3000.3796,2278.7597 3000.4117,2278.8206 C 3000.4438,2278.8815 3000.4598,2278.9608 3000.4598,2279.0584 L 3000.4598,2279.0905 M 3000.1711,2278.9545 C 3000.1655,2278.8996 3000.1506,2278.8603 3000.1264,2278.8366 C 3000.1027,2278.8129 3000.0713,2278.801 3000.0323,2278.801 C 2999.9872,2278.801 2999.9511,2278.8189 2999.9242,2278.8547 C 2999.907,2278.8771 2999.896,2278.9103 2999.8914,2278.9545 L 3000.1711,2278.9545"
       id="text14631" />
    <path
       transform="matrix(0.96489,0.262654,-0.262654,0.96489,0,0)"
       style="font-size:4.14492178px;font-style:normal;font-variant:normal;font-weight:normal;font-stretch:normal;text-align:start;line-height:125%;writing-mode:lr-tb;text-anchor:start;fill:#ffffff;fill-opacity:1;stroke:none;stroke-width:1px;stroke-linecap:butt;stroke-linejoin:miter;stroke-opacity:1;font-family:Arial Black"
       d="M 3487.3676,1413.7144 L 3488.2864,1413.7144 L 3488.2864,1416.6814 L 3487.3676,1416.6814 L 3487.3676,1413.7144 M 3490.4905,1415.8415 L 3491.2737,1415.9305 C 3491.2305,1416.0938 3491.1597,1416.2355 3491.0612,1416.3556 C 3490.9627,1416.4743 3490.8365,1416.5667 3490.6827,1416.6328 C 3490.5303,1416.6989 3490.336,1416.732 3490.0998,1416.732 C 3489.8718,1416.732 3489.6816,1416.7111 3489.5291,1416.6693 C 3489.378,1416.6261 3489.2478,1416.5573 3489.1385,1416.4628 C 3489.0292,1416.367 3488.9435,1416.255 3488.8815,1416.1269 C 3488.8194,1415.9987 3488.7884,1415.8287 3488.7884,1415.6168 C 3488.7884,1415.3956 3488.8261,1415.2114 3488.9017,1415.0643 C 3488.957,1414.9564 3489.0326,1414.8599 3489.1284,1414.7749 C 3489.2242,1414.6885 3489.3227,1414.6245 3489.4239,1414.5826 C 3489.5844,1414.5165 3489.7902,1414.4835 3490.0412,1414.4835 C 3490.392,1414.4835 3490.6591,1414.5462 3490.8426,1414.6717 C 3491.0275,1414.7972 3491.157,1414.9807 3491.2312,1415.2222 L 3490.4561,1415.3254 C 3490.4318,1415.2336 3490.3872,1415.1648 3490.3225,1415.119 C 3490.2591,1415.0717 3490.1734,1415.0481 3490.0654,1415.0481 C 3489.9292,1415.0481 3489.8185,1415.0974 3489.7335,1415.1959 C 3489.6499,1415.293 3489.608,1415.4408 3489.608,1415.6391 C 3489.608,1415.8158 3489.6499,1415.9501 3489.7335,1416.0418 C 3489.8172,1416.1336 3489.9238,1416.1795 3490.0533,1416.1795 C 3490.1612,1416.1795 3490.2516,1416.1518 3490.3245,1416.0965 C 3490.3987,1416.0412 3490.454,1415.9562 3490.4905,1415.8415 M 3491.6562,1413.7144 L 3492.4799,1413.7144 L 3492.4799,1414.8073 C 3492.5919,1414.6912 3492.7032,1414.6083 3492.8139,1414.5583 C 3492.9245,1414.5084 3493.0554,1414.4835 3493.2065,1414.4835 C 3493.4305,1414.4835 3493.6066,1414.5516 3493.7348,1414.6879 C 3493.8643,1414.8241 3493.929,1415.0333 3493.929,1415.3153 L 3493.929,1416.6814 L 3493.1013,1416.6814 L 3493.1013,1415.4994 C 3493.1013,1415.3645 3493.0763,1415.2694 3493.0264,1415.2141 C 3492.9765,1415.1574 3492.9063,1415.1291 3492.8159,1415.1291 C 3492.7161,1415.1291 3492.6351,1415.1669 3492.573,1415.2424 C 3492.511,1415.318 3492.4799,1415.4536 3492.4799,1415.6492 L 3492.4799,1416.6814 L 3491.6562,1416.6814 L 3491.6562,1413.7144"
       id="text3179" />
  </g>
</svg>
