<?xml version="1.0" encoding="UTF-8" standalone="no"?>
<!-- Created with Inkscape (http://www.inkscape.org/) -->
<svg
   xmlns:svg="http://www.w3.org/2000/svg"
   xmlns="http://www.w3.org/2000/svg"
   xmlns:xlink="http://www.w3.org/1999/xlink"
   version="1.0"
   width="6400"
   height="4800"
   id="svg1306">
  <defs
     id="defs1308">
    <linearGradient
       id="linearGradient23508">
      <stop
         style="stop-color:#ffffff;stop-opacity:1"
         offset="0"
         id="stop23510" />
      <stop
         style="stop-color:#000000;stop-opacity:1"
         offset="1"
         id="stop23512" />
    </linearGradient>
    <linearGradient
       id="linearGradient21663">
      <stop
         style="stop-color:#000000;stop-opacity:1"
         offset="0"
         id="stop21665" />
      <stop
         style="stop-color:#ffffff;stop-opacity:1"
         offset="1"
         id="stop21667" />
    </linearGradient>
    <linearGradient
       id="linearGradient12819">
      <stop
         style="stop-color:#000000;stop-opacity:1"
         offset="0"
         id="stop12821" />
      <stop
         style="stop-color:#000000;stop-opacity:0"
         offset="1"
         id="stop12823" />
    </linearGradient>
    <linearGradient
       id="linearGradient2967">
      <stop
         style="stop-color:#809dc9;stop-opacity:1"
         offset="0"
         id="stop2969" />
      <stop
         style="stop-color:#001c66;stop-opacity:1"
         offset="1"
         id="stop2971" />
    </linearGradient>
    <radialGradient
       cx="4.9612255"
       cy="554.69659"
       r="321.2403"
       fx="4.9612255"
       fy="554.69659"
       id="radialGradient2975"
       xlink:href="#linearGradient2967"
       gradientUnits="userSpaceOnUse"
       gradientTransform="matrix(1.959604,-1.039323e-2,7.620626e-3,1.454567,-9.011896,-331.4489)" />
    <linearGradient
       x1="1694.8372"
       y1="-1115.2026"
       x2="1694.8325"
       y2="-1117.7974"
       id="linearGradient12825"
       xlink:href="#linearGradient12819"
       gradientUnits="userSpaceOnUse"
       gradientTransform="translate(-3093.782,-1289.073)" />
  </defs>
  <g
     id="layer1">
    <path
       d="M 180.14299,1270.7644 L 907.29659,1270.7644 L 907.29659,3618.7978 L 180.14299,3618.7978 L 180.14299,1270.7644 M 2989.4544,2659.4035 L 3625.3134,2851.6027 C 3582.6001,3029.9214 3515.3304,3178.8757 3423.5042,3298.4658 C 3331.6736,3418.0566 3217.422,3508.2834 3080.749,3569.1464 C 2945.1401,3630.0094 2772.161,3660.4409 2561.8112,3660.441 C 2306.6123,3660.4409 2097.8628,3623.6028 1935.5622,3549.9264 C 1774.3279,3475.1825 1634.9836,3344.3804 1517.529,3157.5198 C 1400.0737,2970.6601 1341.3462,2731.4791 1341.3464,2439.9761 C 1341.3462,2051.3082 1444.3862,1752.8659 1650.4667,1544.6482 C 1857.6141,1335.367 2150.1837,1230.7253 2528.1764,1230.7229 C 2823.9479,1230.7253 3056.1884,1290.5205 3224.8984,1410.1088 C 3394.6722,1529.7015 3520.6693,1713.3583 3602.8902,1961.0798 L 2962.2262,2103.6276 C 2939.8012,2032.0883 2916.3102,1979.7675 2891.7532,1946.6649 C 2851.1761,1891.1424 2801.5247,1848.4315 2742.7988,1818.5321 C 2684.0698,1788.6363 2618.4018,1773.6875 2545.7946,1773.6856 C 2381.3563,1773.6875 2255.3592,1839.8893 2167.8029,1972.2914 C 2101.6,2070.5281 2068.4991,2224.8212 2068.5,2435.1711 C 2068.4991,2695.7087 2108.0067,2874.5606 2187.0228,2971.7272 C 2266.0369,3067.8274 2377.0853,3115.8771 2520.1681,3115.8766 C 2658.9771,3115.8771 2763.6188,3076.9034 2834.0934,2998.9554 C 2905.6325,2921.0087 2957.4194,2807.8248 2989.4544,2659.4035 M 3979.2801,1270.7644 L 4704.832,1270.7644 L 4704.832,2092.4159 L 5497.6537,2092.4159 L 5497.6537,1270.7644 L 6226.4089,1270.7644 L 6226.4089,3618.7978 L 5497.6537,3618.7978 L 5497.6537,2669.0135 L 4704.832,2669.0135 L 4704.832,3618.7978 L 3979.2801,3618.7978 L 3979.2801,1270.7644"
       style="font-size:3280.19946289px;font-style:normal;font-variant:normal;font-weight:normal;font-stretch:normal;text-align:start;line-height:125%;writing-mode:lr-tb;text-anchor:start;fill:#000000;fill-opacity:1;stroke:none;stroke-width:1px;stroke-linecap:butt;stroke-linejoin:miter;stroke-opacity:1;font-family:Arial Black"
       id="text21738" />
    <path
       d="M 240.70009,3408.844 L 286.76449,3408.844 L 303.36909,3496.5805 L 327.57969,3408.844 L 373.53689,3408.844 L 397.85459,3496.5805 L 414.45919,3408.844 L 460.30929,3408.844 L 425.70739,3565.8913 L 378.14329,3565.8913 L 350.61179,3467.0136 L 323.18749,3565.8913 L 275.62339,3565.8913 L 240.70009,3408.844 M 478.19939,3408.844 L 526.83479,3408.844 L 526.83479,3565.8913 L 478.19939,3565.8913 L 478.19939,3408.844 M 561.54369,3408.844 L 610.07199,3408.844 L 610.07199,3527.2187 L 685.81029,3527.2187 L 685.81029,3565.8913 L 561.54369,3565.8913 L 561.54369,3408.844 M 708.09259,3408.844 L 756.62089,3408.844 L 756.62089,3527.2187 L 832.35929,3527.2187 L 832.35929,3565.8913 L 708.09259,3565.8913 L 708.09259,3408.844"
       style="font-size:219.39486694px;font-style:normal;font-variant:normal;font-weight:normal;font-stretch:normal;text-align:start;line-height:125%;writing-mode:lr-tb;text-anchor:start;fill:#ffffff;fill-opacity:1;stroke:none;stroke-width:1px;stroke-linecap:butt;stroke-linejoin:miter;stroke-opacity:1;font-family:Arial Black"
       id="text22623" />
    <path
       d="M 486.88539,3560.7637 L 486.88539,3551.838 L 503.99829,3540.1902 L 486.88539,3540.1902 L 486.88539,3531.1801 L 517.81949,3531.1801 L 517.81949,3540.1902 L 500.83319,3551.7747 L 517.81949,3551.7747 L 517.81949,3560.7637 L 486.88539,3560.7637 M 486.88539,3524.4067 L 486.88539,3514.8269 L 517.81949,3514.8269 L 517.81949,3524.4067 L 486.88539,3524.4067 M 505.17999,3487.3956 L 507.71209,3479.0185 C 510.06139,3479.5812 512.02369,3480.4675 513.59929,3481.6772 C 515.17479,3482.8871 516.36349,3484.3923 517.16529,3486.1928 C 517.96719,3487.9794 518.36809,3490.2583 518.36809,3493.0296 C 518.36809,3496.3917 517.88279,3499.1418 516.91209,3501.28 C 515.92739,3503.4042 514.20419,3505.24 511.74239,3506.7874 C 509.28059,3508.3348 506.12949,3509.1085 502.28919,3509.1085 C 497.16869,3509.1085 493.23689,3507.751 490.49369,3505.036 C 487.73649,3502.307 486.35799,3498.4525 486.35789,3493.4727 C 486.35799,3489.5761 487.14569,3486.5164 488.72119,3484.2938 C 490.29679,3482.0571 492.71639,3480.3971 495.97999,3479.3139 L 497.85799,3487.7543 C 496.91549,3488.0498 496.22619,3488.3592 495.79009,3488.6828 C 495.05859,3489.2173 494.49589,3489.8715 494.10199,3490.6452 C 493.70809,3491.4189 493.51119,3492.284 493.51119,3493.2406 C 493.51119,3495.407 494.38329,3497.0669 496.12769,3498.2204 C 497.42189,3499.0926 499.45459,3499.5287 502.22589,3499.5287 C 505.65829,3499.5287 508.01459,3499.0082 509.29469,3497.9672 C 510.56069,3496.9262 511.19379,3495.4632 511.19379,3493.5782 C 511.19379,3491.7495 510.68029,3490.3709 509.65339,3489.4424 C 508.62649,3488.4999 507.13539,3487.8176 505.17999,3487.3956 M 486.88539,3474.3552 L 486.88539,3464.7965 L 497.71019,3464.7965 L 497.71019,3454.3515 L 486.88539,3454.3515 L 486.88539,3444.7505 L 517.81949,3444.7505 L 517.81949,3454.3515 L 505.30659,3454.3515 L 505.30659,3464.7965 L 517.81949,3464.7965 L 517.81949,3474.3552 L 486.88539,3474.3552 M 486.88539,3440.5303 L 486.88539,3411.4743 L 494.52399,3411.4743 L 494.52399,3421.2229 L 517.81949,3421.2229 L 517.81949,3430.7817 L 494.52399,3430.7817 L 494.52399,3440.5303 L 486.88539,3440.5303"
       style="font-size:43.21480179px;font-style:normal;font-variant:normal;font-weight:normal;font-stretch:normal;text-align:start;line-height:125%;writing-mode:lr-tb;text-anchor:start;fill:#000000;fill-opacity:1;stroke:none;stroke-width:1px;stroke-linecap:butt;stroke-linejoin:miter;stroke-opacity:1;font-family:Arial Black"
       id="text24387" />
    <path
       d="M 508.29079,3425.8415 L 507.78199,3425.8734 C 507.77099,3425.7908 507.74859,3425.7278 507.71479,3425.6845 C 507.65969,3425.6145 507.58099,3425.5795 507.47869,3425.5795 C 507.40229,3425.5795 507.34369,3425.5972 507.30279,3425.6326 C 507.26099,3425.6688 507.24019,3425.7105 507.24019,3425.7577 C 507.24019,3425.8026 507.25989,3425.8427 507.29919,3425.8781 C 507.33859,3425.9136 507.42989,3425.947 507.57309,3425.9785 C 507.80759,3426.0312 507.97489,3426.1013 508.07479,3426.1886 C 508.17549,3426.276 508.22589,3426.3873 508.22589,3426.5227 C 508.22589,3426.6116 508.20029,3426.6954 508.14919,3426.7741 C 508.09719,3426.8536 508.01969,3426.9158 507.91659,3426.9607 C 507.81269,3427.0063 507.67069,3427.0291 507.49049,3427.0291 C 507.26929,3427.0291 507.10089,3426.9878 506.98519,3426.9052 C 506.86869,3426.8233 506.79949,3426.6927 506.77739,3426.5133 L 507.28149,3426.4837 C 507.29489,3426.5617 507.32319,3426.6183 507.36649,3426.6537 C 507.40899,3426.6891 507.46799,3426.7069 507.54359,3426.7069 C 507.60579,3426.7069 507.65259,3426.6935 507.68409,3426.6667 C 507.71549,3426.6407 507.73129,3426.6089 507.73129,3426.5711 C 507.73129,3426.5436 507.71829,3426.5188 507.69229,3426.4967 C 507.66709,3426.4739 507.60729,3426.4527 507.51289,3426.433 C 507.27909,3426.3826 507.11189,3426.3315 507.01119,3426.2795 C 506.90969,3426.2284 506.83609,3426.1646 506.79039,3426.0883 C 506.74399,3426.0119 506.72079,3425.9265 506.72079,3425.8321 C 506.72079,3425.7211 506.75149,3425.6188 506.81279,3425.5252 C 506.87419,3425.4315 506.95999,3425.3603 507.07019,3425.3115 C 507.18039,3425.2635 507.31929,3425.2395 507.48689,3425.2395 C 507.78129,3425.2395 507.98509,3425.2962 508.09839,3425.4095 C 508.21169,3425.5228 508.27589,3425.6668 508.29079,3425.8415 M 506.57199,3426.9996 L 504.94649,3426.9996 L 504.94649,3426.5723 L 505.49189,3426.5723 L 505.49189,3425.269 L 506.02659,3425.269 L 506.02659,3426.5723 L 506.57199,3426.5723 L 506.57199,3426.9996 M 504.70449,3426.9996 L 503.27129,3426.9996 L 503.27129,3426.6301 L 504.16849,3426.6301 L 504.16849,3426.3551 L 503.33629,3426.3551 L 503.33629,3426.0021 L 504.16849,3426.0021 L 504.16849,3425.6609 L 503.24539,3425.6609 L 503.24539,3425.269 L 504.70449,3425.269 L 504.70449,3426.9996 M 502.94909,3425.269 L 502.94909,3426.9996 L 502.05779,3426.9996 C 501.89249,3426.9996 501.76619,3426.9855 501.67879,3426.9571 C 501.59149,3426.9288 501.52109,3426.8761 501.46749,3426.7989 C 501.41399,3426.7226 501.38729,3426.6293 501.38729,3426.5192 C 501.38729,3426.4231 501.40769,3426.3401 501.44859,3426.2701 C 501.48959,3426.2008 501.54579,3426.1445 501.61749,3426.1013 C 501.66309,3426.0737 501.72569,3426.0509 501.80519,3426.0328 C 501.74139,3426.0115 501.69499,3425.9903 501.66589,3425.969 C 501.64619,3425.9549 501.61789,3425.9246 501.58089,3425.8781 C 501.54309,3425.8317 501.51789,3425.7959 501.50529,3425.7707 L 501.24679,3425.269 L 501.85119,3425.269 L 502.13689,3425.7979 C 502.17309,3425.8663 502.20529,3425.9108 502.23369,3425.9313 C 502.27219,3425.958 502.31589,3425.9714 502.36469,3425.9714 L 502.41189,3425.9714 L 502.41189,3425.269 L 502.94909,3425.269 M 502.41189,3426.2984 L 502.18649,3426.2984 C 502.16209,3426.2984 502.11479,3426.3063 502.04479,3426.322 C 502.00939,3426.3291 501.98069,3426.3472 501.95859,3426.3763 C 501.93579,3426.4054 501.92439,3426.4389 501.92439,3426.4767 C 501.92439,3426.5325 501.94209,3426.5754 501.97749,3426.6053 C 502.01289,3426.6352 502.07939,3426.6502 502.17699,3426.6502 L 502.41189,3426.6502 L 502.41189,3426.2984 M 501.07559,3426.9996 L 500.07449,3426.9996 C 499.90769,3426.9996 499.77979,3426.9583 499.69089,3426.8757 C 499.60119,3426.793 499.55629,3426.6907 499.55629,3426.5687 C 499.55629,3426.4664 499.58819,3426.3787 499.65189,3426.3055 C 499.69439,3426.2567 499.75659,3426.2181 499.83839,3426.1898 C 499.71409,3426.1599 499.62279,3426.1083 499.56459,3426.0351 C 499.50549,3425.9627 499.47599,3425.8715 499.47599,3425.7613 C 499.47599,3425.6716 499.49689,3425.5909 499.53859,3425.5193 C 499.58029,3425.4477 499.63739,3425.391 499.70979,3425.3493 C 499.75459,3425.3233 499.82229,3425.3044 499.91279,3425.2926 C 500.03319,3425.2769 500.11309,3425.269 500.15249,3425.269 L 501.07559,3425.269 L 501.07559,3426.9996 M 500.53609,3426.3208 L 500.30359,3426.3208 C 500.22009,3426.3208 500.16229,3426.335 500.12999,3426.3633 C 500.09699,3426.3924 500.08039,3426.4342 500.08039,3426.4885 C 500.08039,3426.5388 500.09699,3426.5782 500.12999,3426.6065 C 500.16229,3426.6348 500.21899,3426.649 500.29999,3426.649 L 500.53609,3426.649 L 500.53609,3426.3208 M 500.53609,3425.6409 L 500.26339,3425.6409 C 500.17129,3425.6409 500.10639,3425.657 500.06859,3425.6893 C 500.03089,3425.7223 500.01199,3425.7664 500.01199,3425.8215 C 500.01199,3425.8726 500.03089,3425.9136 500.06859,3425.9443 C 500.10559,3425.9757 500.17089,3425.9915 500.26459,3425.9915 L 500.53609,3425.9915 L 500.53609,3425.6409 M 499.19859,3426.9996 L 497.76549,3426.9996 L 497.76549,3426.6301 L 498.66269,3426.6301 L 498.66269,3426.3551 L 497.83039,3426.3551 L 497.83039,3426.0021 L 498.66269,3426.0021 L 498.66269,3425.6609 L 497.73949,3425.6609 L 497.73949,3425.269 L 499.19859,3425.269 L 499.19859,3426.9996 M 497.44669,3426.9996 L 496.94739,3426.9996 L 496.29579,3426.0422 L 496.29579,3426.9996 L 495.79169,3426.9996 L 495.79169,3425.269 L 496.29579,3425.269 L 496.94379,3426.2193 L 496.94379,3425.269 L 497.44669,3425.269 L 497.44669,3426.9996"
       style="font-size:2.4176693px;font-style:normal;font-variant:normal;font-weight:normal;font-stretch:normal;text-align:start;line-height:125%;writing-mode:lr-tb;text-anchor:start;fill:#ffffff;fill-opacity:1;stroke:none;stroke-width:1px;stroke-linecap:butt;stroke-linejoin:miter;stroke-opacity:1;font-family:Arial Black"
       id="text24391" />
  </g>
</svg>
