<?xml version="1.0" encoding="UTF-8" standalone="no"?>
<!-- Created with Inkscape (http://www.inkscape.org/) -->
<svg
   xmlns:svg="http://www.w3.org/2000/svg"
   xmlns="http://www.w3.org/2000/svg"
   xmlns:xlink="http://www.w3.org/1999/xlink"
   version="1.0"
   width="6400"
   height="4800"
   id="svg1306">
  <defs
     id="defs1308">
    <linearGradient
       id="linearGradient2967">
      <stop
         style="stop-color:#809dc9;stop-opacity:1"
         offset="0"
         id="stop2969" />
      <stop
         style="stop-color:#001c66;stop-opacity:1"
         offset="1"
         id="stop2971" />
    </linearGradient>
    <radialGradient
       cx="4.9612255"
       cy="554.69659"
       r="321.2403"
       fx="4.9612255"
       fy="554.69659"
       id="radialGradient2975"
       xlink:href="#linearGradient2967"
       gradientUnits="userSpaceOnUse"
       gradientTransform="matrix(1.959604,-1.039323e-2,7.620626e-3,1.454567,-9.011896,-331.4489)" />
  </defs>
  <g
     id="layer1">
    <path
       d="M 4650.3898,2659.046 C 4649.9097,2526.1333 4618.9997,2427.4442 4557.7023,2362.9523 C 4496.5635,2297.9541 4412.5939,2265.4533 4305.7647,2265.4523 C 4233.6857,2265.4533 4171.2543,2277.3605 4118.4835,2301.171 C 4065.7114,2324.9835 4012.6168,2364.5449 3959.2022,2419.8898 L 3959.2022,1898.6085 L 3566.296,1898.6085 L 3566.296,3313.796 L 3959.2022,3313.796 L 3959.2022,2821.4835 C 3959.2017,2728.1686 3974.0045,2663.4921 4003.6085,2627.4523 C 4033.2115,2591.414 4071.8285,2573.3905 4119.4522,2573.3898 C 4162.5698,2573.3905 4196.015,2586.8925 4219.8272,2613.921 C 4243.6379,2640.3074 4255.5452,2685.691 4255.546,2750.046 L 4255.546,3313.796 L 4650.3898,3313.796 L 4650.3898,2662.2023 C 4650.3898,2661.1515 4650.3936,2660.0926 4650.3898,2659.046 z M 4649.046,1482.8898 C 4648.5509,1426.5307 4635.6383,1385.0516 4610.3273,1358.421 C 4584.5105,1330.9919 4548.6239,1317.2653 4502.6398,1317.2648 C 4471.4448,1317.2652 4445.1962,1322.3901 4423.9523,1332.6085 C 4402.7074,1342.5588 4379.2053,1361.5165 4353.3897,1389.4835 C 4340.7501,1365.5503 4324.4765,1347.5228 4304.5772,1335.421 C 4284.6769,1323.3202 4257.6356,1317.2653 4223.4835,1317.2648 C 4191.751,1317.2652 4164.6035,1322.8023 4142.0147,1333.8273 C 4119.6944,1344.8532 4097.5032,1363.3989 4075.4522,1389.4835 L 4075.4522,1326.9523 L 3922.171,1326.9523 L 3922.171,1755.3273 L 4086.7335,1755.3273 L 4086.7335,1536.7023 C 4086.7333,1504.1635 4092.7883,1480.7675 4104.8897,1466.5148 C 4116.9908,1452.2624 4132.4715,1445.14 4151.296,1445.1398 C 4162.8591,1445.14 4172.9404,1448.511 4181.546,1455.2335 C 4190.151,1461.6878 4196.206,1470.2895 4199.7022,1481.046 C 4201.8532,1487.7692 4202.9207,1500.5346 4202.921,1519.3585 L 4202.921,1755.3273 L 4367.4835,1755.3273 L 4367.4835,1534.296 C 4367.483,1503.3708 4373.4007,1480.9049 4385.2335,1466.921 C 4397.0653,1452.9376 4412.6835,1445.9526 4432.046,1445.9523 C 4448.4494,1445.9526 4462.1448,1453.3495 4473.171,1468.1398 C 4480.7001,1477.552 4484.4829,1491.9344 4484.4835,1511.296 L 4484.4835,1755.3273 L 4649.046,1755.3273 L 4649.046,1486.296 C 4649.046,1485.1615 4649.0559,1484.0124 4649.046,1482.8898 z M 3820.5147,1326.9523 L 3656.3585,1326.9523 L 3656.3585,1533.0773 C 3656.3582,1572.0703 3650.0285,1599.1118 3637.3897,1614.171 C 3625.0192,1629.2305 3609.0205,1636.7649 3589.3897,1636.7648 C 3571.372,1636.7648 3557.3707,1631.0906 3547.421,1619.796 C 3537.4709,1608.5016 3532.5145,1589.4066 3532.5147,1562.5148 L 3532.5147,1326.9523 L 3367.5147,1326.9523 L 3367.5147,1599.6398 C 3367.5147,1655.8434 3380.3113,1697.5106 3405.8585,1724.671 C 3431.6744,1751.5627 3467.1492,1765.0147 3512.3272,1765.0148 C 3546.2105,1765.0148 3574.7314,1758.9597 3597.8585,1746.8585 C 3621.254,1734.7573 3644.3753,1714.4574 3667.2335,1685.9523 L 3667.2335,1755.3273 L 3820.5147,1755.3273 L 3820.5147,1326.9523 z M 3383.8585,2955.6398 L 3010.2647,2913.171 C 2992.8879,2967.8735 2966.5032,3008.4104 2931.1085,3034.796 C 2896.3557,3061.182 2853.2486,3074.39 2801.7647,3074.3898 C 2739.9828,3074.39 2689.1334,3052.4954 2649.2335,3008.7335 C 2609.3326,2964.9721 2589.3892,2900.9459 2589.3897,2816.6398 C 2589.3892,2722.0376 2609.3326,2651.5702 2649.2335,2605.2335 C 2689.7769,2558.2547 2742.5462,2534.7655 2807.546,2534.7648 C 2859.0297,2534.7656 2899.9231,2546.0224 2930.171,2568.546 C 2961.0608,2590.4276 2982.2737,2623.2538 2993.8585,2667.0148 L 3363.5772,2617.796 C 3328.1805,2502.6004 3266.3993,2415.0539 3178.2335,2355.2023 C 3090.709,2295.3527 2963.3071,2265.4533 2795.9835,2265.4523 C 2676.2817,2265.4534 2578.1285,2281.2004 2501.546,2312.7335 C 2453.279,2332.6847 2406.3006,2363.2656 2360.6085,2404.4523 C 2314.9159,2444.997 2278.869,2490.9999 2252.4835,2542.4835 C 2216.4444,2612.6317 2198.4208,2700.4723 2198.421,2806.0148 C 2198.4209,2907.0533 2213.2236,2988.1585 2242.8272,3049.296 C 2272.4306,3110.4339 2313.3241,3163.8538 2365.4522,3209.546 C 2417.5799,3254.5949 2479.6549,3287.4209 2551.7335,3308.0148 C 2624.4547,3327.965 2715.2219,3337.9209 2823.9835,3337.921 C 2936.6048,3337.921 3029.261,3322.1738 3101.9835,3290.6398 C 3175.3477,3259.1055 3235.5341,3214.9914 3282.5147,3158.3585 C 3329.4932,3101.0823 3363.2635,3033.5103 3383.8585,2955.6398 z M 3373.4522,2034.796 C 3373.0706,2002.2228 3367.4544,1975.6382 3356.6085,1955.046 C 3345.3669,1933.704 3328.9885,1917.4126 3307.4835,1906.171 C 3285.9782,1894.93 3256.6597,1889.3274 3219.5147,1889.3273 C 3173.7348,1889.3275 3137.8002,1901.8633 3111.7335,1926.9523 C 3085.8296,1952.0417 3072.8898,1984.8861 3072.8897,2025.4523 C 3072.8897,2053.9629 3079.3004,2078.8043 3092.171,2099.9835 C 3105.2043,2120.9999 3121.5828,2136.3958 3141.296,2146.171 C 3161.009,2155.7831 3188.0766,2160.5772 3222.4522,2160.5773 C 3262.041,2160.5773 3292.3976,2154.9748 3313.5772,2143.7335 C 3334.7563,2132.3293 3352.8386,2113.5816 3367.8272,2087.5148 L 3269.8585,2078.4835 C 3263.6675,2086.3036 3257.8596,2091.7631 3252.4835,2094.8585 C 3243.6858,2099.7461 3234.4147,2102.171 3224.6397,2102.171 C 3209.1624,2102.1711 3196.6268,2096.5686 3187.0147,2085.3273 C 3180.1721,2077.5073 3175.838,2065.6058 3174.046,2049.6398 L 3373.4522,2049.6398 L 3373.4522,2038.3898 C 3373.4522,2037.187 3373.4662,2035.9829 3373.4522,2034.796 z M 3341.7022,1339.8585 C 3312.9277,1324.7996 3286.4355,1317.2653 3262.2335,1317.2648 C 3239.1063,1317.2653 3219.6306,1323.0455 3203.7647,1334.6085 C 3188.1673,1345.9034 3172.9611,1366.7525 3158.171,1397.1398 L 3158.171,1326.9523 L 3004.4835,1326.9523 L 3004.4835,1755.3273 L 3169.4835,1755.3273 L 3169.4835,1611.7335 C 3169.4832,1543.1599 3177.9477,1496.3681 3194.8897,1471.3585 C 3206.7218,1453.6103 3223.3761,1444.7339 3244.8897,1444.7335 C 3256.184,1444.7338 3271.5276,1448.7914 3290.8897,1456.8585 L 3341.7022,1339.8585 z M 3272.296,2001.9835 L 3174.296,2001.9835 C 3175.925,1986.5065 3179.7368,1974.8662 3185.7647,1967.046 C 3195.2139,1954.5015 3207.8679,1948.2026 3223.671,1948.2023 C 3237.3559,1948.2025 3248.3306,1952.3623 3256.6397,1960.671 C 3265.1113,1968.98 3270.3409,1982.7594 3272.296,2001.9835 z M 3021.3272,1796.4523 L 2921.6085,1796.4523 L 2921.6085,2154.7023 L 3021.3272,2154.7023 L 3021.3272,1796.4523 z M 2924.2335,1755.3273 C 2915.6276,1737.5788 2909.9534,1723.0593 2907.2647,1711.7648 C 2904.844,1700.2014 2903.6392,1684.3398 2903.6397,1664.171 L 2903.6397,1474.9835 C 2903.6393,1454.815 2899.613,1433.7224 2891.546,1411.671 C 2883.478,1389.3513 2872.4666,1372.1477 2858.4835,1360.046 C 2838.5832,1342.5668 2813.7078,1331.1123 2783.8585,1325.7335 C 2754.0084,1320.0867 2714.4761,1317.2653 2665.2647,1317.2648 C 2634.6079,1317.2652 2606.0872,1319.5687 2579.7335,1324.1398 C 2553.3795,1328.7118 2532.6676,1335.1474 2517.6085,1343.4835 C 2496.6328,1355.0474 2480.4969,1368.774 2469.2022,1384.6398 C 2458.1766,1400.2372 2449.7122,1421.7418 2443.796,1449.171 L 2600.7022,1465.7335 C 2607.1561,1447.1786 2615.6205,1434.5192 2626.1085,1427.796 C 2639.5541,1419.191 2659.7477,1414.89 2686.6397,1414.8898 C 2707.615,1414.8901 2722.2718,1418.9164 2730.6085,1426.9835 C 2738.9445,1435.0513 2743.1083,1449.19 2743.1085,1469.3585 C 2722.6705,1477.4263 2703.3007,1483.9993 2685.0147,1489.1085 C 2666.7282,1493.9493 2626.7839,1502.551 2565.2022,1514.921 C 2513.8391,1525.1401 2478.6078,1540.7583 2459.5147,1561.7335 C 2440.4216,1582.7092 2430.8898,1609.4448 2430.8897,1641.9835 C 2430.8897,1676.6738 2444.0672,1705.8502 2470.421,1729.5148 C 2497.0436,1753.1794 2535.8893,1765.0147 2586.9835,1765.0148 C 2625.4384,1765.0148 2659.1901,1759.0971 2688.2335,1747.2648 C 2709.4776,1738.3905 2730.8761,1723.5965 2752.3897,1702.8898 C 2754.2719,1715.2601 2756.1319,1724.411 2758.0147,1730.3273 C 2759.8968,1735.9745 2763.9544,1744.3018 2770.1397,1755.3273 L 2924.2335,1755.3273 z M 2858.3272,1988.5773 C 2858.1458,1955.1304 2850.3149,1930.2769 2834.8585,1914.0148 C 2819.3811,1897.5603 2798.1213,1889.3274 2771.0772,1889.3273 C 2752.8302,1889.3275 2737.0301,1892.3309 2723.671,1898.3585 C 2710.3116,1904.3867 2696.8493,1914.4103 2683.3272,1928.421 L 2683.3272,1796.4523 L 2583.8897,1796.4523 L 2583.8897,2154.7023 L 2683.3272,2154.7023 L 2683.3272,2030.0773 C 2683.3271,2006.4543 2687.083,1990.0758 2694.5772,1980.9523 C 2702.0712,1971.8291 2711.865,1967.2648 2723.921,1967.2648 C 2734.8363,1967.2649 2743.2991,1970.7037 2749.3272,1977.546 C 2755.355,1984.2258 2758.3584,1995.7232 2758.3585,2012.0148 L 2758.3585,2154.7023 L 2858.3272,2154.7023 L 2858.3272,1989.7648 C 2858.3272,1989.3657 2858.3294,1988.9739 2858.3272,1988.5773 z M 2743.1085,1552.046 L 2743.1085,1578.2648 C 2743.1082,1598.7025 2739.7372,1615.3568 2733.0147,1628.2648 C 2726.5605,1640.9039 2715.4117,1651.6718 2699.546,1660.546 C 2683.9485,1669.4203 2666.9883,1673.8586 2648.7022,1673.8585 C 2631.2224,1673.8586 2617.9078,1669.8325 2608.7647,1661.7648 C 2599.8903,1653.4284 2595.4521,1642.7981 2595.4522,1629.8898 C 2595.4521,1618.5954 2600.0278,1608.5141 2609.171,1599.6398 C 2618.0451,1591.0346 2639.1688,1582.2954 2672.5147,1573.421 C 2696.986,1567.2361 2720.5193,1560.1137 2743.1085,1552.046 z M 2523.046,1895.2023 L 2423.5772,1895.2023 L 2423.5772,2020.0773 C 2423.577,2043.7004 2419.7341,2060.0478 2412.0772,2069.171 C 2404.5829,2078.2945 2394.9075,2082.8585 2383.0147,2082.8585 C 2372.0991,2082.8586 2363.6051,2079.4511 2357.5772,2072.6085 C 2351.5492,2065.766 2348.546,2054.1816 2348.546,2037.8898 L 2348.546,1895.2023 L 2248.6085,1895.2023 L 2248.6085,2060.3898 C 2248.6085,2094.4395 2256.3501,2119.6851 2271.8272,2136.1398 C 2287.4672,2152.4315 2308.957,2160.5772 2336.3272,2160.5773 C 2356.8548,2160.5772 2374.1287,2156.9086 2388.1397,2149.5773 C 2402.3133,2142.246 2416.3228,2129.9404 2430.171,2112.671 L 2430.171,2154.7023 L 2523.046,2154.7023 L 2523.046,1895.2023 z M 2470.4835,1801.3585 L 2406.2335,1801.3585 L 2406.2335,1862.4523 L 2470.4835,1862.4523 L 2470.4835,1801.3585 z M 2401.8585,1163.9835 L 2229.2022,1163.9835 L 2166.671,1494.3585 L 2075.1085,1163.9835 L 1902.0772,1163.9835 L 1810.8897,1494.3585 L 1748.3897,1163.9835 L 1574.921,1163.9835 L 1706.421,1755.3273 L 1885.5147,1755.3273 L 1988.796,1383.0148 L 2092.4522,1755.3273 L 2271.546,1755.3273 L 2401.8585,1163.9835 z M 2366.1397,1801.3585 L 2302.6085,1801.3585 L 2302.6085,1862.4523 L 2366.1397,1862.4523 L 2366.1397,1801.3585 z M 2234.421,1796.4523 C 2201.1857,1792.3796 2175.8531,1790.359 2158.421,1790.3585 C 2136.5899,1790.3589 2119.9814,1792.871 2108.5772,1797.921 C 2097.3358,1802.8088 2088.5246,1809.3378 2082.171,1817.4835 C 2075.9801,1825.4668 2071.7644,1835.8075 2069.4835,1848.5148 C 2067.2026,1861.2227 2066.0459,1872.863 2066.046,1883.4523 L 2066.046,1895.2023 L 2028.8897,1895.2023 L 2028.8897,1968.0148 L 2066.046,1968.0148 L 2066.046,2154.7023 L 2165.7647,2154.7023 L 2165.7647,1968.0148 L 2213.171,1968.0148 L 2213.171,1895.2023 L 2165.7647,1895.2023 C 2165.7647,1883.6353 2166.1687,1876.0367 2166.9835,1872.4523 C 2168.6126,1865.9358 2171.3858,1861.2288 2175.296,1858.296 C 2179.2059,1855.2009 2185.6166,1853.6399 2194.5772,1853.6398 C 2201.9083,1853.64 2211.5278,1854.6226 2223.421,1856.5773 L 2234.421,1796.4523 z M 1992.8272,1898.6085 L 1599.921,1898.6085 L 1599.921,2166.0148 L 1992.8272,2166.0148 L 1992.8272,1898.6085 z M 1992.8272,2288.6085 L 1599.921,2288.6085 L 1599.921,3313.796 L 1992.8272,3313.796 L 1992.8272,2288.6085 z "
       style="font-size:826.11242676px;font-style:normal;font-variant:normal;font-weight:normal;font-stretch:normal;text-align:center;line-height:100%;writing-mode:lr-tb;text-anchor:middle;fill:#000000;fill-opacity:1;stroke:none;stroke-width:1px;stroke-linecap:butt;stroke-linejoin:miter;stroke-opacity:1;font-family:Arial Black"
       id="Sentence1" />
    <path
       d="M 1886.7022,2038.796 C 1886.6496,2027.6226 1883.2457,2018.2018 1876.5147,2010.546 C 1868.0736,2000.9656 1855.5969,1996.1711 1839.0772,1996.171 C 1824.6288,1996.1711 1813.1638,2000.2701 1804.671,2008.4523 C 1796.178,2016.5828 1791.921,2026.9307 1791.921,2039.5148 C 1791.921,2053.031 1796.9369,2063.9585 1806.9835,2072.296 C 1815.1657,2079.0282 1825.8824,2082.3897 1839.1397,2082.3898 C 1854.0023,2082.3897 1865.6252,2078.3435 1874.0147,2070.2648 C 1882.4558,2062.1343 1886.7022,2051.7335 1886.7022,2039.046 C 1886.7022,2038.9578 1886.7027,2038.884 1886.7022,2038.796 z M 1883.0147,2083.3273 L 1873.1085,2083.3273 L 1873.1085,2118.921 L 1883.0147,2118.921 L 1883.0147,2083.3273 z M 1882.5147,1963.6398 C 1882.3486,1959.1948 1881.1737,1955.878 1879.046,1953.6398 C 1876.7621,1951.2117 1873.6304,1949.9836 1869.6397,1949.9835 C 1866.9471,1949.9835 1864.611,1950.4379 1862.6397,1951.3273 C 1860.6685,1952.2169 1858.6976,1953.6974 1856.7022,1955.7648 L 1856.7022,1936.296 L 1842.0147,1936.296 L 1842.0147,1989.1398 L 1856.7022,1989.1398 L 1856.7022,1970.7648 C 1856.7022,1967.2789 1857.2525,1964.8612 1858.3585,1963.5148 C 1859.4643,1962.1685 1860.9233,1961.4836 1862.7022,1961.4835 C 1864.313,1961.4836 1865.5627,1962.005 1866.4522,1963.0148 C 1867.3416,1964.0005 1867.7647,1965.6732 1867.7647,1968.0773 L 1867.7647,1989.1398 L 1882.5147,1989.1398 L 1882.5147,1964.796 C 1882.5147,1964.4035 1882.5288,1964.0164 1882.5147,1963.6398 z M 1866.8272,2101.921 C 1866.7361,2098.8522 1865.94,2096.5473 1864.4835,2095.0148 C 1862.9459,2093.3801 1860.8576,2092.546 1858.171,2092.546 C 1856.3583,2092.5461 1854.7793,2092.8535 1853.4522,2093.4523 C 1852.1251,2094.0512 1850.7956,2095.0604 1849.4522,2096.4523 L 1849.4522,2083.3273 L 1839.546,2083.3273 L 1839.546,2118.921 L 1849.4522,2118.921 L 1849.4522,2106.546 C 1849.4523,2104.1992 1849.8016,2102.5773 1850.546,2101.671 C 1851.2905,2100.7647 1852.2859,2100.2961 1853.4835,2100.296 C 1854.5678,2100.296 1855.3846,2100.6474 1855.9835,2101.3273 C 1856.5823,2101.9908 1856.8897,2103.115 1856.8897,2104.7335 L 1856.8897,2118.921 L 1866.8272,2118.921 L 1866.8272,2102.546 C 1866.8272,2102.3346 1866.8333,2102.1256 1866.8272,2101.921 z M 1854.921,2038.1398 C 1854.9275,2038.4667 1854.921,2038.7735 1854.921,2039.1085 C 1854.9209,2046.7729 1853.4351,2052.3577 1850.4835,2055.8273 C 1847.5834,2059.2969 1843.8532,2061.0147 1839.296,2061.0148 C 1834.7906,2061.0148 1831.0495,2059.255 1828.046,2055.7335 C 1825.0942,2052.2121 1823.6085,2046.7748 1823.6085,2039.421 C 1823.6085,2032.171 1825.1049,2026.7863 1828.1085,2023.2648 C 1831.1121,2019.6915 1834.937,2017.9211 1839.546,2017.921 C 1843.896,2017.9211 1847.5315,2019.6808 1850.4835,2023.2023 C 1853.2968,2026.5093 1854.7891,2031.4925 1854.921,2038.1398 z M 1835.2022,1975.7648 L 1821.2647,1974.171 C 1820.6156,1976.2145 1819.6182,1977.7478 1818.296,1978.7335 C 1816.9978,1979.7192 1815.3753,1980.2022 1813.4522,1980.2023 C 1811.1443,1980.2023 1809.2553,1979.3995 1807.7647,1977.7648 C 1806.2742,1976.13 1805.5461,1973.7264 1805.546,1970.5773 C 1805.546,1967.0433 1806.2742,1964.4021 1807.7647,1962.671 C 1809.2793,1960.9161 1811.2428,1960.046 1813.671,1960.046 C 1815.5942,1960.046 1817.1348,1960.4548 1818.2647,1961.296 C 1819.4186,1962.1134 1820.2072,1963.3489 1820.6397,1964.9835 L 1834.4522,1963.1398 C 1833.13,1958.8365 1830.8083,1955.563 1827.5147,1953.3273 C 1824.2452,1951.0916 1819.5153,1949.9836 1813.2647,1949.9835 C 1808.7933,1949.9835 1805.1256,1950.5868 1802.2647,1951.7648 C 1800.4616,1952.5101 1798.6905,1953.6324 1796.9835,1955.171 C 1795.2767,1956.6856 1793.938,1958.404 1792.9522,1960.3273 C 1791.606,1962.9476 1790.921,1966.2284 1790.921,1970.171 C 1790.921,1973.9453 1791.4715,1976.9808 1792.5772,1979.2648 C 1793.6832,1981.5486 1795.2238,1983.558 1797.171,1985.2648 C 1799.1183,1986.9476 1801.4472,1988.1518 1804.1397,1988.921 C 1806.8564,1989.6663 1810.233,1990.046 1814.296,1990.046 C 1818.503,1990.046 1821.9545,1989.4739 1824.671,1988.296 C 1827.4116,1987.118 1829.6661,1985.4429 1831.421,1983.3273 C 1833.1759,1981.1876 1834.433,1978.6737 1835.2022,1975.7648 z M 1834.7647,2105.6398 C 1834.7005,2102.2555 1833.6312,2099.3823 1831.5772,2097.046 C 1828.9391,2094.0519 1825.0215,2092.546 1819.8585,2092.546 C 1815.3429,2092.5461 1811.7629,2093.8327 1809.1085,2096.3898 C 1806.4542,2098.9309 1805.1396,2102.1757 1805.1397,2106.1085 C 1805.1397,2110.3327 1806.7186,2113.7527 1809.8585,2116.3585 C 1812.4157,2118.4625 1815.7464,2119.5147 1819.8897,2119.5148 C 1824.5349,2119.5147 1828.1741,2118.2269 1830.796,2115.7023 C 1833.4341,2113.1612 1834.7647,2109.9175 1834.7647,2105.9523 C 1834.7647,2105.842 1834.7668,2105.7489 1834.7647,2105.6398 z M 1824.8272,2105.3585 C 1824.8354,2105.5578 1824.8272,2105.7741 1824.8272,2105.9835 C 1824.8272,2108.3788 1824.3748,2110.1178 1823.4522,2111.2023 C 1822.5459,2112.2866 1821.3765,2112.8273 1819.9522,2112.8273 C 1818.5441,2112.8272 1817.3597,2112.2716 1816.421,2111.171 C 1815.4984,2110.0705 1815.046,2108.3754 1815.046,2106.0773 C 1815.046,2103.8114 1815.5136,2102.1154 1816.4522,2101.0148 C 1817.3909,2099.898 1818.5743,2099.3585 1820.0147,2099.3585 C 1821.3743,2099.3585 1822.5297,2099.9142 1823.4522,2101.0148 C 1824.2884,2101.9975 1824.7489,2103.432 1824.8272,2105.3585 z M 1803.4835,2093.1398 L 1793.9835,2093.1398 L 1789.8272,2109.3898 L 1784.3897,2093.1398 L 1775.4835,2093.1398 L 1770.2335,2109.3898 L 1766.1085,2093.1398 L 1756.546,2093.1398 L 1766.1085,2118.921 L 1774.921,2118.921 L 1779.9835,2103.421 L 1785.2022,2118.921 L 1793.9835,2118.921 L 1803.4835,2093.1398 z M 1783.2335,1936.296 L 1768.5772,1936.296 L 1768.5772,1946.2648 L 1783.2335,1946.2648 L 1783.2335,1936.296 z M 1783.2335,1950.8585 L 1768.5772,1950.8585 L 1768.5772,1989.1398 L 1783.2335,1989.1398 L 1783.2335,1950.8585 z M 1780.6397,2052.6085 C 1780.4241,2048.362 1779.0548,2044.4249 1776.546,2040.8273 C 1773.853,2036.8915 1769.9228,2033.8568 1764.796,2031.7335 C 1759.6691,2029.6104 1751.8709,2027.9559 1741.3585,2026.7648 C 1734.4191,2025.9361 1729.8987,2025.0192 1727.8272,2023.9835 C 1725.7558,2022.9478 1724.7335,2021.4096 1724.7335,2019.3898 C 1724.7335,2017.5773 1725.5343,2016.039 1727.1397,2014.796 C 1728.7969,2013.5014 1731.4103,2012.8585 1734.9835,2012.8585 C 1738.5049,2012.8585 1741.4978,2013.7015 1743.9835,2015.3585 C 1745.796,2016.6014 1747.1129,2018.5298 1747.8897,2021.171 L 1777.8585,2018.2335 C 1775.787,2012.8479 1773.1736,2008.58 1770.0147,2005.421 C 1766.9076,2002.2621 1763.0083,1999.923 1758.296,1998.421 C 1753.6352,1996.9193 1746.3853,1996.1711 1736.546,1996.171 C 1727.2244,1996.1711 1719.7745,1997.1407 1714.2335,1999.1085 C 1708.6924,2001.0247 1704.3613,2003.954 1701.2022,2007.8898 C 1698.0434,2011.8255 1696.4522,2016.5148 1696.4522,2021.9523 C 1696.4523,2026.9237 1697.8961,2031.3496 1700.796,2035.2335 C 1703.7478,2039.1175 1707.362,2041.8888 1711.6085,2043.546 C 1715.9068,2045.1514 1723.5361,2046.911 1734.5147,2048.8273 C 1741.8684,2050.1219 1746.3994,2051.2281 1748.1085,2052.1085 C 1750.4906,2053.3514 1751.6709,2055.1111 1751.671,2057.3898 C 1751.671,2059.4095 1750.7646,2061.0745 1748.9522,2062.421 C 1746.6217,2064.2336 1743.355,2065.1397 1739.1085,2065.1398 C 1735.2245,2065.1398 1732.095,2064.3387 1729.7647,2062.7335 C 1727.4344,2061.1281 1725.622,2058.462 1724.3272,2054.7335 L 1692.9522,2057.7023 C 1694.7648,2065.6255 1698.8639,2071.7166 1705.2335,2076.0148 C 1711.655,2080.3131 1722.3824,2082.4835 1737.4522,2082.4835 C 1748.1202,2082.4835 1756.5398,2081.1558 1762.7022,2078.5148 C 1768.9166,2075.8219 1773.4476,2072.2076 1776.296,2067.7023 C 1779.1959,2063.197 1780.6396,2058.5605 1780.6397,2053.796 C 1780.6397,2053.391 1780.66,2053.0077 1780.6397,2052.6085 z M 1759.2647,1964.1398 C 1759.1294,1959.4336 1757.9596,1955.9474 1755.796,1953.671 C 1753.488,1951.2189 1750.2818,1949.9836 1746.171,1949.9835 C 1743.3822,1949.9835 1741.039,1950.4451 1739.1397,1951.3585 C 1737.2406,1952.248 1735.1351,1953.952 1732.8272,1956.4523 C 1731.6974,1954.3127 1730.2624,1952.6904 1728.4835,1951.6085 C 1726.7044,1950.5267 1724.2867,1949.9836 1721.2335,1949.9835 C 1718.3967,1949.9835 1715.9716,1950.4667 1713.9522,1951.4523 C 1711.9569,1952.4379 1709.9547,1954.1203 1707.9835,1956.4523 L 1707.9835,1950.8585 L 1694.296,1950.8585 L 1694.296,1989.1398 L 1708.9835,1989.1398 L 1708.9835,1969.6085 C 1708.9835,1966.6996 1709.5267,1964.6014 1710.6085,1963.3273 C 1711.6903,1962.0531 1713.082,1961.421 1714.7647,1961.421 C 1715.7984,1961.4211 1716.7141,1961.7264 1717.4835,1962.3273 C 1718.2527,1962.9042 1718.7958,1963.6782 1719.1085,1964.6398 C 1719.3008,1965.2409 1719.3898,1966.3633 1719.3897,1968.046 L 1719.3897,1989.1398 L 1734.1085,1989.1398 L 1734.1085,1969.3898 C 1734.1085,1966.6251 1734.6131,1964.6086 1735.671,1963.3585 C 1736.7287,1962.1084 1738.1277,1961.4836 1739.8585,1961.4835 C 1741.325,1961.4836 1742.5604,1962.1613 1743.546,1963.4835 C 1744.2191,1964.3249 1744.546,1965.5964 1744.546,1967.3273 L 1744.546,1989.1398 L 1759.2647,1989.1398 L 1759.2647,1965.1085 C 1759.2647,1964.784 1759.2738,1964.4535 1759.2647,1964.1398 z M 1753.4835,2101.4523 C 1753.3321,2098.5986 1752.5547,2096.4563 1751.171,2095.0148 C 1749.6334,2093.3801 1747.4998,2092.546 1744.7647,2092.546 C 1742.7417,2092.5461 1741.0167,2092.9265 1739.6085,2093.671 C 1738.2004,2094.3993 1736.7966,2095.6116 1735.421,2097.3273 L 1735.421,2093.1398 L 1726.2335,2093.1398 L 1726.2335,2118.921 L 1736.1085,2118.921 L 1736.1085,2106.546 C 1736.1085,2104.1992 1736.489,2102.5773 1737.2335,2101.671 C 1737.978,2100.7647 1738.942,2100.2961 1740.1397,2100.296 C 1741.2241,2100.296 1742.0721,2100.6474 1742.671,2101.3273 C 1743.2698,2101.9908 1743.5772,2103.115 1743.5772,2104.7335 L 1743.5772,2118.921 L 1753.4835,2118.921 L 1753.4835,2102.546 C 1753.4835,2102.1743 1753.5021,2101.8027 1753.4835,2101.4523 z M 1720.2022,2093.1398 L 1710.296,2093.1398 L 1710.296,2105.546 C 1710.296,2107.8928 1709.9317,2109.5146 1709.171,2110.421 C 1708.4265,2111.3274 1707.4461,2111.7961 1706.2647,2111.796 C 1705.1803,2111.7961 1704.3635,2111.4445 1703.7647,2110.7648 C 1703.1659,2110.085 1702.8586,2108.9458 1702.8585,2107.3273 L 1702.8585,2093.1398 L 1692.921,2093.1398 L 1692.921,2109.546 C 1692.921,2112.9287 1693.6961,2115.4426 1695.2335,2117.0773 C 1696.7873,2118.6958 1698.9208,2119.5147 1701.6397,2119.5148 C 1703.6791,2119.5147 1705.404,2119.1494 1706.796,2118.421 C 1708.2041,2117.6926 1709.5766,2116.4491 1710.9522,2114.7335 L 1710.9522,2118.921 L 1720.2022,2118.921 L 1720.2022,2093.1398 z "
       style="font-size:73.85224915px;font-style:normal;font-variant:normal;font-weight:normal;font-stretch:normal;text-align:center;line-height:100%;writing-mode:lr-tb;text-anchor:middle;fill:#ffffff;fill-opacity:1;stroke:none;stroke-width:1px;stroke-linecap:butt;stroke-linejoin:miter;stroke-opacity:1;font-family:Arial Black"
       id="Sentence2" />
    <path
       d="M 1891.79,2118.3341 L 1891.79,2084.3168 L 1895.1917,2084.3168 C 1900.9805,2084.3168 1905.6654,2084.9733 1909.2462,2086.2863 C 1912.8866,2087.5992 1916.1988,2089.5388 1919.1828,2092.105 C 1922.1667,2094.7309 1927.4185,2100.5794 1934.9382,2109.6508 C 1938.8769,2114.4847 1942.4875,2116.9017 1945.77,2116.9018 C 1949.0522,2116.9017 1951.5886,2115.917 1953.3791,2113.9477 C 1955.2291,2112.0379 1956.1541,2109.1136 1956.1542,2105.1748 C 1956.1541,2100.9375 1954.7516,2097.4164 1951.9468,2094.6115 C 1949.1418,2091.8663 1944.2481,2090.1057 1937.2657,2089.3299 L 1941.5626,2054.5965 C 1954.3339,2055.7901 1964.5987,2060.4152 1972.3571,2068.472 C 1980.175,2076.5883 1984.084,2089.0016 1984.0841,2105.7119 C 1984.084,2118.722 1981.3686,2129.2255 1975.9379,2137.2226 C 1968.5972,2148.0842 1958.8098,2153.515 1946.5756,2153.5151 C 1941.5028,2153.515 1936.6091,2152.1125 1931.8945,2149.3077 C 1927.1798,2146.5027 1921.4207,2140.7735 1914.6173,2132.12 C 1909.8429,2126.0924 1905.9936,2122.2729 1903.0694,2120.6616 C 1900.2047,2119.1099 1896.4449,2118.334 1891.79,2118.3341"
       style="font-size:183.33511353px;font-style:normal;font-variant:normal;font-weight:normal;font-stretch:normal;text-align:center;line-height:100%;writing-mode:lr-tb;text-anchor:middle;fill:#ffffff;fill-opacity:1;stroke:none;stroke-width:1px;stroke-linecap:butt;stroke-linejoin:miter;stroke-opacity:1;font-family:Arial Black"
       id="Sentence3" />
    <path
       d="M 1942.0508,2055.2329 L 1944.2187,2055.5032 L 1944.1371,2056.1582 L 1942.6093,2056.3672 L 1944.0395,2056.9406 L 1943.9577,2057.5971 L 1941.7898,2057.3268 L 1941.8405,2056.9202 L 1943.547,2057.1329 L 1941.8941,2056.4899 L 1941.9466,2056.0685 L 1943.7066,2055.8523 L 1942.0001,2055.6396 L 1942.0508,2055.2329 M 1942.122,2058.7333 L 1942.0009,2059.1388 C 1941.8558,2059.0666 1941.7504,2058.9679 1941.685,2058.8426 C 1941.6203,2058.7184 1941.5988,2058.5701 1941.6203,2058.3975 C 1941.6544,2058.1244 1941.7688,2057.9334 1941.9635,2057.8246 C 1942.1193,2057.7389 1942.3062,2057.7096 1942.5241,2057.7367 C 1942.7844,2057.7692 1942.9794,2057.8626 1943.1094,2058.017 C 1943.2403,2058.1715 1943.2928,2058.3528 1943.2669,2058.5607 C 1943.2378,2058.7943 1943.1374,2058.9691 1942.9657,2059.0848 C 1942.7951,2059.2007 1942.551,2059.2359 1942.2333,2059.1902 L 1942.363,2058.1492 C 1942.2394,2058.1368 1942.1392,2058.1584 1942.0621,2058.2138 C 1941.9862,2058.2694 1941.9422,2058.345 1941.9303,2058.4407 C 1941.9222,2058.5057 1941.9331,2058.5627 1941.963,2058.6114 C 1941.993,2058.6602 1942.046,2058.7009 1942.122,2058.7333 M 1942.539,2058.8094 C 1942.6597,2058.8214 1942.7547,2058.8017 1942.8242,2058.7503 C 1942.8947,2058.6991 1942.9352,2058.631 1942.9458,2058.5462 C 1942.9571,2058.4555 1942.9334,2058.3765 1942.8747,2058.3091 C 1942.8161,2058.2417 1942.73,2058.2015 1942.6165,2058.1883 L 1942.539,2058.8094 M 1943.3088,2059.6697 L 1943.6933,2059.7177 L 1943.6415,2060.1332 L 1943.257,2060.0852 L 1943.3088,2059.6697 M 1941.5254,2059.4474 L 1943.0959,2059.6432 L 1943.0441,2060.0587 L 1941.4736,2059.8629 L 1941.5254,2059.4474 M 1941.2426,2061.7159 L 1941.2944,2061.3003 L 1942.0959,2061.4002 C 1942.2655,2061.4213 1942.3761,2061.4262 1942.4275,2061.4145 C 1942.48,2061.403 1942.5226,2061.3788 1942.5553,2061.3419 C 1942.5878,2061.3058 1942.6075,2061.2597 1942.6145,2061.2035 C 1942.6235,2061.1316 1942.6118,2061.0645 1942.5795,2061.0025 C 1942.5472,2060.9404 1942.4999,2060.8944 1942.4375,2060.8646 C 1942.3751,2060.8358 1942.256,2060.8105 1942.0806,2060.7886 L 1941.3693,2060.6999 L 1941.4211,2060.2843 L 1942.9915,2060.4801 L 1942.9434,2060.8661 L 1942.7127,2060.8374 C 1942.8731,2060.9965 1942.9403,2061.1801 1942.9144,2061.3882 C 1942.903,2061.4797 1942.8758,2061.5615 1942.8328,2061.6332 C 1942.7908,2061.7051 1942.7418,2061.757 1942.6857,2061.7891 C 1942.6295,2061.8221 1942.568,2061.842 1942.5011,2061.8487 C 1942.434,2061.8563 1942.3399,2061.8527 1942.2187,2061.8375 L 1941.2426,2061.7159 M 1941.5764,2063.1105 L 1941.4553,2063.5159 C 1941.3101,2063.4437 1941.2047,2063.345 1941.1393,2063.2197 C 1941.0747,2063.0955 1941.0532,2062.9472 1941.0747,2062.7746 C 1941.1087,2062.5015 1941.2231,2062.3106 1941.4179,2062.2017 C 1941.5737,2062.116 1941.7605,2062.0868 1941.9784,2062.1139 C 1942.2387,2062.1464 1942.4338,2062.2397 1942.5638,2062.3941 C 1942.6947,2062.5486 1942.7472,2062.7299 1942.7212,2062.9379 C 1942.6921,2063.1715 1942.5917,2063.3462 1942.4201,2063.4619 C 1942.2494,2063.5778 1942.0053,2063.613 1941.6876,2063.5673 L 1941.8174,2062.5263 C 1941.6938,2062.5139 1941.5935,2062.5355 1941.5165,2062.591 C 1941.4405,2062.6466 1941.3965,2062.7221 1941.3846,2062.8178 C 1941.3765,2062.8829 1941.3874,2062.9398 1941.4173,2062.9886 C 1941.4473,2063.0373 1941.5003,2063.078 1941.5764,2063.1105 M 1941.9934,2063.1865 C 1942.114,2063.1985 1942.2091,2063.1789 1942.2786,2063.1275 C 1942.3491,2063.0762 1942.3896,2063.0082 1942.4002,2062.9233 C 1942.4115,2062.8326 1942.3878,2062.7536 1942.329,2062.6862 C 1942.2704,2062.6188 1942.1843,2062.5786 1942.0708,2062.5654 L 1941.9934,2063.1865 M 1940.8745,2064.6689 L 1943.0424,2064.9392 L 1942.9879,2065.3769 L 1942.1346,2065.2705 L 1942.0276,2066.1282 L 1942.8809,2066.2345 L 1942.8264,2066.6722 L 1940.6585,2066.402 L 1940.713,2065.9643 L 1941.6609,2066.0824 L 1941.7678,2065.2248 L 1940.8199,2065.1066 L 1940.8745,2064.6689 M 1941.6549,2067.2996 L 1941.7698,2066.931 C 1941.9164,2066.9923 1942.0197,2067.0793 1942.0798,2067.1919 C 1942.1398,2067.3045 1942.1571,2067.4628 1942.1317,2067.667 C 1942.1086,2067.8522 1942.0692,2067.9875 1942.0135,2068.0726 C 1941.9588,2068.1579 1941.8952,2068.2146 1941.8226,2068.2426 C 1941.751,2068.2717 1941.6249,2068.275 1941.4445,2068.2525 L 1940.96,2068.1876 C 1940.822,2068.1704 1940.7191,2068.1641 1940.6515,2068.1687 C 1940.5847,2068.1744 1940.5116,2068.1908 1940.4321,2068.2179 L 1940.4833,2067.8068 C 1940.5123,2067.7994 1940.5549,2067.7913 1940.6111,2067.7822 C 1940.6365,2067.7784 1940.6534,2067.7755 1940.6617,2067.7735 C 1940.6015,2067.694 1940.5593,2067.6116 1940.5348,2067.5264 C 1940.5104,2067.4413 1940.5039,2067.3529 1940.5154,2067.2612 C 1940.5355,2067.0995 1940.5953,2066.9773 1940.6947,2066.8946 C 1940.794,2066.8129 1940.9107,2066.7804 1941.0447,2066.7971 C 1941.1335,2066.8082 1941.2097,2066.8391 1941.2734,2066.8901 C 1941.3381,2066.9413 1941.384,2067.0071 1941.411,2067.0876 C 1941.4389,2067.1691 1941.4576,2067.2835 1941.4673,2067.431 C 1941.4796,2067.6297 1941.4968,2067.7685 1941.519,2067.8473 L 1941.5604,2067.8525 C 1941.6402,2067.8625 1941.6995,2067.8498 1941.7378,2067.8146 C 1941.7772,2067.7795 1941.8038,2067.7071 1941.8174,2067.5977 C 1941.8267,2067.5238 1941.8191,2067.4642 1941.7947,2067.4192 C 1941.7712,2067.3742 1941.7246,2067.3343 1941.6549,2067.2996 M 1941.2484,2067.8136 C 1941.2372,2067.7582 1941.2266,2067.6712 1941.2163,2067.5528 C 1941.2061,2067.4344 1941.1913,2067.3559 1941.172,2067.3176 C 1941.1404,2067.2585 1941.095,2067.2253 1941.0358,2067.2179 C 1940.9777,2067.2107 1940.9246,2067.2262 1940.8769,2067.2642 C 1940.8291,2067.3023 1940.801,2067.3548 1940.7926,2067.4219 C 1940.7833,2067.4968 1940.7991,2067.5714 1940.8398,2067.6456 C 1940.8711,2067.7005 1940.9128,2067.7392 1940.965,2067.7618 C 1940.9992,2067.777 1941.066,2067.7909 1941.1656,2067.8033 L 1941.2484,2067.8136 M 1942.4343,2067.2151 L 1942.7907,2067.2595 L 1942.7462,2067.6159 L 1942.3899,2067.5715 L 1942.4343,2067.2151 M 1942.355,2067.851 L 1942.7114,2067.8954 L 1942.6668,2068.2532 L 1942.3104,2068.2088 L 1942.355,2067.851 M 1940.214,2069.9673 L 1940.2658,2069.5518 L 1941.0673,2069.6517 C 1941.2369,2069.6729 1941.3474,2069.6776 1941.3989,2069.666 C 1941.4514,2069.6546 1941.4939,2069.6303 1941.5266,2069.5933 C 1941.5591,2069.5573 1941.5789,2069.5112 1941.5859,2069.4551 C 1941.5949,2069.3831 1941.5832,2069.3161 1941.5509,2069.254 C 1941.5186,2069.1918 1941.4713,2069.1459 1941.4089,2069.1161 C 1941.3465,2069.0873 1941.2274,2069.0619 1941.0519,2069.04 L 1940.3406,2068.9514 L 1940.3924,2068.5359 L 1941.9629,2068.7317 L 1941.9148,2069.1176 L 1941.6841,2069.0888 C 1941.8445,2069.248 1941.9117,2069.4316 1941.8858,2069.6396 C 1941.8744,2069.7313 1941.8471,2069.813 1941.8041,2069.8848 C 1941.7621,2069.9565 1941.7131,2070.0086 1941.6571,2070.0406 C 1941.6009,2070.0737 1941.5394,2070.0935 1941.4724,2070.1002 C 1941.4054,2070.1079 1941.3113,2070.1041 1941.19,2070.089 L 1940.214,2069.9673 M 1939.9817,2071.8306 L 1940.0298,2071.4446 L 1940.2606,2071.4733 C 1940.1788,2071.3981 1940.1212,2071.3139 1940.0878,2071.2205 C 1940.0553,2071.1284 1940.0446,2071.038 1940.0556,2070.9492 C 1940.0781,2070.7688 1940.1698,2070.6231 1940.3308,2070.512 C 1940.4927,2070.402 1940.7038,2070.3632 1940.9641,2070.3957 C 1941.2302,2070.4289 1941.4245,2070.5167 1941.547,2070.6591 C 1941.6703,2070.8017 1941.7201,2070.9685 1941.6963,2071.1597 C 1941.6744,2071.3353 1941.5825,2071.478 1941.4206,2071.5879 L 1942.2015,2071.6852 L 1942.1496,2072.1008 L 1939.9817,2071.8306 M 1940.9392,2070.8236 C 1940.7716,2070.8027 1940.6475,2070.8108 1940.5668,2070.8478 C 1940.45,2070.9013 1940.3841,2070.9882 1940.3691,2071.1085 C 1940.3572,2071.2041 1940.3875,2071.2904 1940.46,2071.3676 C 1940.5334,2071.4448 1940.651,2071.4935 1940.8127,2071.5136 C 1940.9931,2071.5361 1941.1268,2071.5197 1941.2138,2071.4646 C 1941.3018,2071.4094 1941.352,2071.3312 1941.3647,2071.2295 C 1941.377,2071.131 1941.3479,2071.0432 1941.2774,2070.9664 C 1941.2077,2070.8906 1941.095,2070.843 1940.9392,2070.8236 M 1940.3169,2073.2134 L 1940.1959,2073.6188 C 1940.0507,2073.5466 1939.9453,2073.4479 1939.8799,2073.3226 C 1939.8152,2073.1984 1939.7937,2073.0501 1939.8152,2072.8775 C 1939.8493,2072.6044 1939.9637,2072.4135 1940.1584,2072.3046 C 1940.3142,2072.2189 1940.5011,2072.1897 1940.719,2072.2168 C 1940.9793,2072.2493 1941.1743,2072.3426 1941.3043,2072.497 C 1941.4352,2072.6515 1941.4877,2072.8328 1941.4618,2073.0408 C 1941.4327,2073.2744 1941.3323,2073.4491 1941.1606,2073.5648 C 1940.99,2073.6807 1940.7459,2073.7159 1940.4282,2073.6702 L 1940.558,2072.6292 C 1940.4343,2072.6168 1940.3341,2072.6384 1940.257,2072.6939 C 1940.1811,2072.7495 1940.1371,2072.825 1940.1252,2072.9207 C 1940.1171,2072.9858 1940.128,2073.0427 1940.1579,2073.0915 C 1940.1879,2073.1402 1940.2409,2073.1809 1940.3169,2073.2134 M 1940.7339,2073.2894 C 1940.8546,2073.3014 1940.9496,2073.2818 1941.0191,2073.2304 C 1941.0896,2073.1791 1941.1301,2073.1111 1941.1407,2073.0262 C 1941.152,2072.9355 1941.1283,2072.8565 1941.0696,2072.7891 C 1941.011,2072.7217 1940.9249,2072.6815 1940.8114,2072.6683 L 1940.7339,2073.2894 M 1940.082,2074.6768 L 1940.0935,2075.1017 C 1940.0105,2075.1094 1939.9444,2075.1378 1939.8953,2075.1867 C 1939.8471,2075.2358 1939.817,2075.3091 1939.8048,2075.4067 C 1939.7914,2075.5141 1939.801,2075.5974 1939.8337,2075.6566 C 1939.8567,2075.6965 1939.8914,2075.7194 1939.9377,2075.7251 C 1939.9693,2075.7291 1939.9967,2075.7224 1940.0198,2075.7052 C 1940.0421,2075.6871 1940.0662,2075.643 1940.0919,2075.5731 C 1940.2076,2075.2472 1940.3016,2075.0431 1940.3739,2074.961 C 1940.4742,2074.8474 1940.5998,2074.7999 1940.7506,2074.8187 C 1940.8866,2074.8357 1940.9942,2074.9037 1941.0735,2075.0228 C 1941.1528,2075.1417 1941.1784,2075.3141 1941.1503,2075.5398 C 1941.1235,2075.7548 1941.0685,2075.9101 1940.9855,2076.0059 C 1940.9024,2076.1017 1940.79,2076.1607 1940.648,2076.183 L 1940.6244,2075.7821 C 1940.6877,2075.773 1940.7385,2075.7469 1940.7769,2075.7036 C 1940.8153,2075.6613 1940.8398,2075.5968 1940.8506,2075.51 C 1940.8643,2075.4006 1940.8588,2075.3203 1940.8341,2075.2692 C 1940.8163,2075.235 1940.7902,2075.2157 1940.7557,2075.2114 C 1940.7261,2075.2077 1940.6993,2075.2184 1940.6751,2075.2434 C 1940.6428,2075.2773 1940.5878,2075.4017 1940.51,2075.6162 C 1940.432,2075.8318 1940.3511,2075.9788 1940.2672,2076.0576 C 1940.1825,2076.1351 1940.0741,2076.1656 1939.942,2076.1491 C 1939.798,2076.1312 1939.6818,2076.0556 1939.5933,2075.9224 C 1939.5048,2075.7893 1939.4752,2075.6049 1939.5046,2075.3692 C 1939.5313,2075.1553 1939.5958,2074.9912 1939.6981,2074.8768 C 1939.8003,2074.7634 1939.9283,2074.6967 1940.082,2074.6768 M 1940.3409,2077.9604 L 1940.318,2077.5415 C 1940.4015,2077.5379 1940.4671,2077.5141 1940.5147,2077.4699 C 1940.5621,2077.4269 1940.5906,2077.3663 1940.6003,2077.2884 C 1940.6132,2077.1849 1940.5876,2077.0976 1940.5234,2077.0265 C 1940.46,2076.9565 1940.3445,2076.9111 1940.1769,2076.8902 C 1939.9907,2076.867 1939.8551,2076.8816 1939.7705,2076.9341 C 1939.6858,2076.9877 1939.6368,2077.0672 1939.6236,2077.1727 C 1939.6138,2077.2515 1939.628,2077.3189 1939.6661,2077.3747 C 1939.7052,2077.4306 1939.7781,2077.4757 1939.8849,2077.5101 L 1939.7646,2077.9096 C 1939.5825,2077.8438 1939.4512,2077.7449 1939.3706,2077.6127 C 1939.2899,2077.4805 1939.2623,2077.3133 1939.2875,2077.1113 C 1939.3161,2076.8815 1939.4114,2076.7072 1939.5734,2076.5882 C 1939.7353,2076.4702 1939.9443,2076.4273 1940.2006,2076.4592 C 1940.4599,2076.4915 1940.653,2076.5851 1940.7798,2076.7401 C 1940.9077,2076.8952 1940.9571,2077.0896 1940.9279,2077.3232 C 1940.9041,2077.5145 1940.8438,2077.6612 1940.7469,2077.7632 C 1940.6509,2077.8664 1940.5157,2077.9321 1940.3409,2077.9604 M 1941.3116,2078.8233 L 1940.5145,2078.7239 C 1940.6546,2078.8775 1940.713,2079.0475 1940.6898,2079.2338 C 1940.6778,2079.3295 1940.6493,2079.4135 1940.6042,2079.486 C 1940.5592,2079.5585 1940.5067,2079.6105 1940.4466,2079.642 C 1940.3865,2079.6746 1940.3221,2079.6936 1940.2534,2079.699 C 1940.1844,2079.7054 1940.0795,2079.6998 1939.9385,2079.6822 L 1939.0173,2079.5674 L 1939.069,2079.1519 L 1939.8986,2079.2553 C 1940.0632,2079.2758 1940.1687,2079.281 1940.2151,2079.2708 C 1940.2615,2079.2605 1940.2999,2079.2367 1940.3306,2079.1995 C 1940.3621,2079.1635 1940.3817,2079.1153 1940.3892,2079.0552 C 1940.3977,2078.9862 1940.3887,2078.9225 1940.3619,2078.864 C 1940.3351,2078.8057 1940.2894,2078.7594 1940.2245,2078.7253 C 1940.1606,2078.6923 1940.0625,2078.6676 1939.9304,2078.6511 L 1939.1437,2078.553 L 1939.1955,2078.1375 L 1941.3634,2078.4077 L 1941.3116,2078.8233 M 1938.928,2080.2831 L 1940.5604,2079.9821 L 1940.5101,2080.3857 L 1939.4442,2080.5518 L 1940.4397,2080.9507 L 1940.3897,2081.3514 L 1939.3278,2081.4848 L 1940.3197,2081.9133 L 1940.2686,2082.3229 L 1938.761,2081.6229 L 1938.8108,2081.2237 L 1939.8545,2081.079 L 1938.8777,2080.6868 L 1938.928,2080.2831 M 1940.453,2082.5787 L 1940.8375,2082.6267 L 1940.7857,2083.0421 L 1940.4012,2082.9942 L 1940.453,2082.5787 M 1938.6696,2082.3564 L 1940.24,2082.5522 L 1940.1882,2082.9677 L 1938.6178,2082.7719 L 1938.6696,2082.3564 M 1940.0455,2084.1123 L 1939.7143,2084.071 L 1939.7497,2083.787 L 1939.1168,2083.7081 C 1938.9887,2083.6921 1938.9134,2083.6853 1938.8911,2083.6875 C 1938.8696,2083.6908 1938.8508,2083.7011 1938.8347,2083.718 C 1938.8185,2083.736 1938.8087,2083.7588 1938.8052,2083.7865 C 1938.8004,2083.8249 1938.8068,2083.8822 1938.8243,2083.9585 L 1938.4974,2083.9538 C 1938.4681,2083.8521 1938.4611,2083.74 1938.4763,2083.6178 C 1938.4857,2083.5429 1938.5064,2083.4768 1938.5385,2083.4198 C 1938.5716,2083.3628 1938.6097,2083.3225 1938.6528,2083.2989 C 1938.6966,2083.2763 1938.7532,2083.2638 1938.8226,2083.2615 C 1938.872,2083.2587 1938.9701,2083.2664 1939.117,2083.2847 L 1939.8017,2083.37 L 1939.8255,2083.1793 L 1940.1567,2083.2206 L 1940.1329,2083.4113 L 1940.445,2083.4502 L 1940.6354,2083.8974 L 1940.0809,2083.8283 L 1940.0455,2084.1123 M 1938.4596,2084.0407 L 1938.7835,2084.081 L 1939.3859,2084.7538 C 1939.4843,2084.8642 1939.5537,2084.9455 1939.5943,2084.9976 C 1939.5974,2084.9489 1939.6033,2084.8851 1939.6122,2084.8061 L 1939.6783,2084.2511 L 1940.0229,2084.2941 L 1939.861,2085.5924 L 1939.5668,2085.5558 L 1938.9496,2084.8691 L 1938.7467,2084.6291 C 1938.7392,2084.7454 1938.7338,2084.8172 1938.7303,2084.8448 L 1938.6501,2085.488 L 1938.2849,2085.4425 L 1938.4596,2084.0407 M 1938.6365,2086.6938 L 1938.5154,2087.0992 C 1938.3702,2087.027 1938.2648,2086.9282 1938.1994,2086.803 C 1938.1348,2086.6788 1938.1133,2086.5304 1938.1348,2086.358 C 1938.1688,2086.0849 1938.2832,2085.8939 1938.478,2085.785 C 1938.6338,2085.6993 1938.8206,2085.67 1939.0385,2085.6972 C 1939.2988,2085.7296 1939.4939,2085.823 1939.6239,2085.9774 C 1939.7548,2086.1318 1939.8072,2086.3131 1939.7813,2086.5211 C 1939.7522,2086.7548 1939.6518,2086.9295 1939.4802,2087.0453 C 1939.3095,2087.1612 1939.0654,2087.1962 1938.7477,2087.1507 L 1938.8775,2086.1096 C 1938.7539,2086.0973 1938.6536,2086.1187 1938.5766,2086.1742 C 1938.5006,2086.2299 1938.4566,2086.3055 1938.4447,2086.401 C 1938.4366,2086.4661 1938.4475,2086.523 1938.4774,2086.5718 C 1938.5074,2086.6206 1938.5604,2086.6613 1938.6365,2086.6938 M 1939.0535,2086.7698 C 1939.1741,2086.7818 1939.2692,2086.7621 1939.3387,2086.7107 C 1939.4092,2086.6594 1939.4497,2086.5914 1939.4602,2086.5067 C 1939.4715,2086.416 1939.4478,2086.3369 1939.3891,2086.2696 C 1939.3305,2086.2021 1939.2444,2086.1618 1939.1309,2086.1487 L 1939.0535,2086.7698 M 1937.8618,2088.8363 L 1937.9136,2088.4208 L 1938.7151,2088.5207 C 1938.8847,2088.5418 1938.9952,2088.5466 1939.0467,2088.535 C 1939.0992,2088.5235 1939.1417,2088.4993 1939.1744,2088.4623 C 1939.2069,2088.4263 1939.2267,2088.3803 1939.2337,2088.324 C 1939.2427,2088.2521 1939.231,2088.185 1939.1987,2088.1229 C 1939.1663,2088.0609 1939.1191,2088.0149 1939.0567,2087.9851 C 1938.9942,2087.9563 1938.8752,2087.9309 1938.6997,2087.9091 L 1937.9884,2087.8204 L 1938.0402,2087.4049 L 1939.6107,2087.6007 L 1939.5626,2087.9866 L 1939.3318,2087.9578 C 1939.4923,2088.117 1939.5595,2088.3005 1939.5336,2088.5086 C 1939.5221,2088.6003 1939.4949,2088.682 1939.4519,2088.7537 C 1939.4099,2088.8256 1939.3609,2088.8775 1939.3049,2088.9096 C 1939.2487,2088.9426 1939.1872,2088.9625 1939.1202,2088.9691 C 1939.0532,2088.9768 1938.9591,2088.9731 1938.8378,2088.958 L 1937.8618,2088.8363"
       style="font-size:3.05194592px;font-style:normal;font-variant:normal;font-weight:bold;font-stretch:normal;text-align:start;line-height:125%;writing-mode:lr-tb;text-anchor:start;fill:#000000;fill-opacity:1;stroke:none;stroke-width:1px;stroke-linecap:butt;stroke-linejoin:miter;stroke-opacity:1;font-family:Arial"
       id="Sentence4" />
    <path
       d="M 1939.7155,2069.4188 L 1938.7801,2069.3022 L 1938.8036,2069.1133 L 1939.7391,2069.2299 L 1939.7155,2069.4188 M 1939.3576,2068.4014 L 1939.3675,2068.5823 C 1939.3315,2068.5838 1939.3032,2068.5941 1939.2827,2068.6131 C 1939.2622,2068.6317 1939.2499,2068.6579 1939.2457,2068.6914 C 1939.2401,2068.7361 1939.2511,2068.7738 1939.2789,2068.8045 C 1939.3062,2068.8346 1939.3561,2068.8542 1939.4283,2068.8632 C 1939.5088,2068.8733 1939.5673,2068.8669 1939.6037,2068.8443 C 1939.6404,2068.8212 1939.6615,2068.7869 1939.6671,2068.7414 C 1939.6714,2068.7074 1939.6652,2068.6783 1939.6489,2068.6542 C 1939.6319,2068.6301 1939.6005,2068.6106 1939.5544,2068.5958 L 1939.6063,2068.4234 C 1939.6849,2068.4518 1939.7416,2068.4944 1939.7764,2068.5515 C 1939.8112,2068.6085 1939.8232,2068.6807 1939.8123,2068.7679 C 1939.7999,2068.867 1939.7587,2068.9422 1939.6888,2068.9936 C 1939.619,2069.0445 1939.5288,2069.0631 1939.4181,2069.0493 C 1939.3063,2069.0354 1939.223,2068.9949 1939.1682,2068.9281 C 1939.1131,2068.8611 1939.0918,2068.7772 1939.1044,2068.6764 C 1939.1147,2068.5939 1939.1407,2068.5306 1939.1825,2068.4865 C 1939.2239,2068.442 1939.2822,2068.4137 1939.3576,2068.4014 M 1938.9388,2068.0292 L 1939.2827,2068.072 C 1939.2223,2068.0058 1939.1971,2067.9324 1939.2071,2067.852 C 1939.2123,2067.8107 1939.2246,2067.7745 1939.244,2067.7432 C 1939.2635,2067.7119 1939.2862,2067.6894 1939.312,2067.6758 C 1939.338,2067.6618 1939.3658,2067.6536 1939.3954,2067.6512 C 1939.4252,2067.6485 1939.4704,2067.6508 1939.5313,2067.6584 L 1939.9288,2067.708 L 1939.9064,2067.8873 L 1939.5485,2067.8427 C 1939.4775,2067.8338 1939.4319,2067.8316 1939.4119,2067.836 C 1939.392,2067.8405 1939.3753,2067.8507 1939.3621,2067.8668 C 1939.3485,2067.8823 1939.34,2067.9031 1939.3368,2067.929 C 1939.3331,2067.9588 1939.337,2067.9863 1939.3486,2068.0115 C 1939.3602,2068.0367 1939.3798,2068.0567 1939.4078,2068.0714 C 1939.4355,2068.0856 1939.4778,2068.0964 1939.5347,2068.1035 L 1939.8742,2068.1458 L 1939.8519,2068.3251 L 1938.9164,2068.2085 L 1938.9388,2068.0292 M 1939.9877,2067.2352 L 1939.848,2067.2178 L 1939.588,2066.9274 C 1939.5456,2066.8798 1939.5156,2066.8447 1939.4982,2066.8223 C 1939.4968,2066.8433 1939.4942,2066.8708 1939.4904,2066.9049 L 1939.4618,2067.1444 L 1939.3132,2067.1258 L 1939.383,2066.5656 L 1939.51,2066.5814 L 1939.7763,2066.8777 L 1939.8639,2066.9813 C 1939.8671,2066.9312 1939.8695,2066.9001 1939.871,2066.8882 L 1939.9056,2066.6106 L 1940.0632,2066.6302 L 1939.9877,2067.2352 M 1939.3086,2066.4137 L 1939.1427,2066.393 L 1939.1651,2066.2137 L 1939.331,2066.2344 L 1939.3086,2066.4137 M 1940.0782,2066.5096 L 1939.4005,2066.4252 L 1939.4229,2066.2459 L 1940.1005,2066.3303 L 1940.0782,2066.5096 M 1939.4844,2065.752 L 1939.6273,2065.7698 L 1939.6121,2065.8923 L 1939.8852,2065.9264 C 1939.9405,2065.9333 1939.973,2065.9362 1939.9826,2065.9352 C 1939.9918,2065.9338 1940,2065.9294 1940.0069,2065.9221 C 1940.0139,2065.9143 1940.0182,2065.9045 1940.0197,2065.8926 C 1940.0217,2065.876 1940.019,2065.8513 1940.0115,2065.8183 L 1940.1524,2065.8203 C 1940.1652,2065.8642 1940.1682,2065.9126 1940.1616,2065.9654 C 1940.1576,2065.9976 1940.1486,2066.0261 1940.1348,2066.0508 C 1940.1204,2066.0753 1940.1041,2066.0927 1940.0855,2066.1029 C 1940.0666,2066.1127 1940.0421,2066.1181 1940.0122,2066.1191 C 1939.9909,2066.1203 1939.9486,2066.117 1939.8851,2066.1091 L 1939.5896,2066.0722 L 1939.5794,2066.1546 L 1939.4365,2066.1368 L 1939.4467,2066.0544 L 1939.3121,2066.0376 L 1939.2299,2065.8447 L 1939.4692,2065.8745 L 1939.4844,2065.752 M 1939.5389,2065.3156 L 1939.6817,2065.3334 L 1939.6665,2065.4558 L 1939.9397,2065.4899 C 1939.9949,2065.4968 1940.0274,2065.4997 1940.037,2065.4988 C 1940.0463,2065.4973 1940.0544,2065.493 1940.0613,2065.4856 C 1940.0683,2065.4779 1940.0726,2065.468 1940.0741,2065.4561 C 1940.0762,2065.4395 1940.0734,2065.4147 1940.0659,2065.3819 L 1940.2068,2065.3839 C 1940.2196,2065.4278 1940.2226,2065.4762 1940.2161,2065.5289 C 1940.212,2065.5612 1940.203,2065.5897 1940.1892,2065.6143 C 1940.1748,2065.6389 1940.1585,2065.6563 1940.1399,2065.6665 C 1940.121,2065.6762 1940.0965,2065.6817 1940.0666,2065.6827 C 1940.0453,2065.6838 1940.003,2065.6806 1939.9396,2065.6727 L 1939.644,2065.6358 L 1939.6338,2065.7181 L 1939.4909,2065.7003 L 1939.5011,2065.618 L 1939.3665,2065.6012 L 1939.2843,2065.4082 L 1939.5236,2065.438 L 1939.5389,2065.3156 M 1940.0655,2064.855 L 1940.1177,2064.68 C 1940.1803,2064.7112 1940.2258,2064.7537 1940.2541,2064.8078 C 1940.2819,2064.8614 1940.2913,2064.9254 1940.282,2064.9999 C 1940.2673,2065.1177 1940.2179,2065.2002 1940.1339,2065.2471 C 1940.0666,2065.2841 1939.9859,2065.2967 1939.8919,2065.285 C 1939.7796,2065.271 1939.6955,2065.2307 1939.6394,2065.1641 C 1939.5829,2065.0974 1939.5603,2065.0192 1939.5715,2064.9294 C 1939.584,2064.8286 1939.6273,2064.7533 1939.7013,2064.7033 C 1939.775,2064.6533 1939.8804,2064.6381 1940.0174,2064.6578 L 1939.9614,2065.107 C 1940.0147,2065.1124 1940.058,2065.103 1940.0912,2065.0792 C 1940.1241,2065.0551 1940.143,2065.0225 1940.1482,2064.9813 C 1940.1517,2064.9532 1940.147,2064.9286 1940.1341,2064.9076 C 1940.1211,2064.8865 1940.0983,2064.869 1940.0655,2064.855 M 1939.8855,2064.8221 C 1939.8334,2064.817 1939.7924,2064.8255 1939.7625,2064.8476 C 1939.732,2064.8697 1939.7145,2064.8991 1939.71,2064.9357 C 1939.7051,2064.9748 1939.7153,2065.0089 1939.7406,2065.038 C 1939.7659,2065.0671 1939.8031,2065.0845 1939.852,2065.0902 L 1939.8855,2064.8221 M 1940.3443,2064.3752 L 1940.3219,2064.5545 L 1939.6443,2064.47 L 1939.665,2064.3035 L 1939.7614,2064.3155 C 1939.7194,2064.2813 1939.6926,2064.252 1939.6809,2064.2277 C 1939.6694,2064.203 1939.6654,2064.1761 1939.669,2064.1472 C 1939.6741,2064.1063 1939.6902,2064.0684 1939.7175,2064.0333 L 1939.8669,2064.1083 C 1939.8436,2064.1361 1939.8303,2064.1629 1939.827,2064.1888 C 1939.8239,2064.214 1939.8283,2064.2362 1939.8401,2064.2553 C 1939.8516,2064.2744 1939.8747,2064.2913 1939.9097,2064.3061 C 1939.9446,2064.3204 1940.0197,2064.3347 1940.135,2064.3491 L 1940.3443,2064.3752 M 1940.2195,2063.6196 L 1940.2717,2063.4446 C 1940.3343,2063.4758 1940.3798,2063.5184 1940.4081,2063.5725 C 1940.4359,2063.626 1940.4453,2063.6901 1940.436,2063.7645 C 1940.4213,2063.8823 1940.372,2063.9647 1940.2879,2064.0117 C 1940.2206,2064.0488 1940.1399,2064.0614 1940.0459,2064.0497 C 1939.9336,2064.0357 1939.8495,2063.9953 1939.7934,2063.9287 C 1939.7369,2063.8621 1939.7143,2063.7839 1939.7255,2063.6941 C 1939.738,2063.5933 1939.7813,2063.5178 1939.8553,2063.4679 C 1939.929,2063.4179 1940.0344,2063.4028 1940.1714,2063.4225 L 1940.1154,2063.8717 C 1940.1687,2063.877 1940.212,2063.8677 1940.2452,2063.8437 C 1940.2781,2063.8198 1940.297,2063.7872 1940.3022,2063.7459 C 1940.3057,2063.7178 1940.301,2063.6933 1940.2881,2063.6722 C 1940.2751,2063.6511 1940.2523,2063.6336 1940.2195,2063.6196 M 1940.0394,2063.5868 C 1939.9874,2063.5816 1939.9464,2063.5901 1939.9165,2063.6123 C 1939.886,2063.6344 1939.8685,2063.6637 1939.864,2063.7004 C 1939.8591,2063.7395 1939.8693,2063.7736 1939.8946,2063.8026 C 1939.9199,2063.8317 1939.9571,2063.8491 1940.006,2063.8548 L 1940.0394,2063.5868 M 1940.5777,2062.503 L 1940.4762,2062.4903 C 1940.5093,2062.5195 1940.5337,2062.5556 1940.5495,2062.5986 C 1940.5654,2062.6412 1940.5706,2062.6849 1940.565,2062.7295 C 1940.5594,2062.775 1940.5442,2062.8146 1940.5197,2062.8482 C 1940.4952,2062.882 1940.4639,2062.9046 1940.4257,2062.9162 C 1940.3875,2062.9279 1940.3365,2062.9298 1940.2727,2062.9218 L 1939.8439,2062.8684 L 1939.8663,2062.6891 L 1940.1777,2062.7279 C 1940.2729,2062.7398 1940.3319,2062.7439 1940.3543,2062.7401 C 1940.3765,2062.7361 1940.395,2062.7261 1940.4099,2062.7102 C 1940.4244,2062.6943 1940.4333,2062.6729 1940.4367,2062.6461 C 1940.4405,2062.6155 1940.4357,2062.587 1940.4221,2062.5607 C 1940.4081,2062.5343 1940.3893,2062.5151 1940.3657,2062.5031 C 1940.3418,2062.4911 1940.2812,2062.479 1940.1843,2062.4669 L 1939.8984,2062.4313 L 1939.9208,2062.252 L 1940.5984,2062.3364 L 1940.5777,2062.503 M 1940.6985,2061.5337 L 1940.6761,2061.713 L 1940.3303,2061.6699 C 1940.2572,2061.6607 1940.2095,2061.6587 1940.1872,2061.6637 C 1940.1646,2061.6686 1940.1462,2061.6791 1940.1321,2061.695 C 1940.118,2061.7106 1940.1095,2061.7305 1940.1065,2061.7547 C 1940.1026,2061.7858 1940.1077,2061.8147 1940.1216,2061.8416 C 1940.1356,2061.8683 1940.156,2061.8882 1940.1829,2061.901 C 1940.2099,2061.9134 1940.2612,2061.9244 1940.3369,2061.9338 L 1940.6438,2061.9721 L 1940.6215,2062.1514 L 1939.9438,2062.0669 L 1939.9646,2061.9004 L 1940.0641,2061.9128 C 1939.995,2061.8441 1939.966,2061.7649 1939.9772,2061.6751 C 1939.9821,2061.6355 1939.9938,2061.6003 1940.0123,2061.5693 C 1940.0305,2061.5384 1940.0516,2061.5159 1940.0758,2061.5021 C 1940.1001,2061.4878 1940.1266,2061.4793 1940.1555,2061.4763 C 1940.1844,2061.4731 1940.2251,2061.4746 1940.2774,2061.4812 L 1940.6985,2061.5337 M 1940.7204,2061.3576 L 1939.785,2061.241 L 1939.8073,2061.0617 L 1940.3038,2061.1236 L 1940.0913,2060.8839 L 1940.1188,2060.6631 L 1940.3375,2060.9255 L 1940.7986,2060.731 L 1940.7745,2060.9243 L 1940.4489,2061.0567 L 1940.5259,2061.1513 L 1940.7428,2061.1783 L 1940.7204,2061.3576 M 1940.4584,2060.6217 C 1940.3988,2060.6143 1940.343,2060.5926 1940.291,2060.5562 C 1940.2389,2060.5199 1940.2015,2060.4731 1940.1788,2060.4159 C 1940.1562,2060.3582 1940.1491,2060.2962 1940.1573,2060.2298 C 1940.1701,2060.1273 1940.2139,2060.0474 1940.2889,2059.9902 C 1940.3634,2059.933 1940.4516,2059.9107 1940.5532,2059.9234 C 1940.6557,2059.9362 1940.7367,2059.9799 1940.7961,2060.0548 C 1940.855,2060.129 1940.8783,2060.2164 1940.8658,2060.3168 C 1940.8581,2060.3789 1940.8366,2060.4365 1940.8014,2060.4896 C 1940.7664,2060.5422 1940.7199,2060.5799 1940.6623,2060.6025 C 1940.6042,2060.6251 1940.5362,2060.6315 1940.4584,2060.6217 M 1940.4909,2060.4393 C 1940.5581,2060.4476 1940.6115,2060.4381 1940.6513,2060.4106 C 1940.6909,2060.3832 1940.7137,2060.346 1940.7195,2060.2993 C 1940.7254,2060.2524 1940.7124,2060.2111 1940.6806,2060.1751 C 1940.6489,2060.1388 1940.599,2060.1164 1940.5309,2060.1079 C 1940.4645,2060.0996 1940.4115,2060.1092 1940.3717,2060.1366 C 1940.332,2060.1637 1940.3093,2060.2006 1940.3035,2060.2474 C 1940.2976,2060.2942 1940.3106,2060.3358 1940.3423,2060.3721 C 1940.3742,2060.4085 1940.4236,2060.4309 1940.4909,2060.4393 M 1940.9884,2059.2085 L 1940.966,2059.3878 L 1940.6202,2059.3447 C 1940.547,2059.3355 1940.4993,2059.3334 1940.477,2059.3384 C 1940.4545,2059.3434 1940.436,2059.3538 1940.4219,2059.3698 C 1940.4079,2059.3853 1940.3994,2059.4052 1940.3964,2059.4295 C 1940.3925,2059.4606 1940.3976,2059.4894 1940.4114,2059.5163 C 1940.4254,2059.5431 1940.4458,2059.5629 1940.4728,2059.5757 C 1940.4997,2059.5881 1940.5511,2059.5991 1940.6268,2059.6085 L 1940.9337,2059.6468 L 1940.9114,2059.8261 L 1940.2337,2059.7416 L 1940.2545,2059.5751 L 1940.354,2059.5875 C 1940.2849,2059.5188 1940.2558,2059.4396 1940.267,2059.3498 C 1940.2719,2059.3103 1940.2837,2059.275 1940.3022,2059.244 C 1940.3204,2059.2131 1940.3415,2059.1907 1940.3657,2059.1768 C 1940.3899,2059.1626 1940.4165,2059.154 1940.4454,2059.1511 C 1940.4743,2059.1478 1940.5149,2059.1494 1940.5672,2059.156 L 1940.9884,2059.2085 M 1940.3722,2058.6307 L 1940.5151,2058.6485 L 1940.4998,2058.7711 L 1940.773,2058.8051 C 1940.8283,2058.812 1940.8607,2058.8149 1940.8703,2058.814 C 1940.8796,2058.8126 1940.8877,2058.8081 1940.8947,2058.8008 C 1940.9017,2058.793 1940.9059,2058.7832 1940.9074,2058.7713 C 1940.9095,2058.7547 1940.9067,2058.73 1940.8992,2058.697 L 1941.0402,2058.6991 C 1941.0529,2058.743 1941.056,2058.7913 1941.0494,2058.8441 C 1941.0454,2058.8764 1941.0364,2058.9049 1941.0225,2058.9295 C 1941.0082,2058.9541 1940.9918,2058.9715 1940.9732,2058.9816 C 1940.9543,2058.9914 1940.9299,2058.9968 1940.8999,2058.9978 C 1940.8786,2058.9991 1940.8363,2058.9957 1940.7729,2058.9878 L 1940.4774,2058.951 L 1940.4671,2059.0333 L 1940.3242,2059.0155 L 1940.3345,2058.9332 L 1940.1998,2058.9164 L 1940.1177,2058.7234 L 1940.3569,2058.7532 L 1940.3722,2058.6307 M 1941.0869,2058.4178 L 1941.0646,2058.5971 L 1940.3869,2058.5126 L 1940.4077,2058.3461 L 1940.504,2058.3581 C 1940.462,2058.324 1940.4352,2058.2947 1940.4236,2058.2703 C 1940.412,2058.2456 1940.408,2058.2187 1940.4116,2058.1898 C 1940.4167,2058.1489 1940.4328,2058.111 1940.4602,2058.0759 L 1940.6096,2058.151 C 1940.5862,2058.1787 1940.5729,2058.2056 1940.5697,2058.2315 C 1940.5666,2058.2566 1940.5709,2058.2788 1940.5828,2058.298 C 1940.5943,2058.3171 1940.6174,2058.334 1940.6523,2058.3488 C 1940.6872,2058.363 1940.7623,2058.3773 1940.8776,2058.3917 L 1941.0869,2058.4178 M 1940.7753,2058.0796 C 1940.7157,2058.0722 1940.6599,2058.0503 1940.6079,2058.014 C 1940.5558,2057.9777 1940.5184,2057.9309 1940.4957,2057.8737 C 1940.4732,2057.8159 1940.466,2057.754 1940.4742,2057.6876 C 1940.487,2057.5851 1940.5308,2057.5052 1940.6058,2057.448 C 1940.6803,2057.3908 1940.7685,2057.3685 1940.8701,2057.3812 C 1940.9726,2057.394 1941.0536,2057.4377 1941.113,2057.5125 C 1941.172,2057.5868 1941.1952,2057.6743 1941.1827,2057.7746 C 1941.175,2057.8367 1941.1535,2057.8943 1941.1184,2057.9474 C 1941.0833,2058 1941.0369,2058.0377 1940.9792,2058.0603 C 1940.9211,2058.0829 1940.8532,2058.0893 1940.7753,2058.0796 M 1940.8078,2057.897 C 1940.875,2057.9054 1940.9285,2057.8959 1940.9682,2057.8684 C 1941.0079,2057.841 1941.0306,2057.8038 1941.0365,2057.7571 C 1941.0423,2057.7102 1941.0293,2057.6689 1940.9975,2057.6329 C 1940.9658,2057.5966 1940.9159,2057.5741 1940.8478,2057.5657 C 1940.7814,2057.5574 1940.7284,2057.567 1940.6886,2057.5944 C 1940.649,2057.6215 1940.6262,2057.6584 1940.6204,2057.7052 C 1940.6146,2057.7519 1940.6275,2057.7936 1940.6593,2057.8299 C 1940.6911,2057.8663 1940.7405,2057.8887 1940.8078,2057.897 M 1941.2284,2057.2827 L 1940.293,2057.166 L 1940.3153,2056.9867 L 1941.2508,2057.1033 L 1941.2284,2057.2827 M 1941.2736,2056.9202 L 1940.3382,2056.8036 L 1940.3605,2056.6242 L 1941.296,2056.7409 L 1941.2736,2056.9202 M 1940.5492,2056.4618 L 1940.3833,2056.4412 L 1940.4057,2056.2618 L 1940.5716,2056.2825 L 1940.5492,2056.4618 M 1941.3188,2056.5578 L 1940.6411,2056.4733 L 1940.6635,2056.294 L 1941.3411,2056.3785 L 1941.3188,2056.5578 M 1941.1973,2055.7759 L 1941.2495,2055.6011 C 1941.3121,2055.6321 1941.3576,2055.6748 1941.3858,2055.7288 C 1941.4137,2055.7825 1941.4231,2055.8465 1941.4138,2055.9209 C 1941.3991,2056.0387 1941.3497,2056.1211 1941.2657,2056.1681 C 1941.1984,2056.2051 1941.1177,2056.2177 1941.0237,2056.206 C 1940.9114,2056.192 1940.8272,2056.1517 1940.7712,2056.0851 C 1940.7147,2056.0184 1940.6921,2055.9402 1940.7033,2055.8505 C 1940.7158,2055.7497 1940.7591,2055.6742 1940.8331,2055.6243 C 1940.9068,2055.5743 1941.0122,2055.5592 1941.1492,2055.5788 L 1941.0932,2056.028 C 1941.1465,2056.0334 1941.1898,2056.0241 1941.223,2056.0001 C 1941.2558,2055.9762 1941.2748,2055.9435 1941.28,2055.9022 C 1941.2835,2055.8743 1941.2788,2055.8497 1941.2659,2055.8286 C 1941.2529,2055.8076 1941.2301,2055.79 1941.1973,2055.7759 M 1941.0172,2055.7431 C 1940.9652,2055.7379 1940.9242,2055.7464 1940.8942,2055.7687 C 1940.8638,2055.7908 1940.8463,2055.8202 1940.8418,2055.8567 C 1940.8369,2055.8959 1940.8471,2055.93 1940.8724,2055.9591 C 1940.8977,2055.9881 1940.9349,2056.0055 1940.9838,2056.0111 L 1941.0172,2055.7431 M 1941.4761,2055.2962 L 1941.4537,2055.4755 L 1940.776,2055.3911 L 1940.7968,2055.2245 L 1940.8932,2055.2365 C 1940.8512,2055.2023 1940.8244,2055.1731 1940.8127,2055.1487 C 1940.8012,2055.1239 1940.7972,2055.0971 1940.8008,2055.0682 C 1940.8059,2055.0273 1940.822,2054.9894 1940.8493,2054.9543 L 1940.9987,2055.0293 C 1940.9754,2055.0571 1940.9621,2055.0839 1940.9588,2055.1099 C 1940.9557,2055.135 1940.9601,2055.1571 1940.9719,2055.1764 C 1940.9834,2055.1954 1941.0065,2055.2124 1941.0415,2055.2271 C 1941.0764,2055.2414 1941.1515,2055.2558 1941.2668,2055.2701 L 1941.4761,2055.2962 M 1940.8791,2054.5647 L 1941.022,2054.5825 L 1941.0067,2054.705 L 1941.2799,2054.7391 C 1941.3351,2054.746 1941.3676,2054.7489 1941.3772,2054.748 C 1941.3865,2054.7465 1941.3946,2054.7421 1941.4015,2054.7348 C 1941.4085,2054.727 1941.4128,2054.7172 1941.4143,2054.7053 C 1941.4163,2054.6887 1941.4136,2054.664 1941.4061,2054.6311 L 1941.547,2054.633 C 1941.5598,2054.6769 1941.5628,2054.7253 1941.5563,2054.7781 C 1941.5522,2054.8104 1941.5432,2054.8388 1941.5294,2054.8635 C 1941.515,2054.888 1941.4987,2054.9054 1941.4801,2054.9156 C 1941.4612,2054.9255 1941.4368,2054.9308 1941.4068,2054.9318 C 1941.3855,2054.933 1941.3432,2054.9297 1941.2798,2054.9218 L 1940.9843,2054.8849 L 1940.974,2054.9673 L 1940.8311,2054.9495 L 1940.8414,2054.8671 L 1940.7067,2054.8503 L 1940.6245,2054.6574 L 1940.8638,2054.6872 L 1940.8791,2054.5647"
       style="font-size:1.31695831px;font-style:normal;font-variant:normal;font-weight:bold;font-stretch:normal;text-align:start;line-height:125%;writing-mode:lr-tb;text-anchor:start;fill:#ffffff;fill-opacity:1;stroke:none;stroke-width:1px;stroke-linecap:butt;stroke-linejoin:miter;stroke-opacity:1;font-family:Arial"
       id="Sentence5" />
    <path
       d="M 1875.5803,2084.9915 L 1875.6646,2086.3365 C 1875.4461,2086.3656 1875.2797,2086.4249 1875.1653,2086.5144 C 1874.9801,2086.66 1874.8875,2086.8681 1874.8875,2087.1385 C 1874.8875,2087.3403 1874.9343,2087.4953 1875.0279,2087.6035 C 1875.1237,2087.7138 1875.2339,2087.7689 1875.3588,2087.7689 C 1875.4773,2087.7689 1875.5834,2087.7169 1875.6771,2087.6129 C 1875.7707,2087.5089 1875.8591,2087.2675 1875.9423,2086.8889 C 1876.0817,2086.2689 1876.2669,2085.8268 1876.4978,2085.5626 C 1876.7288,2085.2962 1877.0232,2085.1631 1877.381,2085.1631 C 1877.6161,2085.1631 1877.8377,2085.2307 1878.0457,2085.3659 C 1878.2559,2085.5033 1878.4202,2085.7082 1878.5388,2085.9807 C 1878.6595,2086.2554 1878.7198,2086.6309 1878.7198,2087.1073 C 1878.7198,2087.692 1878.6106,2088.1372 1878.3921,2088.443 C 1878.1758,2088.7509 1877.8304,2088.934 1877.356,2088.9923 L 1877.278,2087.6597 C 1877.484,2087.6243 1877.6338,2087.5494 1877.7274,2087.435 C 1877.821,2087.3227 1877.8678,2087.1666 1877.8679,2086.9669 C 1877.8678,2086.8025 1877.8325,2086.6787 1877.7617,2086.5955 C 1877.6931,2086.5123 1877.6088,2086.4707 1877.509,2086.4707 C 1877.4361,2086.4707 1877.3706,2086.505 1877.3124,2086.5737 C 1877.252,2086.6403 1877.1958,2086.7984 1877.1438,2087.048 C 1877.0107,2087.6659 1876.8754,2088.1081 1876.7381,2088.3744 C 1876.6029,2088.6427 1876.4344,2088.8373 1876.2326,2088.958 C 1876.0308,2089.0807 1875.805,2089.1421 1875.5554,2089.1421 C 1875.262,2089.1421 1874.9915,2089.0609 1874.744,2088.8987 C 1874.4964,2088.7364 1874.3081,2088.5096 1874.1791,2088.2183 C 1874.0522,2087.9271 1873.9887,2087.5598 1873.9887,2087.1167 C 1873.9887,2086.3386 1874.1385,2085.7997 1874.4381,2085.5001 C 1874.7377,2085.2005 1875.1185,2085.031 1875.5803,2084.9915 M 1875.3619,2092.2441 L 1875.2246,2093.4519 C 1874.9728,2093.3853 1874.7544,2093.2761 1874.5692,2093.1242 C 1874.3861,2092.9723 1874.2436,2092.7778 1874.1417,2092.5406 C 1874.0397,2092.3055 1873.9887,2092.0059 1873.9887,2091.6418 C 1873.9887,2091.2902 1874.021,2090.9969 1874.0855,2090.7618 C 1874.1521,2090.5287 1874.2582,2090.328 1874.4038,2090.1594 C 1874.5515,2089.9909 1874.7242,2089.8588 1874.9218,2089.7631 C 1875.1195,2089.6674 1875.3816,2089.6196 1875.7083,2089.6196 C 1876.0495,2089.6196 1876.3335,2089.6778 1876.5602,2089.7943 C 1876.7267,2089.8796 1876.8754,2089.9961 1877.0065,2090.1438 C 1877.1397,2090.2916 1877.2385,2090.4434 1877.303,2090.5995 C 1877.4049,2090.8471 1877.4559,2091.1643 1877.4559,2091.5513 C 1877.4559,2092.0922 1877.3592,2092.5042 1877.1657,2092.7871 C 1876.9722,2093.0722 1876.6892,2093.2719 1876.3168,2093.3863 L 1876.1577,2092.1911 C 1876.2991,2092.1536 1876.4052,2092.085 1876.476,2091.9851 C 1876.5488,2091.8873 1876.5852,2091.7552 1876.5852,2091.5888 C 1876.5852,2091.3786 1876.5093,2091.208 1876.3574,2091.077 C 1876.2076,2090.948 1875.9798,2090.8835 1875.6739,2090.8835 C 1875.4014,2090.8835 1875.1944,2090.948 1875.0529,2091.077 C 1874.9114,2091.2059 1874.8407,2091.3703 1874.8407,2091.57 C 1874.8407,2091.7365 1874.8834,2091.8759 1874.9687,2091.9882 C 1875.054,2092.1026 1875.185,2092.1879 1875.3619,2092.2441 M 1878.6418,2094.0417 L 1878.6418,2095.3118 L 1876.9566,2095.3118 C 1877.1355,2095.4845 1877.2635,2095.6562 1877.3404,2095.8268 C 1877.4174,2095.9974 1877.4559,2096.1992 1877.4559,2096.4322 C 1877.4559,2096.7776 1877.3508,2097.0491 1877.1407,2097.2467 C 1876.9306,2097.4464 1876.6081,2097.5463 1876.1733,2097.5463 L 1874.0668,2097.5463 L 1874.0668,2096.2699 L 1875.8893,2096.2699 C 1876.0973,2096.2699 1876.244,2096.2314 1876.3293,2096.1544 C 1876.4167,2096.0775 1876.4604,2095.9693 1876.4604,2095.8299 C 1876.4604,2095.6759 1876.4021,2095.5511 1876.2856,2095.4554 C 1876.1691,2095.3597 1875.96,2095.3118 1875.6583,2095.3118 L 1874.0668,2095.3118 L 1874.0668,2094.0417 L 1878.6418,2094.0417 M 1878.6418,2098.3546 L 1878.6418,2099.6279 L 1874.0668,2099.6279 L 1874.0668,2098.3546 L 1878.6418,2098.3546 M 1878.6418,2100.4923 L 1878.6418,2101.7625 L 1877.7773,2101.7625 L 1877.7773,2100.4923 L 1878.6418,2100.4923 M 1877.381,2100.4923 L 1877.381,2101.7625 L 1874.0668,2101.7625 L 1874.0668,2100.4923 L 1877.381,2100.4923 M 1875.4087,2106.2595 L 1875.4087,2103.713 C 1875.2048,2103.7358 1875.0529,2103.791 1874.9531,2103.8784 C 1874.8095,2104.0011 1874.7377,2104.1613 1874.7377,2104.359 C 1874.7377,2104.4838 1874.7689,2104.6024 1874.8313,2104.7147 C 1874.8709,2104.7834 1874.9406,2104.8572 1875.0404,2104.9363 L 1874.925,2106.1877 C 1874.5921,2105.9963 1874.3528,2105.7654 1874.2072,2105.4949 C 1874.0636,2105.2244 1873.9919,2104.8364 1873.9919,2104.3309 C 1873.9919,2103.8919 1874.0532,2103.5465 1874.176,2103.2948 C 1874.3008,2103.043 1874.4974,2102.8339 1874.7658,2102.6675 C 1875.0363,2102.5031 1875.3535,2102.421 1875.7176,2102.421 C 1876.2357,2102.421 1876.6549,2102.5864 1876.9753,2102.9172 C 1877.2957,2103.25 1877.4559,2103.7088 1877.4559,2104.2934 C 1877.4559,2104.7678 1877.3841,2105.1423 1877.2406,2105.4169 C 1877.097,2105.6915 1876.889,2105.9006 1876.6164,2106.0442 C 1876.3439,2106.1877 1875.9891,2106.2595 1875.5522,2106.2595 L 1875.4087,2106.2595 M 1876.0172,2104.9675 C 1876.2627,2104.9425 1876.4385,2104.876 1876.5446,2104.7678 C 1876.6507,2104.6617 1876.7038,2104.5212 1876.7038,2104.3465 C 1876.7038,2104.1447 1876.6237,2103.9834 1876.4635,2103.8628 C 1876.3636,2103.7858 1876.2149,2103.7369 1876.0172,2103.7161 L 1876.0172,2104.9675 M 1877.381,2106.8618 L 1877.381,2108.0508 L 1876.838,2108.0508 C 1877.0731,2108.1653 1877.2343,2108.2828 1877.3217,2108.4035 C 1877.4112,2108.5262 1877.4559,2108.6771 1877.4559,2108.856 C 1877.4559,2109.0432 1877.3977,2109.2482 1877.2811,2109.4708 L 1876.3761,2109.0776 C 1876.4385,2108.9278 1876.4697,2108.8092 1876.4697,2108.7218 C 1876.4697,2108.5553 1876.4011,2108.4264 1876.2638,2108.3348 C 1876.0703,2108.2037 1875.7083,2108.1382 1875.1777,2108.1382 L 1874.0668,2108.1382 L 1874.0668,2106.8618 L 1877.381,2106.8618 M 1875.4087,2113.3624 L 1875.4087,2110.8158 C 1875.2048,2110.8387 1875.0529,2110.8938 1874.9531,2110.9812 C 1874.8095,2111.104 1874.7377,2111.2642 1874.7377,2111.4618 C 1874.7377,2111.5867 1874.7689,2111.7052 1874.8313,2111.8176 C 1874.8709,2111.8862 1874.9406,2111.9601 1875.0404,2112.0392 L 1874.925,2113.2906 C 1874.5921,2113.0992 1874.3528,2112.8683 1874.2072,2112.5978 C 1874.0636,2112.3273 1873.9919,2111.9393 1873.9919,2111.4337 C 1873.9919,2110.9948 1874.0532,2110.6494 1874.176,2110.3976 C 1874.3008,2110.1459 1874.4974,2109.9368 1874.7658,2109.7704 C 1875.0363,2109.606 1875.3535,2109.5238 1875.7176,2109.5238 C 1876.2357,2109.5238 1876.6549,2109.6892 1876.9753,2110.02 C 1877.2957,2110.3529 1877.4559,2110.8117 1877.4559,2111.3963 C 1877.4559,2111.8706 1877.3841,2112.2451 1877.2406,2112.5198 C 1877.097,2112.7944 1876.889,2113.0035 1876.6164,2113.147 C 1876.3439,2113.2906 1875.9891,2113.3624 1875.5522,2113.3624 L 1875.4087,2113.3624 M 1876.0172,2112.0704 C 1876.2627,2112.0454 1876.4385,2111.9788 1876.5446,2111.8706 C 1876.6507,2111.7645 1876.7038,2111.6241 1876.7038,2111.4493 C 1876.7038,2111.2475 1876.6237,2111.0863 1876.4635,2110.9656 C 1876.3636,2110.8886 1876.2149,2110.8398 1876.0172,2110.8189 L 1876.0172,2112.0704 M 1877.381,2113.9522 L 1877.381,2115.135 L 1876.8411,2115.135 C 1877.0616,2115.3118 1877.2187,2115.4907 1877.3124,2115.6717 C 1877.4081,2115.8527 1877.4559,2116.0733 1877.4559,2116.3333 C 1877.4559,2116.685 1877.3508,2116.9596 1877.1407,2117.1572 C 1876.9327,2117.357 1876.6102,2117.4568 1876.1733,2117.4568 L 1874.0668,2117.4568 L 1874.0668,2116.1804 L 1875.8893,2116.1804 C 1876.0973,2116.1804 1876.244,2116.1419 1876.3293,2116.065 C 1876.4167,2115.988 1876.4604,2115.8798 1876.4604,2115.7404 C 1876.4604,2115.5864 1876.4021,2115.4616 1876.2856,2115.3659 C 1876.1691,2115.2702 1875.96,2115.2224 1875.6583,2115.2224 L 1874.0668,2115.2224 L 1874.0668,2113.9522 L 1877.381,2113.9522"
       style="font-size:6.39133787px;font-style:normal;font-variant:normal;font-weight:normal;font-stretch:normal;text-align:start;line-height:125%;writing-mode:lr-tb;text-anchor:start;fill:#000000;fill-opacity:1;stroke:none;stroke-width:1px;stroke-linecap:butt;stroke-linejoin:miter;stroke-opacity:1;font-family:Arial Black"
       id="Sentence6" />
    <path
       d="M 1872.2859,2085.4907 L 1872.2859,2086.8162 L 1871.9656,2086.8162 L 1871.2309,2086.0949 L 1871.2309,2086.8606 L 1870.8568,2086.8606 L 1870.8568,2085.4369 L 1871.2121,2085.4369 L 1871.9118,2086.1205 L 1871.9118,2085.4907 L 1872.2859,2085.4907 M 1872.8296,2087.1069 L 1872.8296,2087.6546 L 1872.4568,2087.6546 L 1872.4568,2087.1069 L 1872.8296,2087.1069 M 1872.2859,2087.1069 L 1872.2859,2087.6546 L 1870.8568,2087.6546 L 1870.8568,2087.1069 L 1872.2859,2087.1069 M 1871.4354,2089.5937 L 1871.4354,2088.4956 C 1871.3475,2088.5055 1871.282,2088.5293 1871.239,2088.5669 C 1871.1771,2088.6199 1871.1461,2088.6889 1871.1461,2088.7742 C 1871.1461,2088.828 1871.1596,2088.8791 1871.1865,2088.9276 C 1871.2035,2088.9572 1871.2336,2088.989 1871.2766,2089.0231 L 1871.2269,2089.5627 C 1871.0833,2089.4802 1870.9801,2089.3806 1870.9173,2089.264 C 1870.8554,2089.1474 1870.8245,2088.9801 1870.8245,2088.7621 C 1870.8245,2088.5728 1870.851,2088.4238 1870.9039,2088.3153 C 1870.9577,2088.2067 1871.0425,2088.1166 1871.1582,2088.0448 C 1871.2749,2087.9739 1871.4117,2087.9385 1871.5687,2087.9385 C 1871.792,2087.9385 1871.9728,2088.0098 1872.111,2088.1525 C 1872.2491,2088.296 1872.3182,2088.4938 1872.3182,2088.7459 C 1872.3182,2088.9505 1872.2873,2089.1119 1872.2254,2089.2304 C 1872.1635,2089.3488 1872.0737,2089.4389 1871.9562,2089.5008 C 1871.8387,2089.5627 1871.6857,2089.5937 1871.4973,2089.5937 L 1871.4354,2089.5937 M 1871.6978,2089.0366 C 1871.8037,2089.0258 1871.8795,2088.9971 1871.9253,2088.9505 C 1871.971,2088.9047 1871.9939,2088.8441 1871.9939,2088.7688 C 1871.9939,2088.6818 1871.9594,2088.6122 1871.8903,2088.5602 C 1871.8472,2088.527 1871.7831,2088.5059 1871.6978,2088.497 L 1871.6978,2089.0366 M 1872.8296,2089.848 L 1872.8296,2090.3957 L 1872.1029,2090.3957 C 1872.1801,2090.4702 1872.2352,2090.5442 1872.2684,2090.6178 C 1872.3016,2090.6913 1872.3182,2090.7783 1872.3182,2090.8788 C 1872.3182,2091.0277 1872.2729,2091.1448 1872.1823,2091.2301 C 1872.0917,2091.3162 1871.9526,2091.3592 1871.7651,2091.3592 L 1870.8568,2091.3592 L 1870.8568,2090.8089 L 1871.6427,2090.8089 C 1871.7324,2090.8089 1871.7956,2090.7923 1871.8324,2090.7591 C 1871.8701,2090.7259 1871.8889,2090.6792 1871.8889,2090.6191 C 1871.8889,2090.5527 1871.8638,2090.4989 1871.8136,2090.4576 C 1871.7633,2090.4164 1871.6732,2090.3957 1871.5431,2090.3957 L 1870.8568,2090.3957 L 1870.8568,2089.848 L 1872.8296,2089.848 M 1871.4354,2093.2755 L 1871.4354,2092.1774 C 1871.3475,2092.1873 1871.282,2092.2111 1871.239,2092.2487 C 1871.1771,2092.3017 1871.1461,2092.3707 1871.1461,2092.456 C 1871.1461,2092.5098 1871.1596,2092.5609 1871.1865,2092.6094 C 1871.2035,2092.639 1871.2336,2092.6708 1871.2766,2092.7049 L 1871.2269,2093.2446 C 1871.0833,2093.162 1870.9801,2093.0624 1870.9173,2092.9458 C 1870.8554,2092.8292 1870.8245,2092.6619 1870.8245,2092.4439 C 1870.8245,2092.2546 1870.851,2092.1056 1870.9039,2091.9971 C 1870.9577,2091.8885 1871.0425,2091.7984 1871.1582,2091.7266 C 1871.2749,2091.6557 1871.4117,2091.6203 1871.5687,2091.6203 C 1871.792,2091.6203 1871.9728,2091.6916 1872.111,2091.8343 C 1872.2491,2091.9778 1872.3182,2092.1756 1872.3182,2092.4277 C 1872.3182,2092.6323 1872.2873,2092.7937 1872.2254,2092.9122 C 1872.1635,2093.0306 1872.0737,2093.1207 1871.9562,2093.1827 C 1871.8387,2093.2446 1871.6857,2093.2755 1871.4973,2093.2755 L 1871.4354,2093.2755 M 1871.6978,2092.7184 C 1871.8037,2092.7076 1871.8795,2092.6789 1871.9253,2092.6323 C 1871.971,2092.5865 1871.9939,2092.526 1871.9939,2092.4506 C 1871.9939,2092.3636 1871.9594,2092.294 1871.8903,2092.242 C 1871.8472,2092.2088 1871.7831,2092.1877 1871.6978,2092.1788 L 1871.6978,2092.7184 M 1872.2859,2093.5298 L 1872.2859,2094.0399 L 1872.0531,2094.0399 C 1872.1482,2094.1161 1872.2159,2094.1933 1872.2563,2094.2713 C 1872.2976,2094.3494 1872.3182,2094.4445 1872.3182,2094.5566 C 1872.3182,2094.7082 1872.2729,2094.8266 1872.1823,2094.9119 C 1872.0926,2094.998 1871.9535,2095.041 1871.7651,2095.041 L 1870.8568,2095.041 L 1870.8568,2094.4907 L 1871.6427,2094.4907 C 1871.7324,2094.4907 1871.7956,2094.4741 1871.8324,2094.4409 C 1871.8701,2094.4077 1871.8889,2094.361 1871.8889,2094.3009 C 1871.8889,2094.2345 1871.8638,2094.1807 1871.8136,2094.1394 C 1871.7633,2094.0982 1871.6732,2094.0775 1871.5431,2094.0775 L 1870.8568,2094.0775 L 1870.8568,2093.5298 L 1872.2859,2093.5298 M 1872.8296,2097.7957 L 1870.8568,2097.7957 L 1870.8568,2097.283 L 1871.0681,2097.283 C 1870.9784,2097.2112 1870.9178,2097.1457 1870.8864,2097.0865 C 1870.8451,2097.0076 1870.8245,2096.9196 1870.8245,2096.8227 C 1870.8245,2096.6281 1870.8985,2096.4791 1871.0465,2096.376 C 1871.1946,2096.2737 1871.3744,2096.2226 1871.5862,2096.2226 C 1871.823,2096.2226 1872.0042,2096.2791 1872.1298,2096.3921 C 1872.2554,2096.5061 1872.3182,2096.6505 1872.3182,2096.8254 C 1872.3182,2096.9107 1872.3039,2096.9878 1872.2751,2097.0569 C 1872.2464,2097.1269 1872.2034,2097.1888 1872.146,2097.2426 L 1872.8296,2097.2426 L 1872.8296,2097.7957 M 1871.5754,2097.2466 C 1871.6875,2097.2466 1871.771,2097.2229 1871.8257,2097.1753 C 1871.8813,2097.1278 1871.9091,2097.0677 1871.9091,2096.995 C 1871.9091,2096.9313 1871.8827,2096.8779 1871.8297,2096.8349 C 1871.7768,2096.7918 1871.688,2096.7703 1871.5633,2096.7703 C 1871.4467,2096.7703 1871.361,2096.7922 1871.3063,2096.8362 C 1871.2524,2096.8811 1871.2255,2096.9362 1871.2255,2097.0017 C 1871.2255,2097.0717 1871.2529,2097.13 1871.3076,2097.1767 C 1871.3623,2097.2233 1871.4516,2097.2466 1871.5754,2097.2466 M 1870.8568,2099.6379 L 1870.8568,2099.1266 L 1871.0882,2099.1266 C 1870.9932,2099.0503 1870.9254,2098.9732 1870.8851,2098.8951 C 1870.8447,2098.818 1870.8245,2098.7229 1870.8245,2098.6098 C 1870.8245,2098.4591 1870.8694,2098.3407 1870.9591,2098.2546 C 1871.0497,2098.1693 1871.1887,2098.1267 1871.3762,2098.1267 L 1872.2859,2098.1267 L 1872.2859,2098.6771 L 1871.5,2098.6771 C 1871.4103,2098.6771 1871.3466,2098.6937 1871.3089,2098.7269 C 1871.2713,2098.7601 1871.2524,2098.8067 1871.2524,2098.8668 C 1871.2524,2098.9323 1871.2775,2098.9857 1871.3278,2099.027 C 1871.378,2099.0691 1871.4682,2099.0902 1871.5983,2099.0902 L 1872.2859,2099.0902 L 1872.2859,2099.6379 L 1870.8568,2099.6379 M 1872.2859,2099.9784 L 1872.2859,2100.4911 L 1872.0518,2100.4911 C 1872.1531,2100.5404 1872.2227,2100.5911 1872.2603,2100.6432 C 1872.2989,2100.6961 1872.3182,2100.7611 1872.3182,2100.8383 C 1872.3182,2100.919 1872.2931,2101.0074 1872.2429,2101.1034 L 1871.8526,2100.9338 C 1871.8795,2100.8692 1871.893,2100.8181 1871.893,2100.7804 C 1871.893,2100.7086 1871.8634,2100.653 1871.8042,2100.6136 C 1871.7207,2100.557 1871.5646,2100.5288 1871.3359,2100.5288 L 1870.8568,2100.5288 L 1870.8568,2099.9784 L 1872.2859,2099.9784 M 1871.4153,2102.2607 L 1871.356,2102.7815 C 1871.2475,2102.7528 1871.1533,2102.7057 1871.0734,2102.6402 C 1870.9945,2102.5747 1870.933,2102.4908 1870.8891,2102.3885 C 1870.8451,2102.2871 1870.8231,2102.158 1870.8231,2102.001 C 1870.8231,2101.8493 1870.8371,2101.7229 1870.8649,2101.6215 C 1870.8936,2101.521 1870.9393,2101.4344 1871.0021,2101.3618 C 1871.0658,2101.2891 1871.1403,2101.2321 1871.2255,2101.1909 C 1871.3107,2101.1496 1871.4238,2101.129 1871.5646,2101.129 C 1871.7118,2101.129 1871.8342,2101.1541 1871.932,2101.2043 C 1872.0038,2101.2411 1872.0679,2101.2913 1872.1244,2101.355 C 1872.1818,2101.4187 1872.2245,2101.4842 1872.2523,2101.5515 C 1872.2962,2101.6583 1872.3182,2101.7951 1872.3182,2101.9619 C 1872.3182,2102.1952 1872.2765,2102.3728 1872.1931,2102.4948 C 1872.1096,2102.6177 1871.9876,2102.7039 1871.827,2102.7532 L 1871.7584,2102.2378 C 1871.8194,2102.2217 1871.8652,2102.192 1871.8957,2102.149 C 1871.9271,2102.1068 1871.9428,2102.0499 1871.9428,2101.9781 C 1871.9428,2101.8875 1871.91,2101.8139 1871.8445,2101.7574 C 1871.7799,2101.7018 1871.6817,2101.674 1871.5498,2101.674 C 1871.4323,2101.674 1871.343,2101.7018 1871.282,2101.7574 C 1871.221,2101.813 1871.1905,2101.8839 1871.1905,2101.97 C 1871.1905,2102.0418 1871.2089,2102.1019 1871.2457,2102.1503 C 1871.2825,2102.1997 1871.339,2102.2365 1871.4153,2102.2607 M 1872.8296,2103.0358 L 1872.8296,2103.5835 L 1872.1029,2103.5835 C 1872.1801,2103.658 1872.2352,2103.732 1872.2684,2103.8055 C 1872.3016,2103.8791 1872.3182,2103.9661 1872.3182,2104.0666 C 1872.3182,2104.2155 1872.2729,2104.3326 1872.1823,2104.4178 C 1872.0917,2104.5039 1871.9526,2104.547 1871.7651,2104.547 L 1870.8568,2104.547 L 1870.8568,2103.9966 L 1871.6427,2103.9966 C 1871.7324,2103.9966 1871.7956,2103.98 1871.8324,2103.9468 C 1871.8701,2103.9136 1871.8889,2103.867 1871.8889,2103.8069 C 1871.8889,2103.7405 1871.8638,2103.6867 1871.8136,2103.6454 C 1871.7633,2103.6041 1871.6732,2103.5835 1871.5431,2103.5835 L 1870.8568,2103.5835 L 1870.8568,2103.0358 L 1872.8296,2103.0358 M 1872.8296,2107.3016 L 1870.8568,2107.3016 L 1870.8568,2106.7889 L 1871.0681,2106.7889 C 1870.9784,2106.7172 1870.9178,2106.6517 1870.8864,2106.5925 C 1870.8451,2106.5135 1870.8245,2106.4256 1870.8245,2106.3287 C 1870.8245,2106.134 1870.8985,2105.9851 1871.0465,2105.8819 C 1871.1946,2105.7797 1871.3744,2105.7285 1871.5862,2105.7285 C 1871.823,2105.7285 1872.0042,2105.785 1872.1298,2105.8981 C 1872.2554,2106.012 1872.3182,2106.1565 1872.3182,2106.3314 C 1872.3182,2106.4166 1872.3039,2106.4938 1872.2751,2106.5629 C 1872.2464,2106.6328 1872.2034,2106.6947 1872.146,2106.7486 L 1872.8296,2106.7486 L 1872.8296,2107.3016 M 1871.5754,2106.7526 C 1871.6875,2106.7526 1871.771,2106.7288 1871.8257,2106.6813 C 1871.8813,2106.6337 1871.9091,2106.5736 1871.9091,2106.501 C 1871.9091,2106.4373 1871.8827,2106.3839 1871.8297,2106.3408 C 1871.7768,2106.2978 1871.688,2106.2762 1871.5633,2106.2762 C 1871.4467,2106.2762 1871.361,2106.2982 1871.3063,2106.3422 C 1871.2524,2106.387 1871.2255,2106.4422 1871.2255,2106.5077 C 1871.2255,2106.5777 1871.2529,2106.636 1871.3076,2106.6826 C 1871.3623,2106.7293 1871.4516,2106.7526 1871.5754,2106.7526 M 1871.823,2108.1373 L 1871.8782,2107.6138 C 1871.9697,2107.6336 1872.0414,2107.6618 1872.0935,2107.6986 C 1872.1464,2107.7363 1872.1922,2107.7901 1872.2307,2107.8601 C 1872.2586,2107.9103 1872.2801,2107.9794 1872.2953,2108.0673 C 1872.3106,2108.1553 1872.3182,2108.2503 1872.3182,2108.3526 C 1872.3182,2108.5168 1872.3088,2108.6487 1872.29,2108.7483 C 1872.272,2108.8478 1872.2339,2108.9308 1872.1756,2108.9972 C 1872.1352,2109.0439 1872.0778,2109.0806 1872.0033,2109.1076 C 1871.9298,2109.1345 1871.8593,2109.1479 1871.792,2109.1479 L 1871.1609,2109.1479 C 1871.0936,2109.1479 1871.0407,2109.152 1871.0021,2109.16 C 1870.9644,2109.169 1870.916,2109.1878 1870.8568,2109.2166 L 1870.8568,2108.7025 C 1870.8936,2108.6819 1870.9214,2108.6684 1870.9402,2108.6621 C 1870.96,2108.6558 1870.9905,2108.6496 1871.0317,2108.6433 C 1870.9627,2108.5715 1870.9133,2108.5002 1870.8837,2108.4293 C 1870.8442,2108.3324 1870.8245,2108.2198 1870.8245,2108.0916 C 1870.8245,2107.9211 1870.864,2107.7915 1870.9429,2107.7027 C 1871.0219,2107.6147 1871.1192,2107.5708 1871.2349,2107.5708 C 1871.3435,2107.5708 1871.4327,2107.6026 1871.5027,2107.6663 C 1871.5727,2107.73 1871.6247,2107.8475 1871.6588,2108.0189 C 1871.7001,2108.2243 1871.7288,2108.3576 1871.7449,2108.4186 C 1871.762,2108.4796 1871.784,2108.5442 1871.8109,2108.6123 C 1871.8782,2108.6123 1871.9253,2108.5984 1871.9522,2108.5706 C 1871.9791,2108.5428 1871.9926,2108.4939 1871.9926,2108.4239 C 1871.9926,2108.3342 1871.9782,2108.2669 1871.9495,2108.2221 C 1871.9271,2108.1871 1871.8849,2108.1588 1871.823,2108.1373 M 1871.535,2108.6123 C 1871.5081,2108.537 1871.4843,2108.4585 1871.4637,2108.3768 C 1871.4341,2108.2656 1871.4049,2108.1952 1871.3762,2108.1656 C 1871.3466,2108.1351 1871.313,2108.1198 1871.2753,2108.1198 C 1871.2322,2108.1198 1871.1968,2108.1346 1871.169,2108.1642 C 1871.1421,2108.1947 1871.1286,2108.2391 1871.1286,2108.2974 C 1871.1286,2108.3585 1871.1434,2108.415 1871.173,2108.467 C 1871.2026,2108.5199 1871.2385,2108.5572 1871.2807,2108.5787 C 1871.3237,2108.6011 1871.3794,2108.6123 1871.4475,2108.6123 L 1871.535,2108.6123 M 1871.2524,2109.3821 L 1871.3036,2109.9257 C 1871.239,2109.9482 1871.1928,2109.9796 1871.165,2110.0199 C 1871.1371,2110.0603 1871.1232,2110.1141 1871.1232,2110.1814 C 1871.1232,2110.255 1871.1389,2110.3119 1871.1703,2110.3523 C 1871.1937,2110.3837 1871.2228,2110.3994 1871.2578,2110.3994 C 1871.2973,2110.3994 1871.3278,2110.3788 1871.3493,2110.3375 C 1871.3646,2110.3079 1871.3834,2110.2294 1871.4058,2110.102 C 1871.439,2109.9118 1871.4695,2109.7795 1871.4973,2109.705 C 1871.526,2109.6315 1871.574,2109.5691 1871.6413,2109.518 C 1871.7086,2109.4677 1871.7853,2109.4426 1871.8714,2109.4426 C 1871.9656,2109.4426 1872.0468,2109.47 1872.115,2109.5247 C 1872.1832,2109.5794 1872.2339,2109.6548 1872.2671,2109.7508 C 1872.3012,2109.8468 1872.3182,2109.9755 1872.3182,2110.137 C 1872.3182,2110.3075 1872.3052,2110.4331 1872.2792,2110.5138 C 1872.2532,2110.5954 1872.2128,2110.6632 1872.1581,2110.717 C 1872.1033,2110.7717 1872.0293,2110.817 1871.936,2110.8529 L 1871.8849,2110.3335 C 1871.9307,2110.32 1871.9643,2110.2976 1871.9858,2110.2662 C 1872.0145,2110.2231 1872.0289,2110.1711 1872.0289,2110.1101 C 1872.0289,2110.0482 1872.0177,2110.0029 1871.9952,2109.9742 C 1871.9737,2109.9464 1871.9472,2109.9325 1871.9158,2109.9325 C 1871.8809,2109.9325 1871.8544,2109.9504 1871.8365,2109.9863 C 1871.8185,2110.0222 1871.8024,2110.1002 1871.788,2110.2204 C 1871.7674,2110.4026 1871.7387,2110.538 1871.7019,2110.6268 C 1871.6651,2110.7157 1871.6126,2110.7834 1871.5444,2110.83 C 1871.4763,2110.8776 1871.4013,2110.9014 1871.3197,2110.9014 C 1871.2372,2110.9014 1871.1569,2110.8762 1871.0788,2110.826 C 1871.0008,2110.7767 1870.9384,2110.6982 1870.8918,2110.5905 C 1870.846,2110.4837 1870.8231,2110.338 1870.8231,2110.1532 C 1870.8231,2109.8921 1870.8604,2109.7059 1870.9348,2109.5947 C 1871.0093,2109.4843 1871.1152,2109.4135 1871.2524,2109.3821 M 1872.8296,2112.1219 L 1872.8296,2113.263 C 1872.8296,2113.4532 1872.7825,2113.599 1872.6883,2113.7004 C 1872.5941,2113.8027 1872.4774,2113.8538 1872.3384,2113.8538 C 1872.2218,2113.8538 1872.1217,2113.8175 1872.0383,2113.7448 C 1871.9827,2113.6964 1871.9387,2113.6255 1871.9064,2113.5322 C 1871.8723,2113.6739 1871.8136,2113.778 1871.7301,2113.8444 C 1871.6476,2113.9117 1871.5435,2113.9453 1871.4179,2113.9453 C 1871.3157,2113.9453 1871.2237,2113.9215 1871.1421,2113.874 C 1871.0604,2113.8264 1870.9958,2113.7614 1870.9483,2113.6789 C 1870.9187,2113.6277 1870.8972,2113.5506 1870.8837,2113.4474 C 1870.8658,2113.3101 1870.8568,2113.2191 1870.8568,2113.1742 L 1870.8568,2112.1219 L 1872.8296,2112.1219 M 1872.0558,2112.7369 L 1872.0558,2113.002 C 1872.0558,2113.0971 1872.0719,2113.163 1872.1042,2113.1998 C 1872.1374,2113.2375 1872.185,2113.2563 1872.2469,2113.2563 C 1872.3043,2113.2563 1872.3492,2113.2375 1872.3815,2113.1998 C 1872.4138,2113.163 1872.4299,2113.0984 1872.4299,2113.006 L 1872.4299,2112.7369 L 1872.0558,2112.7369 M 1871.2807,2112.7369 L 1871.2807,2113.0477 C 1871.2807,2113.1527 1871.2991,2113.2267 1871.3359,2113.2698 C 1871.3735,2113.3128 1871.4238,2113.3344 1871.4866,2113.3344 C 1871.5449,2113.3344 1871.5915,2113.3128 1871.6265,2113.2698 C 1871.6624,2113.2276 1871.6804,2113.1531 1871.6804,2113.0464 L 1871.6804,2112.7369 L 1871.2807,2112.7369 M 1872.8296,2114.2467 L 1872.8296,2114.7944 L 1872.4568,2114.7944 L 1872.4568,2114.2467 L 1872.8296,2114.2467 M 1872.2859,2114.2467 L 1872.2859,2114.7944 L 1870.8568,2114.7944 L 1870.8568,2114.2467 L 1872.2859,2114.2467 M 1872.8296,2115.1659 L 1872.8296,2115.7149 L 1870.8568,2115.7149 L 1870.8568,2115.1659 L 1872.8296,2115.1659 M 1872.8296,2117.5719 L 1870.8568,2117.5719 L 1870.8568,2117.0592 L 1871.0681,2117.0592 C 1870.9784,2116.9875 1870.9178,2116.922 1870.8864,2116.8628 C 1870.8451,2116.7838 1870.8245,2116.6959 1870.8245,2116.599 C 1870.8245,2116.4043 1870.8985,2116.2554 1871.0465,2116.1522 C 1871.1946,2116.05 1871.3744,2115.9988 1871.5862,2115.9988 C 1871.823,2115.9988 1872.0042,2116.0554 1872.1298,2116.1684 C 1872.2554,2116.2823 1872.3182,2116.4268 1872.3182,2116.6017 C 1872.3182,2116.6869 1872.3039,2116.7641 1872.2751,2116.8332 C 1872.2464,2116.9031 1872.2034,2116.965 1872.146,2117.0189 L 1872.8296,2117.0189 L 1872.8296,2117.5719 M 1871.5754,2117.0229 C 1871.6875,2117.0229 1871.771,2116.9991 1871.8257,2116.9516 C 1871.8813,2116.904 1871.9091,2116.8439 1871.9091,2116.7713 C 1871.9091,2116.7076 1871.8827,2116.6542 1871.8297,2116.6111 C 1871.7768,2116.5681 1871.688,2116.5465 1871.5633,2116.5465 C 1871.4467,2116.5465 1871.361,2116.5685 1871.3063,2116.6125 C 1871.2524,2116.6573 1871.2255,2116.7125 1871.2255,2116.778 C 1871.2255,2116.848 1871.2529,2116.9063 1871.3076,2116.9529 C 1871.3623,2116.9996 1871.4516,2117.0229 1871.5754,2117.0229"
       style="font-size:2.75597429px;font-style:normal;font-variant:normal;font-weight:normal;font-stretch:normal;text-align:start;line-height:125%;writing-mode:lr-tb;text-anchor:start;color:#000000;fill:#ffffff;fill-opacity:1;fill-rule:nonzero;stroke:none;stroke-width:1px;stroke-linecap:butt;stroke-linejoin:miter;marker:none;marker-start:none;marker-mid:none;marker-end:none;stroke-miterlimit:4;stroke-dashoffset:0;stroke-opacity:1;visibility:visible;display:inline;overflow:visible;font-family:Arial Black"
       id="Sentence7" />
  </g>
</svg>
